<svg version="1.1" xmlns="http://www.w3.org/2000/svg" xmlns:xlink="http://www.w3.org/1999/xlink" width="1755" height="676"><defs></defs><g><g transform="translate(-506,-50) scale(1,1)"><rect fill="#C0C0C0" stroke="none" x="833" y="311" width="326" height="144" opacity="0.2"></rect></g><g transform="translate(-506,-50) scale(1,1)"><rect fill="#ffffff" stroke="none" x="826" y="304" width="326" height="144"></rect></g><g transform="translate(-506,-50) scale(1,1)"><path fill="none" stroke="#000000" d="M 826 304 L 1152 304 L 1152 448 L 826 448 L 826 304 Z Z" stroke-miterlimit="10"></path></g><g transform="translate(-506,-50) scale(1,1)"><rect fill="#ffffff" stroke="none" x="816" y="311" width="20" height="10"></rect></g><g transform="translate(-506,-50) scale(1,1)"><path fill="none" stroke="#000000" d="M 816 311 L 836 311 L 836 321 L 816 321 L 816 311 Z Z" stroke-miterlimit="10"></path></g><g transform="translate(-506,-50) scale(1,1)"><rect fill="#ffffff" stroke="none" x="816" y="331" width="20" height="10"></rect></g><g transform="translate(-506,-50) scale(1,1)"><path fill="none" stroke="#000000" d="M 816 331 L 836 331 L 836 341 L 816 341 L 816 331 Z Z" stroke-miterlimit="10"></path></g><g transform="translate(-506,-50) scale(1,1)"><path fill="none" stroke="#000000" d="M 836 329 L 1152 329" stroke-miterlimit="10"></path></g><g transform="translate(-506,-50) scale(1,1)"><g><path fill="none" stroke="none"></path><text fill="#000000" stroke="none" font-family="Arial" font-size="13px" font-style="normal" font-weight="bold" text-decoration="none" x="962" y="323.5">TouristMap</text></g></g><g transform="translate(-506,-50) scale(1,1)"><g><path fill="none" stroke="none"></path><text fill="#000000" stroke="none" font-family="Arial" font-size="13px" font-style="normal" font-weight="normal" text-decoration="none" x="841" y="346.5">-geodatabaseLocation: String</text></g></g><g transform="translate(-506,-50) scale(1,1)"><g><path fill="none" stroke="none"></path><text fill="#000000" stroke="none" font-family="Arial" font-size="13px" font-style="normal" font-weight="normal" text-decoration="none" x="841" y="361.5">-mapTilePackageLocation: String</text></g></g><g transform="translate(-506,-50) scale(1,1)"><g><path fill="none" stroke="none"></path><text fill="#000000" stroke="none" font-family="Arial" font-size="13px" font-style="normal" font-weight="normal" text-decoration="none" x="841" y="376.5">-Directions</text></g></g><g transform="translate(-506,-50) scale(1,1)"><g><path fill="none" stroke="none"></path><text fill="#000000" stroke="none" font-family="Arial" font-size="13px" font-style="normal" font-weight="normal" text-decoration="none" x="841" y="391.5">-Places</text></g></g><g transform="translate(-506,-50) scale(1,1)"><g><path fill="none" stroke="none"></path><text fill="#000000" stroke="none" font-family="Arial" font-size="13px" font-style="normal" font-weight="normal" text-decoration="none" x="841" y="406.5">-Observer</text></g></g><g transform="translate(-506,-50) scale(1,1)"><path fill="#C0C0C0" stroke="none" d="M 1318 418.5 C 1318 412.1487248 1323.1487248 407 1329.5 407 C 1335.8512752 407 1341 412.1487248 1341 418.5 C 1341 424.8512752 1335.8512752 430 1329.5 430 C 1323.1487248 430 1318 424.8512752 1318 418.5 Z" opacity="0.2"></path></g><g transform="translate(-506,-50) scale(1,1)"><path fill="#ffffff" stroke="none" d="M 1311 411.5 C 1311 405.1487248 1316.1487248 400 1322.5 400 C 1328.8512752 400 1334 405.1487248 1334 411.5 C 1334 417.8512752 1328.8512752 423 1322.5 423 C 1316.1487248 423 1311 417.8512752 1311 411.5 Z"></path></g><g transform="translate(-506,-50) scale(1,1)"><path fill="none" stroke="#000000" d="M 1311 411.5 C 1311 405.1487248 1316.1487248 400 1322.5 400 C 1328.8512752 400 1334 405.1487248 1334 411.5 C 1334 417.8512752 1328.8512752 423 1322.5 423 C 1316.1487248 423 1311 417.8512752 1311 411.5 Z" stroke-miterlimit="10"></path></g><g transform="translate(-506,-50) scale(1,1)"><path fill="none" stroke="#000000" d="M 1228 448 L 1417 448" stroke-miterlimit="10"></path></g><g transform="translate(-506,-50) scale(1,1)"><g><path fill="none" stroke="none"></path><text fill="#000000" stroke="none" font-family="Arial" font-size="13px" font-style="normal" font-weight="bold" text-decoration="none" x="1310" y="442.5">Map</text></g></g><g transform="translate(-506,-50) scale(1,1)"><g><path fill="none" stroke="none"></path><text fill="#000000" stroke="none" font-family="Arial" font-size="13px" font-style="normal" font-weight="normal" text-decoration="none" x="1233" y="465.5">+getMapGUI(): JComponent</text></g></g><g transform="translate(-506,-50) scale(1,1)"><g><path fill="none" stroke="none"></path><text fill="#000000" stroke="none" font-family="Arial" font-size="13px" font-style="normal" font-weight="normal" text-decoration="none" x="1233" y="480.5">+getMapName(): String</text></g></g><g transform="translate(-506,-50) scale(1,1)"><path fill="none" stroke="#000000" d="M 1152 411 L 1311 411" stroke-miterlimit="10"></path></g><g transform="translate(-506,-50) scale(1,1)"><path fill="#C0C0C0" stroke="none" d="M 788.5 534.5 C 788.5 528.1487248 793.6487248 523 800 523 C 806.3512752 523 811.5 528.1487248 811.5 534.5 C 811.5 540.8512752 806.3512752 546 800 546 C 793.6487248 546 788.5 540.8512752 788.5 534.5 Z" opacity="0.2"></path></g><g transform="translate(-506,-50) scale(1,1)"><path fill="none" stroke="#000000" d="M 792.3777601474775 515.5168463579932 A 11.5 11.5 0 0 1 793.6222398525225 538.4831536420068" stroke-miterlimit="10"></path></g><g transform="translate(-506,-50) scale(1,1)"><path fill="#ffffff" stroke="none" d="M 784.5 527.5 C 784.5 522.8055792 788.3055792 519 793 519 C 797.6944208 519 801.5 522.8055792 801.5 527.5 C 801.5 532.1944208 797.6944208 536 793 536 C 788.3055792 536 784.5 532.1944208 784.5 527.5 Z"></path></g><g transform="translate(-506,-50) scale(1,1)"><path fill="none" stroke="#000000" d="M 784.5 527.5 C 784.5 522.8055792 788.3055792 519 793 519 C 797.6944208 519 801.5 522.8055792 801.5 527.5 C 801.5 532.1944208 797.6944208 536 793 536 C 788.3055792 536 784.5 532.1944208 784.5 527.5 Z" stroke-miterlimit="10"></path></g><g transform="translate(-506,-50) scale(1,1)"><path fill="none" stroke="#000000" d="M 516 564 L 1070 564" stroke-miterlimit="10"></path></g><g transform="translate(-506,-50) scale(1,1)"><g><path fill="none" stroke="none"></path><text fill="#000000" stroke="none" font-family="Arial" font-size="13px" font-style="normal" font-weight="bold" text-decoration="none" x="742" y="558.5">RoutingCalculator</text></g></g><g transform="translate(-506,-50) scale(1,1)"><g><path fill="none" stroke="none"></path><text fill="#000000" stroke="none" font-family="Arial" font-size="13px" font-style="normal" font-weight="normal" text-decoration="none" x="521" y="581.5">+solve(stops: MapLocation[1..*], geodatabaseLocation: String, observer: NewGraphicObserver)</text></g></g><g transform="translate(-506,-50) scale(1,1)"><path fill="#C0C0C0" stroke="none" d="M 1464.5 534.5 C 1464.5 528.1487248 1469.6487248 523 1476 523 C 1482.3512752 523 1487.5 528.1487248 1487.5 534.5 C 1487.5 540.8512752 1482.3512752 546 1476 546 C 1469.6487248 546 1464.5 540.8512752 1464.5 534.5 Z" opacity="0.2"></path></g><g transform="translate(-506,-50) scale(1,1)"><path fill="none" stroke="#000000" d="M 1469 538.5 A 11.5 11.5 0 0 1 1469 515.5" stroke-miterlimit="10"></path></g><g transform="translate(-506,-50) scale(1,1)"><path fill="#ffffff" stroke="none" d="M 1460.5 527.5 C 1460.5 522.8055792 1464.3055792 519 1469 519 C 1473.6944208 519 1477.5 522.8055792 1477.5 527.5 C 1477.5 532.1944208 1473.6944208 536 1469 536 C 1464.3055792 536 1460.5 532.1944208 1460.5 527.5 Z"></path></g><g transform="translate(-506,-50) scale(1,1)"><path fill="none" stroke="#000000" d="M 1460.5 527.5 C 1460.5 522.8055792 1464.3055792 519 1469 519 C 1473.6944208 519 1477.5 522.8055792 1477.5 527.5 C 1477.5 532.1944208 1473.6944208 536 1469 536 C 1464.3055792 536 1460.5 532.1944208 1460.5 527.5 Z" stroke-miterlimit="10"></path></g><g transform="translate(-506,-50) scale(1,1)"><path fill="none" stroke="#000000" d="M 1088 564 L 1850 564" stroke-miterlimit="10"></path></g><g transform="translate(-506,-50) scale(1,1)"><g><path fill="none" stroke="none"></path><text fill="#000000" stroke="none" font-family="Arial" font-size="13px" font-style="normal" font-weight="bold" text-decoration="none" x="1401.5" y="558.5">ClosestPlaceCalculator</text></g></g><g transform="translate(-506,-50) scale(1,1)"><g><path fill="none" stroke="none"></path><text fill="#000000" stroke="none" font-family="Arial" font-size="13px" font-style="normal" font-weight="normal" text-decoration="none" x="1093" y="581.5">+solve(startLocation: MapLocation[1], availableFacilities: Place[0..*], geodatabaseLocation: String, observer: NewGraphicObserver)</text></g></g><g transform="translate(-506,-50) scale(1,1)"><path fill="#C0C0C0" stroke="none" d="M 889 166.5 C 889 160.1487248 894.1487248 155 900.5 155 C 906.8512752 155 912 160.1487248 912 166.5 C 912 172.8512752 906.8512752 178 900.5 178 C 894.1487248 178 889 172.8512752 889 166.5 Z" opacity="0.2"></path></g><g transform="translate(-506,-50) scale(1,1)"><path fill="none" stroke="#000000" d="M 904.5 159 A 11.5 11.5 0 0 1 881.5 159" stroke-miterlimit="10"></path></g><g transform="translate(-506,-50) scale(1,1)"><path fill="#ffffff" stroke="none" d="M 885 159.5 C 885 154.8055792 888.8055792 151 893.5 151 C 898.1944208 151 902 154.8055792 902 159.5 C 902 164.1944208 898.1944208 168 893.5 168 C 888.8055792 168 885 164.1944208 885 159.5 Z"></path></g><g transform="translate(-506,-50) scale(1,1)"><path fill="none" stroke="#000000" d="M 885 159.5 C 885 154.8055792 888.8055792 151 893.5 151 C 898.1944208 151 902 154.8055792 902 159.5 C 902 164.1944208 898.1944208 168 893.5 168 C 888.8055792 168 885 164.1944208 885 159.5 Z" stroke-miterlimit="10"></path></g><g transform="translate(-506,-50) scale(1,1)"><path fill="none" stroke="#000000" d="M 812 196 L 975 196" stroke-miterlimit="10"></path></g><g transform="translate(-506,-50) scale(1,1)"><g><path fill="none" stroke="none"></path><text fill="#000000" stroke="none" font-family="Arial" font-size="13px" font-style="normal" font-weight="bold" text-decoration="none" x="857.5" y="190.5">PlaceLoader</text></g></g><g transform="translate(-506,-50) scale(1,1)"><g><path fill="none" stroke="none"></path><text fill="#000000" stroke="none" font-family="Arial" font-size="13px" font-style="normal" font-weight="normal" text-decoration="none" x="817" y="213.5">+populateMap(map: JMap)</text></g></g><g transform="translate(-506,-50) scale(1,1)"><rect fill="#ffffff" stroke="none" x="992" y="441" width="14" height="14"></rect></g><g transform="translate(-506,-50) scale(1,1)"><path fill="none" stroke="#000000" d="M 992 441 L 1006 441 L 1006 455 L 992 455 L 992 441 Z Z" stroke-miterlimit="10"></path></g><g transform="translate(-506,-50) scale(1,1)"><g><path fill="none" stroke="none"></path><text fill="#000000" stroke="none" font-family="Arial" font-size="13px" font-style="normal" font-weight="normal" text-decoration="none" x="1007" y="444.5">Directions</text></g></g><g transform="translate(-506,-50) scale(1,1)"><path fill="none" stroke="#000000" d="M 996 526.3768472906404 L 804.5 526.3768472906404" stroke-miterlimit="10"></path></g><g transform="translate(-506,-50) scale(1,1)"><path fill="none" stroke="#000000" d="M 996 455 L 996 527 L 1457.5 527" stroke-miterlimit="10"></path></g><g transform="translate(-506,-50) scale(1,1)"><rect fill="#ffffff" stroke="none" x="1008" y="297" width="14" height="14"></rect></g><g transform="translate(-506,-50) scale(1,1)"><path fill="none" stroke="#000000" d="M 1008 297 L 1022 297 L 1022 311 L 1008 311 L 1008 297 Z Z" stroke-miterlimit="10"></path></g><g transform="translate(-506,-50) scale(1,1)"><g><path fill="none" stroke="none"></path><text fill="#000000" stroke="none" font-family="Arial" font-size="13px" font-style="normal" font-weight="normal" text-decoration="none" x="1027" y="298.5">Places</text></g></g><g transform="translate(-506,-50) scale(1,1)"><path fill="none" stroke="#000000" d="M 1012 297 L 1012 264 L 893 264 L 893 171" stroke-miterlimit="10"></path></g><g transform="translate(-506,-50) scale(1,1)"><path fill="#C0C0C0" stroke="none" d="M 1143 166.5 C 1143 160.1487248 1148.1487248 155 1154.5 155 C 1160.8512752 155 1166 160.1487248 1166 166.5 C 1166 172.8512752 1160.8512752 178 1154.5 178 C 1148.1487248 178 1143 172.8512752 1143 166.5 Z" opacity="0.2"></path></g><g transform="translate(-506,-50) scale(1,1)"><path fill="none" stroke="#000000" d="M 1158.5 159 A 11.5 11.5 0 0 1 1135.5 159" stroke-miterlimit="10"></path></g><g transform="translate(-506,-50) scale(1,1)"><path fill="#ffffff" stroke="none" d="M 1139 159.5 C 1139 154.8055792 1142.8055792 151 1147.5 151 C 1152.1944208 151 1156 154.8055792 1156 159.5 C 1156 164.1944208 1152.1944208 168 1147.5 168 C 1142.8055792 168 1139 164.1944208 1139 159.5 Z"></path></g><g transform="translate(-506,-50) scale(1,1)"><path fill="none" stroke="#000000" d="M 1139 159.5 C 1139 154.8055792 1142.8055792 151 1147.5 151 C 1152.1944208 151 1156 154.8055792 1156 159.5 C 1156 164.1944208 1152.1944208 168 1147.5 168 C 1142.8055792 168 1139 164.1944208 1139 159.5 Z" stroke-miterlimit="10"></path></g><g transform="translate(-506,-50) scale(1,1)"><path fill="none" stroke="#000000" d="M 992 196 L 1303 196" stroke-miterlimit="10"></path></g><g transform="translate(-506,-50) scale(1,1)"><g><path fill="none" stroke="none"></path><text fill="#000000" stroke="none" font-family="Arial" font-size="13px" font-style="normal" font-weight="bold" text-decoration="none" x="1100" y="190.5">PlaceRepository</text></g></g><g transform="translate(-506,-50) scale(1,1)"><g><path fill="none" stroke="none"></path><text fill="#000000" stroke="none" font-family="Arial" font-size="13px" font-style="normal" font-weight="normal" text-decoration="none" x="997" y="213.5">+getPlaces(criteria: Predicate&lt;Place&gt;): Place[0..*]</text></g></g><g transform="translate(-506,-50) scale(1,1)"><path fill="none" stroke="#000000" d="M 1012 297 L 1012 264 L 1147 264 L 1147 171" stroke-miterlimit="10"></path></g><g transform="translate(-506,-50) scale(1,1)"><rect fill="#C0C0C0" stroke="none" x="949" y="67" width="175" height="47" opacity="0.2"></rect></g><g transform="translate(-506,-50) scale(1,1)"><rect fill="#ffffff" stroke="none" x="942" y="60" width="175" height="47"></rect></g><g transform="translate(-506,-50) scale(1,1)"><path fill="none" stroke="#000000" d="M 942 60 L 1117 60 L 1117 107 L 942 107 L 942 60 Z Z" stroke-miterlimit="10"></path></g><g transform="translate(-506,-50) scale(1,1)"><rect fill="#ffffff" stroke="none" x="932" y="67" width="20" height="10"></rect></g><g transform="translate(-506,-50) scale(1,1)"><path fill="none" stroke="#000000" d="M 932 67 L 952 67 L 952 77 L 932 77 L 932 67 Z Z" stroke-miterlimit="10"></path></g><g transform="translate(-506,-50) scale(1,1)"><rect fill="#ffffff" stroke="none" x="932" y="87" width="20" height="10"></rect></g><g transform="translate(-506,-50) scale(1,1)"><path fill="none" stroke="#000000" d="M 932 87 L 952 87 L 952 97 L 932 97 L 932 87 Z Z" stroke-miterlimit="10"></path></g><g transform="translate(-506,-50) scale(1,1)"><path fill="none" stroke="#000000" d="M 952 85 L 1117 85" stroke-miterlimit="10"></path></g><g transform="translate(-506,-50) scale(1,1)"><g><path fill="none" stroke="none"></path><text fill="#000000" stroke="none" font-family="Arial" font-size="13px" font-style="normal" font-weight="bold" text-decoration="none" x="993" y="79.5">PlaceManager</text></g></g><g transform="translate(-506,-50) scale(1,1)"><g><path fill="none" stroke="none"></path><text fill="#000000" stroke="none" font-family="Arial" font-size="13px" font-style="normal" font-weight="normal" text-decoration="none" x="957" y="102.5">-placesBinLocation: String</text></g></g><g transform="translate(-506,-50) scale(1,1)"><path fill="none" stroke="#000000" d="M 991 108 L 905 155.93617021276594" stroke-miterlimit="10"></path></g><g transform="translate(-506,-50) scale(1,1)"><path fill="none" stroke="#000000" d="M 1055 108 L 1136 156" stroke-miterlimit="10"></path></g><g transform="translate(-506,-50) scale(1,1)"><rect fill="#C0C0C0" stroke="none" x="1001" y="679" width="147" height="44" opacity="0.2"></rect></g><g transform="translate(-506,-50) scale(1,1)"><rect fill="#ffffff" stroke="none" x="994" y="672" width="147" height="44"></rect></g><g transform="translate(-506,-50) scale(1,1)"><path fill="none" stroke="#000000" d="M 994 672 L 1141 672 L 1141 716 L 994 716 L 994 672 Z Z" stroke-miterlimit="10"></path></g><g transform="translate(-506,-50) scale(1,1)"><rect fill="#ffffff" stroke="none" x="984" y="679" width="20" height="10"></rect></g><g transform="translate(-506,-50) scale(1,1)"><path fill="none" stroke="#000000" d="M 984 679 L 1004 679 L 1004 689 L 984 689 L 984 679 Z Z" stroke-miterlimit="10"></path></g><g transform="translate(-506,-50) scale(1,1)"><rect fill="#ffffff" stroke="none" x="984" y="699" width="20" height="10"></rect></g><g transform="translate(-506,-50) scale(1,1)"><path fill="none" stroke="#000000" d="M 984 699 L 1004 699 L 1004 709 L 984 709 L 984 699 Z Z" stroke-miterlimit="10"></path></g><g transform="translate(-506,-50) scale(1,1)"><g><path fill="none" stroke="none"></path><text fill="#000000" stroke="none" font-family="Arial" font-size="13px" font-style="normal" font-weight="bold" text-decoration="none" x="1014.5" y="691.5">DirectionsCalculator</text></g></g><g transform="translate(-506,-50) scale(1,1)"><path fill="none" stroke="#000000" d="M 984 694 L 793 694 L 793 539" stroke-miterlimit="10"></path></g><g transform="translate(-506,-50) scale(1,1)"><path fill="none" stroke="#000000" d="M 1141 694 L 1469 694 L 1469 539" stroke-miterlimit="10"></path></g><g transform="translate(-506,-50) scale(1,1)"><rect fill="#C0C0C0" stroke="none" x="1613" y="295" width="136" height="44" opacity="0.2"></rect></g><g transform="translate(-506,-50) scale(1,1)"><rect fill="#ffffff" stroke="none" x="1606" y="288" width="136" height="44"></rect></g><g transform="translate(-506,-50) scale(1,1)"><path fill="none" stroke="#000000" d="M 1606 288 L 1742 288 L 1742 332 L 1606 332 L 1606 288 Z Z" stroke-miterlimit="10"></path></g><g transform="translate(-506,-50) scale(1,1)"><rect fill="#ffffff" stroke="none" x="1596" y="295" width="20" height="10"></rect></g><g transform="translate(-506,-50) scale(1,1)"><path fill="none" stroke="#000000" d="M 1596 295 L 1616 295 L 1616 305 L 1596 305 L 1596 295 Z Z" stroke-miterlimit="10"></path></g><g transform="translate(-506,-50) scale(1,1)"><rect fill="#ffffff" stroke="none" x="1596" y="315" width="20" height="10"></rect></g><g transform="translate(-506,-50) scale(1,1)"><path fill="none" stroke="#000000" d="M 1596 315 L 1616 315 L 1616 325 L 1596 325 L 1596 315 Z Z" stroke-miterlimit="10"></path></g><g transform="translate(-506,-50) scale(1,1)"><g><path fill="none" stroke="none"></path><text fill="#000000" stroke="none" font-family="Arial" font-size="13px" font-style="normal" font-weight="bold" text-decoration="none" x="1625" y="307.5">TouristMapFactory</text></g></g><g transform="translate(-506,-50) scale(1,1)"><path fill="none" stroke="#000000" d="M 1596 316 L 1152 316" stroke-miterlimit="10" stroke-dasharray="3"></path></g><g transform="translate(-506,-50) scale(1,1)"><path fill="none" stroke="#000000" d="M 1162.162674857624 311.790482243984 L 1152 316 L 1162.162674857624 320.209517756016" stroke-miterlimit="10"></path></g><g transform="translate(-506,-50) scale(1,1)"><g><path fill="none" stroke="none"></path><text fill="#000000" stroke="none" font-family="Arial" font-size="13px" font-style="normal" font-weight="normal" text-decoration="none" x="1384" y="313">+produces </text></g></g><g transform="translate(-506,-50) scale(1,1)"><g><path fill="none" stroke="none"></path><text fill="#000000" stroke="none" font-family="Arial" font-size="13px" font-style="normal" font-weight="normal" text-decoration="none" x="1323" y="311">«Create»</text></g></g><g transform="translate(-506,-50) scale(1,1)"><path fill="#C0C0C0" stroke="none" d="M 1908.5 306.5 C 1908.5 300.1487248 1913.6487248 295 1920 295 C 1926.3512752 295 1931.5 300.1487248 1931.5 306.5 C 1931.5 312.8512752 1926.3512752 318 1920 318 C 1913.6487248 318 1908.5 312.8512752 1908.5 306.5 Z" opacity="0.2"></path></g><g transform="translate(-506,-50) scale(1,1)"><path fill="none" stroke="#000000" d="M 1913 287.5 A 11.5 11.5 0 0 1 1913 310.5" stroke-miterlimit="10"></path></g><g transform="translate(-506,-50) scale(1,1)"><path fill="#ffffff" stroke="none" d="M 1904.5 299.5 C 1904.5 294.8055792 1908.3055792 291 1913 291 C 1917.6944208 291 1921.5 294.8055792 1921.5 299.5 C 1921.5 304.1944208 1917.6944208 308 1913 308 C 1908.3055792 308 1904.5 304.1944208 1904.5 299.5 Z"></path></g><g transform="translate(-506,-50) scale(1,1)"><path fill="none" stroke="#000000" d="M 1904.5 299.5 C 1904.5 294.8055792 1908.3055792 291 1913 291 C 1917.6944208 291 1921.5 294.8055792 1921.5 299.5 C 1921.5 304.1944208 1917.6944208 308 1913 308 C 1908.3055792 308 1904.5 304.1944208 1904.5 299.5 Z" stroke-miterlimit="10"></path></g><g transform="translate(-506,-50) scale(1,1)"><path fill="none" stroke="#000000" d="M 1812 336 L 2014 336" stroke-miterlimit="10"></path></g><g transform="translate(-506,-50) scale(1,1)"><g><path fill="none" stroke="none"></path><text fill="#000000" stroke="none" font-family="Arial" font-size="13px" font-style="normal" font-weight="bold" text-decoration="none" x="1878.5" y="330.5">MapFactory</text></g></g><g transform="translate(-506,-50) scale(1,1)"><g><path fill="none" stroke="none"></path><text fill="#000000" stroke="none" font-family="Arial" font-size="13px" font-style="normal" font-weight="normal" text-decoration="none" x="1817" y="353.5">+getMap(mapName: String): Map</text></g></g><g transform="translate(-506,-50) scale(1,1)"><path fill="none" stroke="#000000" d="M 1742 299 L 1901.5 299" stroke-miterlimit="10"></path></g><g transform="translate(-506,-50) scale(1,1)"><rect fill="#C0C0C0" stroke="none" x="2121" y="243" width="137" height="200" opacity="0.2"></rect></g><g transform="translate(-506,-50) scale(1,1)"><rect fill="#ffffff" stroke="none" x="2114" y="236" width="137" height="200"></rect></g><g transform="translate(-506,-50) scale(1,1)"><path fill="none" stroke="#000000" d="M 2114 236 L 2251 236 L 2251 436 L 2114 436 L 2114 236 Z Z" stroke-miterlimit="10"></path></g><g transform="translate(-506,-50) scale(1,1)"><rect fill="#ffffff" stroke="none" x="2104" y="243" width="20" height="10"></rect></g><g transform="translate(-506,-50) scale(1,1)"><path fill="none" stroke="#000000" d="M 2104 243 L 2124 243 L 2124 253 L 2104 253 L 2104 243 Z Z" stroke-miterlimit="10"></path></g><g transform="translate(-506,-50) scale(1,1)"><rect fill="#ffffff" stroke="none" x="2104" y="263" width="20" height="10"></rect></g><g transform="translate(-506,-50) scale(1,1)"><path fill="none" stroke="#000000" d="M 2104 263 L 2124 263 L 2124 273 L 2104 273 L 2104 263 Z Z" stroke-miterlimit="10"></path></g><g transform="translate(-506,-50) scale(1,1)"><g><path fill="none" stroke="none"></path><text fill="#000000" stroke="none" font-family="Arial" font-size="13px" font-style="normal" font-weight="bold" text-decoration="none" x="2135" y="255.5">ApplicationControl</text></g></g><g transform="translate(-506,-50) scale(1,1)"><g><path fill="none" stroke="none"></path><text fill="#000000" stroke="none" font-family="Arial" font-size="13px" font-style="normal" font-weight="normal" text-decoration="none" x="2142.5" y="270.5">(from touristgis)</text></g></g><g transform="translate(-506,-50) scale(1,1)"><rect fill="#ffffff" stroke="none" x="2097" y="293" width="14" height="14"></rect></g><g transform="translate(-506,-50) scale(1,1)"><path fill="none" stroke="#000000" d="M 2097 293 L 2111 293 L 2111 307 L 2097 307 L 2097 293 Z Z" stroke-miterlimit="10"></path></g><g transform="translate(-506,-50) scale(1,1)"><g><path fill="none" stroke="none"></path><text fill="#000000" stroke="none" font-family="Arial" font-size="13px" font-style="normal" font-weight="normal" text-decoration="none" x="2115.5" y="304.5">Map</text></g></g><g transform="translate(-506,-50) scale(1,1)"><path fill="none" stroke="#000000" d="M 2097 299 L 1924.5 299" stroke-miterlimit="10"></path></g><g transform="translate(-506,-50) scale(1,1)"><path fill="#C0C0C0" stroke="none" d="M 620.5 426.5 C 620.5 420.1487248 625.6487248 415 632 415 C 638.3512752 415 643.5 420.1487248 643.5 426.5 C 643.5 432.8512752 638.3512752 438 632 438 C 625.6487248 438 620.5 432.8512752 620.5 426.5 Z" opacity="0.2"></path></g><g transform="translate(-506,-50) scale(1,1)"><path fill="#ffffff" stroke="none" d="M 613.5 419.5 C 613.5 413.1487248 618.6487248 408 625 408 C 631.3512752 408 636.5 413.1487248 636.5 419.5 C 636.5 425.8512752 631.3512752 431 625 431 C 618.6487248 431 613.5 425.8512752 613.5 419.5 Z"></path></g><g transform="translate(-506,-50) scale(1,1)"><path fill="none" stroke="#000000" d="M 613.5 419.5 C 613.5 413.1487248 618.6487248 408 625 408 C 631.3512752 408 636.5 413.1487248 636.5 419.5 C 636.5 425.8512752 631.3512752 431 625 431 C 618.6487248 431 613.5 425.8512752 613.5 419.5 Z" stroke-miterlimit="10"></path></g><g transform="translate(-506,-50) scale(1,1)"><path fill="none" stroke="#000000" d="M 532 456 L 718 456" stroke-miterlimit="10"></path></g><g transform="translate(-506,-50) scale(1,1)"><g><path fill="none" stroke="none"></path><text fill="#000000" stroke="none" font-family="Arial" font-size="13px" font-style="normal" font-weight="bold" text-decoration="none" x="564.5" y="450.5">NewGraphicObserver</text></g></g><g transform="translate(-506,-50) scale(1,1)"><g><path fill="none" stroke="none"></path><text fill="#000000" stroke="none" font-family="Arial" font-size="13px" font-style="normal" font-weight="normal" text-decoration="none" x="537" y="473.5">+addGraphic(graphic: Graphic)</text></g></g><g transform="translate(-506,-50) scale(1,1)"><rect fill="#ffffff" stroke="none" x="809" y="414" width="14" height="14"></rect></g><g transform="translate(-506,-50) scale(1,1)"><path fill="none" stroke="#000000" d="M 809 414 L 823 414 L 823 428 L 809 428 L 809 414 Z Z" stroke-miterlimit="10"></path></g><g transform="translate(-506,-50) scale(1,1)"><g><path fill="none" stroke="none"></path><text fill="#000000" stroke="none" font-family="Arial" font-size="13px" font-style="normal" font-weight="normal" text-decoration="none" x="775.5" y="412.5">Observer</text></g></g><g transform="translate(-506,-50) scale(1,1)"><path fill="none" stroke="#000000" d="M 809 419 L 636.5 419" stroke-miterlimit="10"></path></g></g></svg>