<svg version="1.1" xmlns="http://www.w3.org/2000/svg" xmlns:xlink="http://www.w3.org/1999/xlink" width="1165" height="676"><defs></defs><g><g transform="translate(-82,-54) scale(1,1)"><rect fill="#C0C0C0" stroke="none" x="365" y="315" width="326" height="144" opacity="0.2"></rect></g><g transform="translate(-82,-54) scale(1,1)"><rect fill="#ffffff" stroke="none" x="358" y="308" width="326" height="144"></rect></g><g transform="translate(-82,-54) scale(1,1)"><path fill="none" stroke="#000000" d="M 358 308 L 684 308 L 684 452 L 358 452 L 358 308 Z Z" stroke-miterlimit="10"></path></g><g transform="translate(-82,-54) scale(1,1)"><rect fill="#ffffff" stroke="none" x="348" y="315" width="20" height="10"></rect></g><g transform="translate(-82,-54) scale(1,1)"><path fill="none" stroke="#000000" d="M 348 315 L 368 315 L 368 325 L 348 325 L 348 315 Z Z" stroke-miterlimit="10"></path></g><g transform="translate(-82,-54) scale(1,1)"><rect fill="#ffffff" stroke="none" x="348" y="335" width="20" height="10"></rect></g><g transform="translate(-82,-54) scale(1,1)"><path fill="none" stroke="#000000" d="M 348 335 L 368 335 L 368 345 L 348 345 L 348 335 Z Z" stroke-miterlimit="10"></path></g><g transform="translate(-82,-54) scale(1,1)"><path fill="none" stroke="#000000" d="M 368 333 L 684 333" stroke-miterlimit="10"></path></g><g transform="translate(-82,-54) scale(1,1)"><g><path fill="none" stroke="none"></path><text fill="#000000" stroke="none" font-family="Arial" font-size="13px" font-style="normal" font-weight="bold" text-decoration="none" x="494" y="327.5">TouristMap</text></g></g><g transform="translate(-82,-54) scale(1,1)"><g><path fill="none" stroke="none"></path><text fill="#000000" stroke="none" font-family="Arial" font-size="13px" font-style="normal" font-weight="normal" text-decoration="none" x="373" y="350.5">-geodatabaseLocation: String</text></g></g><g transform="translate(-82,-54) scale(1,1)"><g><path fill="none" stroke="none"></path><text fill="#000000" stroke="none" font-family="Arial" font-size="13px" font-style="normal" font-weight="normal" text-decoration="none" x="373" y="365.5">-mapTilePackageLocation: String</text></g></g><g transform="translate(-82,-54) scale(1,1)"><g><path fill="none" stroke="none"></path><text fill="#000000" stroke="none" font-family="Arial" font-size="13px" font-style="normal" font-weight="normal" text-decoration="none" x="373" y="380.5">-Directions</text></g></g><g transform="translate(-82,-54) scale(1,1)"><g><path fill="none" stroke="none"></path><text fill="#000000" stroke="none" font-family="Arial" font-size="13px" font-style="normal" font-weight="normal" text-decoration="none" x="373" y="395.5">-Places</text></g></g><g transform="translate(-82,-54) scale(1,1)"><path fill="#C0C0C0" stroke="none" d="M 850 370.5 C 850 364.1487248 855.1487248 359 861.5 359 C 867.8512752 359 873 364.1487248 873 370.5 C 873 376.8512752 867.8512752 382 861.5 382 C 855.1487248 382 850 376.8512752 850 370.5 Z" opacity="0.2"></path></g><g transform="translate(-82,-54) scale(1,1)"><path fill="none" stroke="#000000" d="M 854 351.5 A 11.5 11.5 0 0 1 854 374.5" stroke-miterlimit="10"></path></g><g transform="translate(-82,-54) scale(1,1)"><path fill="#ffffff" stroke="none" d="M 846 363.5 C 846 358.8055792 849.8055792 355 854.5 355 C 859.1944208 355 863 358.8055792 863 363.5 C 863 368.1944208 859.1944208 372 854.5 372 C 849.8055792 372 846 368.1944208 846 363.5 Z"></path></g><g transform="translate(-82,-54) scale(1,1)"><path fill="none" stroke="#000000" d="M 846 363.5 C 846 358.8055792 849.8055792 355 854.5 355 C 859.1944208 355 863 358.8055792 863 363.5 C 863 368.1944208 859.1944208 372 854.5 372 C 849.8055792 372 846 368.1944208 846 363.5 Z" stroke-miterlimit="10"></path></g><g transform="translate(-82,-54) scale(1,1)"><path fill="none" stroke="#000000" d="M 760 400 L 949 400" stroke-miterlimit="10"></path></g><g transform="translate(-82,-54) scale(1,1)"><g><path fill="none" stroke="none"></path><text fill="#000000" stroke="none" font-family="Arial" font-size="13px" font-style="normal" font-weight="bold" text-decoration="none" x="842" y="394.5">Map</text></g></g><g transform="translate(-82,-54) scale(1,1)"><g><path fill="none" stroke="none"></path><text fill="#000000" stroke="none" font-family="Arial" font-size="13px" font-style="normal" font-weight="normal" text-decoration="none" x="765" y="417.5">+getMapGUI(): JComponent</text></g></g><g transform="translate(-82,-54) scale(1,1)"><g><path fill="none" stroke="none"></path><text fill="#000000" stroke="none" font-family="Arial" font-size="13px" font-style="normal" font-weight="normal" text-decoration="none" x="765" y="432.5">+getMapName(): String</text></g></g><g transform="translate(-82,-54) scale(1,1)"><path fill="none" stroke="#000000" d="M 684 363 L 843 363" stroke-miterlimit="10"></path></g><g transform="translate(-82,-54) scale(1,1)"><path fill="#C0C0C0" stroke="none" d="M 300 542.5 C 300 536.1487248 305.1487248 531 311.5 531 C 317.8512752 531 323 536.1487248 323 542.5 C 323 548.8512752 317.8512752 554 311.5 554 C 305.1487248 554 300 548.8512752 300 542.5 Z" opacity="0.2"></path></g><g transform="translate(-82,-54) scale(1,1)"><path fill="none" stroke="#000000" d="M 304 523.5 A 11.5 11.5 0 0 1 304 546.5" stroke-miterlimit="10"></path></g><g transform="translate(-82,-54) scale(1,1)"><path fill="#ffffff" stroke="none" d="M 296 535.5 C 296 530.8055792 299.8055792 527 304.5 527 C 309.1944208 527 313 530.8055792 313 535.5 C 313 540.1944208 309.1944208 544 304.5 544 C 299.8055792 544 296 540.1944208 296 535.5 Z"></path></g><g transform="translate(-82,-54) scale(1,1)"><path fill="none" stroke="#000000" d="M 296 535.5 C 296 530.8055792 299.8055792 527 304.5 527 C 309.1944208 527 313 530.8055792 313 535.5 C 313 540.1944208 309.1944208 544 304.5 544 C 299.8055792 544 296 540.1944208 296 535.5 Z" stroke-miterlimit="10"></path></g><g transform="translate(-82,-54) scale(1,1)"><path fill="none" stroke="#000000" d="M 92 572 L 517 572" stroke-miterlimit="10"></path></g><g transform="translate(-82,-54) scale(1,1)"><g><path fill="none" stroke="none"></path><text fill="#000000" stroke="none" font-family="Arial" font-size="13px" font-style="normal" font-weight="bold" text-decoration="none" x="253.5" y="566.5">RoutingCalculator</text></g></g><g transform="translate(-82,-54) scale(1,1)"><g><path fill="none" stroke="none"></path><text fill="#000000" stroke="none" font-family="Arial" font-size="13px" font-style="normal" font-weight="normal" text-decoration="none" x="97" y="589.5">+solve(stops: MapLocation[1..*], geodatabaseLocation: String, observer)</text></g></g><g transform="translate(-82,-54) scale(1,1)"><path fill="#C0C0C0" stroke="none" d="M 916 542.5 C 916 536.1487248 921.1487248 531 927.5 531 C 933.8512752 531 939 536.1487248 939 542.5 C 939 548.8512752 933.8512752 554 927.5 554 C 921.1487248 554 916 548.8512752 916 542.5 Z" opacity="0.2"></path></g><g transform="translate(-82,-54) scale(1,1)"><path fill="none" stroke="#000000" d="M 920 546.5 A 11.5 11.5 0 0 1 920 523.5" stroke-miterlimit="10"></path></g><g transform="translate(-82,-54) scale(1,1)"><path fill="#ffffff" stroke="none" d="M 912 535.5 C 912 530.8055792 915.8055792 527 920.5 527 C 925.1944208 527 929 530.8055792 929 535.5 C 929 540.1944208 925.1944208 544 920.5 544 C 915.8055792 544 912 540.1944208 912 535.5 Z"></path></g><g transform="translate(-82,-54) scale(1,1)"><path fill="none" stroke="#000000" d="M 912 535.5 C 912 530.8055792 915.8055792 527 920.5 527 C 925.1944208 527 929 530.8055792 929 535.5 C 929 540.1944208 925.1944208 544 920.5 544 C 915.8055792 544 912 540.1944208 912 535.5 Z" stroke-miterlimit="10"></path></g><g transform="translate(-82,-54) scale(1,1)"><path fill="none" stroke="#000000" d="M 604 572 L 1237 572" stroke-miterlimit="10"></path></g><g transform="translate(-82,-54) scale(1,1)"><g><path fill="none" stroke="none"></path><text fill="#000000" stroke="none" font-family="Arial" font-size="13px" font-style="normal" font-weight="bold" text-decoration="none" x="853" y="566.5">ClosestPlaceCalculator</text></g></g><g transform="translate(-82,-54) scale(1,1)"><g><path fill="none" stroke="none"></path><text fill="#000000" stroke="none" font-family="Arial" font-size="13px" font-style="normal" font-weight="normal" text-decoration="none" x="609" y="589.5">+solve(startLocation: MapLocation[1], availableFacilities: Place[0..*], geodatabaseLocation: String, observer)</text></g></g><g transform="translate(-82,-54) scale(1,1)"><path fill="#C0C0C0" stroke="none" d="M 421 170.5 C 421 164.1487248 426.1487248 159 432.5 159 C 438.8512752 159 444 164.1487248 444 170.5 C 444 176.8512752 438.8512752 182 432.5 182 C 426.1487248 182 421 176.8512752 421 170.5 Z" opacity="0.2"></path></g><g transform="translate(-82,-54) scale(1,1)"><path fill="none" stroke="#000000" d="M 436.5 163 A 11.5 11.5 0 0 1 413.5 163" stroke-miterlimit="10"></path></g><g transform="translate(-82,-54) scale(1,1)"><path fill="#ffffff" stroke="none" d="M 417 163.5 C 417 158.8055792 420.8055792 155 425.5 155 C 430.1944208 155 434 158.8055792 434 163.5 C 434 168.1944208 430.1944208 172 425.5 172 C 420.8055792 172 417 168.1944208 417 163.5 Z"></path></g><g transform="translate(-82,-54) scale(1,1)"><path fill="none" stroke="#000000" d="M 417 163.5 C 417 158.8055792 420.8055792 155 425.5 155 C 430.1944208 155 434 158.8055792 434 163.5 C 434 168.1944208 430.1944208 172 425.5 172 C 420.8055792 172 417 168.1944208 417 163.5 Z" stroke-miterlimit="10"></path></g><g transform="translate(-82,-54) scale(1,1)"><path fill="none" stroke="#000000" d="M 344 200 L 507 200" stroke-miterlimit="10"></path></g><g transform="translate(-82,-54) scale(1,1)"><g><path fill="none" stroke="none"></path><text fill="#000000" stroke="none" font-family="Arial" font-size="13px" font-style="normal" font-weight="bold" text-decoration="none" x="389.5" y="194.5">PlaceLoader</text></g></g><g transform="translate(-82,-54) scale(1,1)"><g><path fill="none" stroke="none"></path><text fill="#000000" stroke="none" font-family="Arial" font-size="13px" font-style="normal" font-weight="normal" text-decoration="none" x="349" y="217.5">+populateMap(map: JMap)</text></g></g><g transform="translate(-82,-54) scale(1,1)"><rect fill="#ffffff" stroke="none" x="524" y="445" width="14" height="14"></rect></g><g transform="translate(-82,-54) scale(1,1)"><path fill="none" stroke="#000000" d="M 524 445 L 538 445 L 538 459 L 524 459 L 524 445 Z Z" stroke-miterlimit="10"></path></g><g transform="translate(-82,-54) scale(1,1)"><g><path fill="none" stroke="none"></path><text fill="#000000" stroke="none" font-family="Arial" font-size="13px" font-style="normal" font-weight="normal" text-decoration="none" x="539" y="448.5">Directions</text></g></g><g transform="translate(-82,-54) scale(1,1)"><path fill="none" stroke="#000000" d="M 528 459 L 528 535 L 316 535" stroke-miterlimit="10"></path></g><g transform="translate(-82,-54) scale(1,1)"><path fill="none" stroke="#000000" d="M 528 459 L 528 535 L 909 535" stroke-miterlimit="10"></path></g><g transform="translate(-82,-54) scale(1,1)"><rect fill="#ffffff" stroke="none" x="540" y="301" width="14" height="14"></rect></g><g transform="translate(-82,-54) scale(1,1)"><path fill="none" stroke="#000000" d="M 540 301 L 554 301 L 554 315 L 540 315 L 540 301 Z Z" stroke-miterlimit="10"></path></g><g transform="translate(-82,-54) scale(1,1)"><g><path fill="none" stroke="none"></path><text fill="#000000" stroke="none" font-family="Arial" font-size="13px" font-style="normal" font-weight="normal" text-decoration="none" x="559" y="302.5">Places</text></g></g><g transform="translate(-82,-54) scale(1,1)"><path fill="none" stroke="#000000" d="M 544 301 L 544 268 L 425 268 L 425 175" stroke-miterlimit="10"></path></g><g transform="translate(-82,-54) scale(1,1)"><rect fill="#C0C0C0" stroke="none" x="1049" y="343" width="123" height="44" opacity="0.2"></rect></g><g transform="translate(-82,-54) scale(1,1)"><rect fill="#ffffff" stroke="none" x="1042" y="336" width="123" height="44"></rect></g><g transform="translate(-82,-54) scale(1,1)"><path fill="none" stroke="#000000" d="M 1042 336 L 1165 336 L 1165 380 L 1042 380 L 1042 336 Z Z" stroke-miterlimit="10"></path></g><g transform="translate(-82,-54) scale(1,1)"><rect fill="#ffffff" stroke="none" x="1032" y="343" width="20" height="10"></rect></g><g transform="translate(-82,-54) scale(1,1)"><path fill="none" stroke="#000000" d="M 1032 343 L 1052 343 L 1052 353 L 1032 353 L 1032 343 Z Z" stroke-miterlimit="10"></path></g><g transform="translate(-82,-54) scale(1,1)"><rect fill="#ffffff" stroke="none" x="1032" y="363" width="20" height="10"></rect></g><g transform="translate(-82,-54) scale(1,1)"><path fill="none" stroke="#000000" d="M 1032 363 L 1052 363 L 1052 373 L 1032 373 L 1032 363 Z Z" stroke-miterlimit="10"></path></g><g transform="translate(-82,-54) scale(1,1)"><g><path fill="none" stroke="none"></path><text fill="#000000" stroke="none" font-family="Arial" font-size="13px" font-style="normal" font-weight="bold" text-decoration="none" x="1062.5" y="355.5">ApplicationView</text></g></g><g transform="translate(-82,-54) scale(1,1)"><path fill="none" stroke="#000000" d="M 1032 363 L 866 363" stroke-miterlimit="10"></path></g><g transform="translate(-82,-54) scale(1,1)"><path fill="#C0C0C0" stroke="none" d="M 675 170.5 C 675 164.1487248 680.1487248 159 686.5 159 C 692.8512752 159 698 164.1487248 698 170.5 C 698 176.8512752 692.8512752 182 686.5 182 C 680.1487248 182 675 176.8512752 675 170.5 Z" opacity="0.2"></path></g><g transform="translate(-82,-54) scale(1,1)"><path fill="none" stroke="#000000" d="M 690.5 163 A 11.5 11.5 0 0 1 667.5 163" stroke-miterlimit="10"></path></g><g transform="translate(-82,-54) scale(1,1)"><path fill="#ffffff" stroke="none" d="M 671 163.5 C 671 158.8055792 674.8055792 155 679.5 155 C 684.1944208 155 688 158.8055792 688 163.5 C 688 168.1944208 684.1944208 172 679.5 172 C 674.8055792 172 671 168.1944208 671 163.5 Z"></path></g><g transform="translate(-82,-54) scale(1,1)"><path fill="none" stroke="#000000" d="M 671 163.5 C 671 158.8055792 674.8055792 155 679.5 155 C 684.1944208 155 688 158.8055792 688 163.5 C 688 168.1944208 684.1944208 172 679.5 172 C 674.8055792 172 671 168.1944208 671 163.5 Z" stroke-miterlimit="10"></path></g><g transform="translate(-82,-54) scale(1,1)"><path fill="none" stroke="#000000" d="M 524 200 L 835 200" stroke-miterlimit="10"></path></g><g transform="translate(-82,-54) scale(1,1)"><g><path fill="none" stroke="none"></path><text fill="#000000" stroke="none" font-family="Arial" font-size="13px" font-style="normal" font-weight="bold" text-decoration="none" x="632" y="194.5">PlaceRepository</text></g></g><g transform="translate(-82,-54) scale(1,1)"><g><path fill="none" stroke="none"></path><text fill="#000000" stroke="none" font-family="Arial" font-size="13px" font-style="normal" font-weight="normal" text-decoration="none" x="529" y="217.5">+getPlaces(criteria: Predicate&lt;Place&gt;): Place[0..*]</text></g></g><g transform="translate(-82,-54) scale(1,1)"><path fill="none" stroke="#000000" d="M 544 301 L 544 268 L 679 268 L 679 175" stroke-miterlimit="10"></path></g><g transform="translate(-82,-54) scale(1,1)"><rect fill="#C0C0C0" stroke="none" x="481" y="71" width="175" height="47" opacity="0.2"></rect></g><g transform="translate(-82,-54) scale(1,1)"><rect fill="#ffffff" stroke="none" x="474" y="64" width="175" height="47"></rect></g><g transform="translate(-82,-54) scale(1,1)"><path fill="none" stroke="#000000" d="M 474 64 L 649 64 L 649 111 L 474 111 L 474 64 Z Z" stroke-miterlimit="10"></path></g><g transform="translate(-82,-54) scale(1,1)"><rect fill="#ffffff" stroke="none" x="464" y="71" width="20" height="10"></rect></g><g transform="translate(-82,-54) scale(1,1)"><path fill="none" stroke="#000000" d="M 464 71 L 484 71 L 484 81 L 464 81 L 464 71 Z Z" stroke-miterlimit="10"></path></g><g transform="translate(-82,-54) scale(1,1)"><rect fill="#ffffff" stroke="none" x="464" y="91" width="20" height="10"></rect></g><g transform="translate(-82,-54) scale(1,1)"><path fill="none" stroke="#000000" d="M 464 91 L 484 91 L 484 101 L 464 101 L 464 91 Z Z" stroke-miterlimit="10"></path></g><g transform="translate(-82,-54) scale(1,1)"><path fill="none" stroke="#000000" d="M 484 89 L 649 89" stroke-miterlimit="10"></path></g><g transform="translate(-82,-54) scale(1,1)"><g><path fill="none" stroke="none"></path><text fill="#000000" stroke="none" font-family="Arial" font-size="13px" font-style="normal" font-weight="bold" text-decoration="none" x="525" y="83.5">PlaceManager</text></g></g><g transform="translate(-82,-54) scale(1,1)"><g><path fill="none" stroke="none"></path><text fill="#000000" stroke="none" font-family="Arial" font-size="13px" font-style="normal" font-weight="normal" text-decoration="none" x="489" y="106.5">-placesBinLocation: String</text></g></g><g transform="translate(-82,-54) scale(1,1)"><path fill="none" stroke="#000000" d="M 523 112 L 437 159.93617021276594" stroke-miterlimit="10"></path></g><g transform="translate(-82,-54) scale(1,1)"><path fill="none" stroke="#000000" d="M 587 112 L 668 160" stroke-miterlimit="10"></path></g><g transform="translate(-82,-54) scale(1,1)"><rect fill="#C0C0C0" stroke="none" x="533" y="683" width="147" height="44" opacity="0.2"></rect></g><g transform="translate(-82,-54) scale(1,1)"><rect fill="#ffffff" stroke="none" x="526" y="676" width="147" height="44"></rect></g><g transform="translate(-82,-54) scale(1,1)"><path fill="none" stroke="#000000" d="M 526 676 L 673 676 L 673 720 L 526 720 L 526 676 Z Z" stroke-miterlimit="10"></path></g><g transform="translate(-82,-54) scale(1,1)"><rect fill="#ffffff" stroke="none" x="516" y="683" width="20" height="10"></rect></g><g transform="translate(-82,-54) scale(1,1)"><path fill="none" stroke="#000000" d="M 516 683 L 536 683 L 536 693 L 516 693 L 516 683 Z Z" stroke-miterlimit="10"></path></g><g transform="translate(-82,-54) scale(1,1)"><rect fill="#ffffff" stroke="none" x="516" y="703" width="20" height="10"></rect></g><g transform="translate(-82,-54) scale(1,1)"><path fill="none" stroke="#000000" d="M 516 703 L 536 703 L 536 713 L 516 713 L 516 703 Z Z" stroke-miterlimit="10"></path></g><g transform="translate(-82,-54) scale(1,1)"><g><path fill="none" stroke="none"></path><text fill="#000000" stroke="none" font-family="Arial" font-size="13px" font-style="normal" font-weight="bold" text-decoration="none" x="546.5" y="695.5">DirectionsCalculator</text></g></g><g transform="translate(-82,-54) scale(1,1)"><path fill="none" stroke="#000000" d="M 516 698 L 304 698 L 304 547" stroke-miterlimit="10"></path></g><g transform="translate(-82,-54) scale(1,1)"><path fill="none" stroke="#000000" d="M 673 698 L 920 698 L 920 547" stroke-miterlimit="10"></path></g></g></svg>