<svg version="1.1" xmlns="http://www.w3.org/2000/svg" xmlns:xlink="http://www.w3.org/1999/xlink" width="1003" height="729"><defs></defs><g><g transform="translate(-282,-178) scale(1,1)"><path fill="#C0C0C0" stroke="none" d="M 338.9 427 L 366.34 427 L 378.09999999999997 438.76 L 378.09999999999997 476 L 338.9 476" opacity="0.2"></path></g><g transform="translate(-282,-178) scale(1,1)"><path fill="#ffffff" stroke="none" d="M 331.9 420 L 359.34000000000003 420 L 371.1 431.76 L 371.1 469 L 331.9 469"></path></g><g transform="translate(-282,-178) scale(1,1)"><path fill="none" stroke="#000000" d="M 331.9 420 L 359.34000000000003 420 L 371.1 431.76 L 371.1 469 L 331.9 469 L 331.9 420" stroke-miterlimit="10"></path></g><g transform="translate(-282,-178) scale(1,1)"><path fill="none" stroke="#000000" d="M 359.34000000000003 420 L 359.34000000000003 431.76 L 371.1 431.76 L 359.34000000000003 420" stroke-miterlimit="10"></path></g><g transform="translate(-282,-178) scale(1,1)"><g><path fill="none" stroke="none"></path><text fill="#000000" stroke="none" font-family="Arial" font-size="13px" font-style="normal" font-weight="bold" text-decoration="none" x="303.5" y="488.5">ConfigurationFile</text></g></g><g transform="translate(-282,-178) scale(1,1)"><path fill="#C0C0C0" stroke="none" d="M 511 205 L 1132 205 L 1132 334 L 511 334" opacity="0.2"></path></g><g transform="translate(-282,-178) scale(1,1)"><path fill="#C0C0C0" stroke="none" d="M 511 205 L 521 195 L 1142 195 L 1132 205" opacity="0.2"></path></g><g transform="translate(-282,-178) scale(1,1)"><path fill="#C0C0C0" stroke="none" d="M 1142 195 L 1132 205 L 1132 334 L 1142 324" opacity="0.2"></path></g><g transform="translate(-282,-178) scale(1,1)"><path fill="#ffffff" stroke="none" d="M 504 198 L 1125 198 L 1125 327 L 504 327"></path></g><g transform="translate(-282,-178) scale(1,1)"><path fill="#ffffff" stroke="none" d="M 504 198 L 514 188 L 1135 188 L 1125 198"></path></g><g transform="translate(-282,-178) scale(1,1)"><path fill="#ffffff" stroke="none" d="M 1135 188 L 1125 198 L 1125 327 L 1135 317"></path></g><g transform="translate(-282,-178) scale(1,1)"><path fill="none" stroke="#000000" d="M 504 198 L 1125 198 L 1125 327 L 504 327 L 504 198" stroke-miterlimit="10"></path></g><g transform="translate(-282,-178) scale(1,1)"><path fill="none" stroke="#000000" d="M 504 198 L 514 188 L 1135 188 L 1125 198 L 504 198" stroke-miterlimit="10"></path></g><g transform="translate(-282,-178) scale(1,1)"><path fill="none" stroke="#000000" d="M 1135 188 L 1125 198 L 1125 327 L 1135 317 L 1135 188" stroke-miterlimit="10"></path></g><g transform="translate(-282,-178) scale(1,1)"><g><path fill="none" stroke="none"></path><text fill="#000000" stroke="none" font-family="Arial" font-size="13px" font-style="normal" font-weight="bold" text-decoration="none" x="771" y="217.5">TouristTerminal</text></g></g><g transform="translate(-282,-178) scale(1,1)"><path fill="#C0C0C0" stroke="none" d="M 598.4 427 L 625.84 427 L 637.6 438.76 L 637.6 476 L 598.4 476" opacity="0.2"></path></g><g transform="translate(-282,-178) scale(1,1)"><path fill="#ffffff" stroke="none" d="M 591.4 420 L 618.84 420 L 630.6 431.76 L 630.6 469 L 591.4 469"></path></g><g transform="translate(-282,-178) scale(1,1)"><path fill="none" stroke="#000000" d="M 591.4 420 L 618.84 420 L 630.6 431.76 L 630.6 469 L 591.4 469 L 591.4 420" stroke-miterlimit="10"></path></g><g transform="translate(-282,-178) scale(1,1)"><path fill="none" stroke="#000000" d="M 618.84 420 L 618.84 431.76 L 630.6 431.76 L 618.84 420" stroke-miterlimit="10"></path></g><g transform="translate(-282,-178) scale(1,1)"><g><path fill="none" stroke="none"></path><text fill="#000000" stroke="none" font-family="Arial" font-size="13px" font-style="normal" font-weight="bold" text-decoration="none" x="531" y="488.5">MarkerIconConfigurationFile</text></g></g><g transform="translate(-282,-178) scale(1,1)"><path fill="none" stroke="#000000" d="M 515 457 L 412 457" stroke-miterlimit="10"></path></g><g transform="translate(-282,-178) scale(1,1)"><path fill="#FFFFFF" stroke="none" d="M 432.3253497152483 448.580964487968 L 412 457 L 432.3253497152483 465.419035512032"></path></g><g transform="translate(-282,-178) scale(1,1)"><path fill="none" stroke="#000000" d="M 432.3253497152483 448.580964487968 L 412 457 L 432.3253497152483 465.419035512032 L 432.3253497152483 448.580964487968" stroke-miterlimit="10"></path></g><g transform="translate(-282,-178) scale(1,1)"><path fill="none" stroke="#000000" d="M 610 420 L 610 328" stroke-miterlimit="10" stroke-dasharray="3"></path></g><g transform="translate(-282,-178) scale(1,1)"><path fill="none" stroke="#000000" d="M 614.209517756016 338.16267485762415 L 610 328 L 605.790482243984 338.16267485762415" stroke-miterlimit="10"></path></g><g transform="translate(-282,-178) scale(1,1)"><g><path fill="none" stroke="none"></path><text fill="#000000" stroke="none" font-family="Arial" font-size="13px" font-style="normal" font-weight="normal" text-decoration="none" x="554" y="380">«deploy»</text></g></g><g transform="translate(-282,-178) scale(1,1)"><path fill="#C0C0C0" stroke="none" d="M 1174.9 562 L 1202.3400000000001 562 L 1214.1000000000001 573.76 L 1214.1000000000001 611 L 1174.9 611" opacity="0.2"></path></g><g transform="translate(-282,-178) scale(1,1)"><path fill="#ffffff" stroke="none" d="M 1167.9 555 L 1195.34 555 L 1207.1 566.76 L 1207.1 604 L 1167.9 604"></path></g><g transform="translate(-282,-178) scale(1,1)"><path fill="none" stroke="#000000" d="M 1167.9 555 L 1195.34 555 L 1207.1 566.76 L 1207.1 604 L 1167.9 604 L 1167.9 555" stroke-miterlimit="10"></path></g><g transform="translate(-282,-178) scale(1,1)"><path fill="none" stroke="#000000" d="M 1195.34 555 L 1195.34 566.76 L 1207.1 566.76 L 1195.34 555" stroke-miterlimit="10"></path></g><g transform="translate(-282,-178) scale(1,1)"><g><path fill="none" stroke="none"></path><text fill="#000000" stroke="none" font-family="Arial" font-size="13px" font-style="normal" font-weight="bold" text-decoration="none" x="1149" y="623.5">Geodatabase</text></g></g><g transform="translate(-282,-178) scale(1,1)"><path fill="#C0C0C0" stroke="none" d="M 856.9 562 L 884.34 562 L 896.1 573.76 L 896.1 611 L 856.9 611" opacity="0.2"></path></g><g transform="translate(-282,-178) scale(1,1)"><path fill="#ffffff" stroke="none" d="M 849.9 555 L 877.34 555 L 889.1 566.76 L 889.1 604 L 849.9 604"></path></g><g transform="translate(-282,-178) scale(1,1)"><path fill="none" stroke="#000000" d="M 849.9 555 L 877.34 555 L 889.1 566.76 L 889.1 604 L 849.9 604 L 849.9 555" stroke-miterlimit="10"></path></g><g transform="translate(-282,-178) scale(1,1)"><path fill="none" stroke="#000000" d="M 877.34 555 L 877.34 566.76 L 889.1 566.76 L 877.34 555" stroke-miterlimit="10"></path></g><g transform="translate(-282,-178) scale(1,1)"><g><path fill="none" stroke="none"></path><text fill="#000000" stroke="none" font-family="Arial" font-size="13px" font-style="normal" font-weight="bold" text-decoration="none" x="821.5" y="623.5">MapTilePackage</text></g></g><g transform="translate(-282,-178) scale(1,1)"><path fill="#C0C0C0" stroke="none" d="M 1015.9 410 L 1043.34 410 L 1055.1 421.76 L 1055.1 459 L 1015.9 459" opacity="0.2"></path></g><g transform="translate(-282,-178) scale(1,1)"><path fill="#ffffff" stroke="none" d="M 1008.9000000000001 403 L 1036.34 403 L 1048.1 414.75999999999993 L 1048.1 452 L 1008.9000000000001 452"></path></g><g transform="translate(-282,-178) scale(1,1)"><path fill="none" stroke="#000000" d="M 1008.9000000000001 403 L 1036.34 403 L 1048.1 414.75999999999993 L 1048.1 452 L 1008.9000000000001 452 L 1008.9000000000001 403" stroke-miterlimit="10"></path></g><g transform="translate(-282,-178) scale(1,1)"><path fill="none" stroke="#000000" d="M 1036.34 403 L 1036.34 414.75999999999993 L 1048.1 414.75999999999993 L 1036.34 403" stroke-miterlimit="10"></path></g><g transform="translate(-282,-178) scale(1,1)"><g><path fill="none" stroke="none"></path><text fill="#000000" stroke="none" font-family="Arial" font-size="13px" font-style="normal" font-weight="bold" text-decoration="none" x="963.5" y="471.5">ArcGISMapInformation</text></g></g><g transform="translate(-282,-178) scale(1,1)"><path fill="none" stroke="#000000" d="M 988 478 L 909 554" stroke-miterlimit="10"></path></g><g transform="translate(-282,-178) scale(1,1)"><path fill="#FFFFFF" stroke="none" d="M 913.4053896149867 543.9206874073592 L 909 554 L 919.2422311544811 549.9879305865705 L 924.8544704737128 538.747598025289"></path></g><g transform="translate(-282,-178) scale(1,1)"><path fill="none" stroke="#000000" d="M 913.4053896149867 543.9206874073592 L 909 554 L 919.2422311544811 549.9879305865705 L 924.8544704737128 538.747598025289 L 913.4053896149867 543.9206874073592" stroke-miterlimit="10"></path></g><g transform="translate(-282,-178) scale(1,1)"><g><path fill="none" stroke="none"></path><text fill="#000000" stroke="none" font-family="Arial" font-size="13px" font-style="normal" font-weight="normal" text-decoration="none" x="912" y="536">1</text></g></g><g transform="translate(-282,-178) scale(1,1)"><path fill="none" stroke="#000000" d="M 1068 478 L 1147 554" stroke-miterlimit="10"></path></g><g transform="translate(-282,-178) scale(1,1)"><path fill="#FFFFFF" stroke="none" d="M 1136.757768845519 549.9879305865705 L 1147 554 L 1142.5946103850133 543.9206874073592 L 1131.1455295262872 538.747598025289"></path></g><g transform="translate(-282,-178) scale(1,1)"><path fill="none" stroke="#000000" d="M 1136.757768845519 549.9879305865705 L 1147 554 L 1142.5946103850133 543.9206874073592 L 1131.1455295262872 538.747598025289 L 1136.757768845519 549.9879305865705" stroke-miterlimit="10"></path></g><g transform="translate(-282,-178) scale(1,1)"><g><path fill="none" stroke="none"></path><text fill="#000000" stroke="none" font-family="Arial" font-size="13px" font-style="normal" font-weight="normal" text-decoration="none" x="1111" y="554">0..1</text></g></g><g transform="translate(-282,-178) scale(1,1)"><path fill="#C0C0C0" stroke="none" d="M 1174.9 690 L 1202.3400000000001 690 L 1214.1000000000001 701.76 L 1214.1000000000001 739 L 1174.9 739" opacity="0.2"></path></g><g transform="translate(-282,-178) scale(1,1)"><path fill="#ffffff" stroke="none" d="M 1167.9 683 L 1195.34 683 L 1207.1 694.76 L 1207.1 732 L 1167.9 732"></path></g><g transform="translate(-282,-178) scale(1,1)"><path fill="none" stroke="#000000" d="M 1167.9 683 L 1195.34 683 L 1207.1 694.76 L 1207.1 732 L 1167.9 732 L 1167.9 683" stroke-miterlimit="10"></path></g><g transform="translate(-282,-178) scale(1,1)"><path fill="none" stroke="#000000" d="M 1195.34 683 L 1195.34 694.76 L 1207.1 694.76 L 1195.34 683" stroke-miterlimit="10"></path></g><g transform="translate(-282,-178) scale(1,1)"><g><path fill="none" stroke="none"></path><text fill="#000000" stroke="none" font-family="Arial" font-size="13px" font-style="normal" font-weight="bold" text-decoration="none" x="1113" y="751.5">GeodatabaseRequiredFile</text></g></g><g transform="translate(-282,-178) scale(1,1)"><path fill="#C0C0C0" stroke="none" d="M 1014.4 554 L 1041.84 554 L 1053.6 565.76 L 1053.6 603 L 1014.4 603" opacity="0.2"></path></g><g transform="translate(-282,-178) scale(1,1)"><path fill="#ffffff" stroke="none" d="M 1007.4000000000001 547 L 1034.84 547 L 1046.6 558.76 L 1046.6 596 L 1007.4000000000001 596"></path></g><g transform="translate(-282,-178) scale(1,1)"><path fill="none" stroke="#000000" d="M 1007.4000000000001 547 L 1034.84 547 L 1046.6 558.76 L 1046.6 596 L 1007.4000000000001 596 L 1007.4000000000001 547" stroke-miterlimit="10"></path></g><g transform="translate(-282,-178) scale(1,1)"><path fill="none" stroke="#000000" d="M 1034.84 547 L 1034.84 558.76 L 1046.6 558.76 L 1034.84 547" stroke-miterlimit="10"></path></g><g transform="translate(-282,-178) scale(1,1)"><g><path fill="none" stroke="none"></path><text fill="#000000" stroke="none" font-family="Arial" font-size="13px" font-style="normal" font-weight="bold" text-decoration="none" x="994.5" y="615.5">MapPlaces</text></g></g><g transform="translate(-282,-178) scale(1,1)"><path fill="none" stroke="#000000" d="M 1028 478 L 1027 546" stroke-miterlimit="10"></path></g><g transform="translate(-282,-178) scale(1,1)"><path fill="#000000" stroke="none" d="M 1022.9403722946846 535.7765258891982 L 1027 546 L 1031.3584975915119 535.9003218494456 L 1027.3234944337212 524.0023785069533"></path></g><g transform="translate(-282,-178) scale(1,1)"><path fill="none" stroke="#000000" d="M 1022.9403722946846 535.7765258891982 L 1027 546 L 1031.3584975915119 535.9003218494456 L 1027.3234944337212 524.0023785069533 L 1022.9403722946846 535.7765258891982" stroke-miterlimit="10"></path></g><g transform="translate(-282,-178) scale(1,1)"><g><path fill="none" stroke="none"></path><text fill="#000000" stroke="none" font-family="Arial" font-size="13px" font-style="normal" font-weight="normal" text-decoration="none" x="1011" y="531">1</text></g></g><g transform="translate(-282,-178) scale(1,1)"><path fill="none" stroke="#000000" d="M 1187 630 L 1187 682" stroke-miterlimit="10"></path></g><g transform="translate(-282,-178) scale(1,1)"><g><path fill="none" stroke="none"></path><text fill="#000000" stroke="none" font-family="Arial" font-size="13px" font-style="normal" font-weight="normal" text-decoration="none" x="1164" y="667">0..*</text></g></g><g transform="translate(-282,-178) scale(1,1)"><path fill="#C0C0C0" stroke="none" d="M 1174.9 830 L 1202.3400000000001 830 L 1214.1000000000001 841.76 L 1214.1000000000001 879 L 1174.9 879" opacity="0.2"></path></g><g transform="translate(-282,-178) scale(1,1)"><path fill="#ffffff" stroke="none" d="M 1167.9 823 L 1195.34 823 L 1207.1 834.76 L 1207.1 872 L 1167.9 872"></path></g><g transform="translate(-282,-178) scale(1,1)"><path fill="none" stroke="#000000" d="M 1167.9 823 L 1195.34 823 L 1207.1 834.76 L 1207.1 872 L 1167.9 872 L 1167.9 823" stroke-miterlimit="10"></path></g><g transform="translate(-282,-178) scale(1,1)"><path fill="none" stroke="#000000" d="M 1195.34 823 L 1195.34 834.76 L 1207.1 834.76 L 1195.34 823" stroke-miterlimit="10"></path></g><g transform="translate(-282,-178) scale(1,1)"><g><path fill="none" stroke="none"></path><text fill="#000000" stroke="none" font-family="Arial" font-size="13px" font-style="normal" font-weight="bold" text-decoration="none" x="1123" y="891.5">TransportationNetwork</text></g></g><g transform="translate(-282,-178) scale(1,1)"><path fill="none" stroke="#000000" d="M 1184 823 L 1184 757" stroke-miterlimit="10"></path></g><g transform="translate(-282,-178) scale(1,1)"><path fill="#FFFFFF" stroke="none" d="M 1192.419035512032 777.3253497152483 L 1184 757 L 1175.580964487968 777.3253497152483"></path></g><g transform="translate(-282,-178) scale(1,1)"><path fill="none" stroke="#000000" d="M 1192.419035512032 777.3253497152483 L 1184 757 L 1175.580964487968 777.3253497152483 L 1192.419035512032 777.3253497152483" stroke-miterlimit="10"></path></g><g transform="translate(-282,-178) scale(1,1)"><path fill="none" stroke="#000000" d="M 1024 403 L 1024 328" stroke-miterlimit="10" stroke-dasharray="3"></path></g><g transform="translate(-282,-178) scale(1,1)"><path fill="none" stroke="#000000" d="M 1028.2095177560159 338.16267485762415 L 1024 328 L 1019.790482243984 338.16267485762415" stroke-miterlimit="10"></path></g><g transform="translate(-282,-178) scale(1,1)"><g><path fill="none" stroke="none"></path><text fill="#000000" stroke="none" font-family="Arial" font-size="13px" font-style="normal" font-weight="normal" text-decoration="none" x="967" y="385">«deploy»</text></g></g></g></svg>