<svg version="1.1" xmlns="http://www.w3.org/2000/svg" xmlns:xlink="http://www.w3.org/1999/xlink" width="742" height="234"><defs></defs><g><g transform="translate(-113,-127) scale(1,1)"><rect fill="#C0C0C0" stroke="none" x="418" y="144" width="147" height="44" opacity="0.2"></rect></g><g transform="translate(-113,-127) scale(1,1)"><rect fill="#ffffff" stroke="none" x="411" y="137" width="147" height="44"></rect></g><g transform="translate(-113,-127) scale(1,1)"><path fill="none" stroke="#000000" d="M 411 137 L 558 137 L 558 181 L 411 181 L 411 137 Z Z" stroke-miterlimit="10"></path></g><g transform="translate(-113,-127) scale(1,1)"><rect fill="#ffffff" stroke="none" x="401" y="144" width="20" height="10"></rect></g><g transform="translate(-113,-127) scale(1,1)"><path fill="none" stroke="#000000" d="M 401 144 L 421 144 L 421 154 L 401 154 L 401 144 Z Z" stroke-miterlimit="10"></path></g><g transform="translate(-113,-127) scale(1,1)"><rect fill="#ffffff" stroke="none" x="401" y="164" width="20" height="10"></rect></g><g transform="translate(-113,-127) scale(1,1)"><path fill="none" stroke="#000000" d="M 401 164 L 421 164 L 421 174 L 401 174 L 401 164 Z Z" stroke-miterlimit="10"></path></g><g transform="translate(-113,-127) scale(1,1)"><g><path fill="none" stroke="none"></path><text fill="#000000" stroke="none" font-family="Arial" font-size="13px" font-style="normal" font-weight="bold" text-decoration="none" x="431.5" y="156.5">DirectionsCalculator</text></g></g><g transform="translate(-113,-127) scale(1,1)"><g><path fill="none" stroke="none"></path><text fill="#000000" stroke="none" font-family="Arial" font-size="13px" font-style="normal" font-weight="normal" text-decoration="none" x="455" y="171.5">(from maps)</text></g></g><g transform="translate(-113,-127) scale(1,1)"><path fill="#C0C0C0" stroke="none" d="M 180 216.5 C 180 210.1487248 185.1487248 205 191.5 205 C 197.8512752 205 203 210.1487248 203 216.5 C 203 222.8512752 197.8512752 228 191.5 228 C 185.1487248 228 180 222.8512752 180 216.5 Z" opacity="0.2"></path></g><g transform="translate(-113,-127) scale(1,1)"><path fill="#ffffff" stroke="none" d="M 173 209.5 C 173 203.1487248 178.1487248 198 184.5 198 C 190.8512752 198 196 203.1487248 196 209.5 C 196 215.8512752 190.8512752 221 184.5 221 C 178.1487248 221 173 215.8512752 173 209.5 Z"></path></g><g transform="translate(-113,-127) scale(1,1)"><path fill="none" stroke="#000000" d="M 173 209.5 C 173 203.1487248 178.1487248 198 184.5 198 C 190.8512752 198 196 203.1487248 196 209.5 C 196 215.8512752 190.8512752 221 184.5 221 C 178.1487248 221 173 215.8512752 173 209.5 Z" stroke-miterlimit="10"></path></g><g transform="translate(-113,-127) scale(1,1)"><g><path fill="none" stroke="none"></path><text fill="#000000" stroke="none" font-family="Arial" font-size="13px" font-style="normal" font-weight="bold" text-decoration="none" x="133.5" y="240.5">RoutingCalculator</text></g></g><g transform="translate(-113,-127) scale(1,1)"><g><path fill="none" stroke="none"></path><text fill="#000000" stroke="none" font-family="Arial" font-size="13px" font-style="normal" font-weight="normal" text-decoration="none" x="150" y="255.5">(from maps)</text></g></g><g transform="translate(-113,-127) scale(1,1)"><path fill="none" stroke="#000000" d="M 400 178 L 196 209.95238095238096" stroke-miterlimit="10"></path></g><g transform="translate(-113,-127) scale(1,1)"><path fill="#C0C0C0" stroke="none" d="M 763 247.5 C 763 241.1487248 768.1487248 236 774.5 236 C 780.8512752 236 786 241.1487248 786 247.5 C 786 253.8512752 780.8512752 259 774.5 259 C 768.1487248 259 763 253.8512752 763 247.5 Z" opacity="0.2"></path></g><g transform="translate(-113,-127) scale(1,1)"><path fill="#ffffff" stroke="none" d="M 756 240.5 C 756 234.1487248 761.1487248 229 767.5 229 C 773.8512752 229 779 234.1487248 779 240.5 C 779 246.8512752 773.8512752 252 767.5 252 C 761.1487248 252 756 246.8512752 756 240.5 Z"></path></g><g transform="translate(-113,-127) scale(1,1)"><path fill="none" stroke="#000000" d="M 756 240.5 C 756 234.1487248 761.1487248 229 767.5 229 C 773.8512752 229 779 234.1487248 779 240.5 C 779 246.8512752 773.8512752 252 767.5 252 C 761.1487248 252 756 246.8512752 756 240.5 Z" stroke-miterlimit="10"></path></g><g transform="translate(-113,-127) scale(1,1)"><g><path fill="none" stroke="none"></path><text fill="#000000" stroke="none" font-family="Arial" font-size="13px" font-style="normal" font-weight="bold" text-decoration="none" x="700" y="271.5">ClosestPlaceCalculator</text></g></g><g transform="translate(-113,-127) scale(1,1)"><g><path fill="none" stroke="none"></path><text fill="#000000" stroke="none" font-family="Arial" font-size="13px" font-style="normal" font-weight="normal" text-decoration="none" x="733" y="286.5">(from maps)</text></g></g><g transform="translate(-113,-127) scale(1,1)"><path fill="none" stroke="#000000" d="M 545 182 L 756 239.01282051282053" stroke-miterlimit="10"></path></g><g transform="translate(-113,-127) scale(1,1)"><rect fill="#C0C0C0" stroke="none" x="419" y="299" width="137" height="59" opacity="0.2"></rect></g><g transform="translate(-113,-127) scale(1,1)"><rect fill="#ffffff" stroke="none" x="412" y="292" width="137" height="59"></rect></g><g transform="translate(-113,-127) scale(1,1)"><path fill="none" stroke="#000000" d="M 412 292 L 549 292 L 549 351 L 412 351 L 412 292 Z Z" stroke-miterlimit="10"></path></g><g transform="translate(-113,-127) scale(1,1)"><path fill="none" stroke="#000000" d="M 412 332 L 549 332" stroke-miterlimit="10"></path></g><g transform="translate(-113,-127) scale(1,1)"><path fill="none" stroke="#000000" d="M 412 342 L 549 342" stroke-miterlimit="10"></path></g><g transform="translate(-113,-127) scale(1,1)"><g><path fill="none" stroke="none"></path><text fill="#000000" stroke="none" font-family="Arial" font-size="13px" font-style="normal" font-weight="bold" text-decoration="none" x="422.5" y="311.5">DirectionsCalculator</text></g></g><g transform="translate(-113,-127) scale(1,1)"><g><path fill="none" stroke="none"></path><text fill="#000000" stroke="none" font-family="Arial" font-size="13px" font-style="normal" font-weight="normal" text-decoration="none" x="446" y="326.5">(from maps)</text></g></g><g transform="translate(-113,-127) scale(1,1)"><path fill="none" stroke="#000000" d="M 411 300 L 196 216.61904761904762" stroke-miterlimit="10"></path></g><g transform="translate(-113,-127) scale(1,1)"><path fill="none" stroke="#000000" d="M 550 306 L 756 245.21794871794873" stroke-miterlimit="10"></path></g><g transform="translate(-113,-127) scale(1,1)"><path fill="none" stroke="#000000" d="M 480 291 L 479 182" stroke-miterlimit="10" stroke-dasharray="3"></path></g><g transform="translate(-113,-127) scale(1,1)"><path fill="#FFFFFF" stroke="none" d="M 487.60514447905945 202.2472587896365 L 479 182 L 470.76778202364204 202.40173000482383"></path></g><g transform="translate(-113,-127) scale(1,1)"><path fill="none" stroke="#000000" d="M 487.60514447905945 202.2472587896365 L 479 182 L 470.76778202364204 202.40173000482383 L 487.60514447905945 202.2472587896365" stroke-miterlimit="10"></path></g></g></svg>