<svg version="1.1" xmlns="http://www.w3.org/2000/svg" xmlns:xlink="http://www.w3.org/1999/xlink" width="1020" height="514"><defs></defs><g><g transform="translate(-46,-234) scale(1,1)"><path fill="#C0C0C0" stroke="none" d="M 686.9 403 L 714.34 403 L 726.1 414.76 L 726.1 452 L 686.9 452" opacity="0.2"></path></g><g transform="translate(-46,-234) scale(1,1)"><path fill="#ffffff" stroke="none" d="M 679.9 396 L 707.34 396 L 719.1 407.76 L 719.1 445 L 679.9 445"></path></g><g transform="translate(-46,-234) scale(1,1)"><path fill="none" stroke="#000000" d="M 679.9 396 L 707.34 396 L 719.1 407.76 L 719.1 445 L 679.9 445 L 679.9 396" stroke-miterlimit="10"></path></g><g transform="translate(-46,-234) scale(1,1)"><path fill="none" stroke="#000000" d="M 707.34 396 L 707.34 407.76 L 719.1 407.76 L 707.34 396" stroke-miterlimit="10"></path></g><g transform="translate(-46,-234) scale(1,1)"><g><path fill="none" stroke="none"></path><text fill="#000000" stroke="none" font-family="Arial" font-size="13px" font-style="normal" font-weight="bold" text-decoration="none" x="661" y="464.5">Geodatabase</text></g></g><g transform="translate(-46,-234) scale(1,1)"><path fill="#C0C0C0" stroke="none" d="M 368.9 403 L 396.34 403 L 408.09999999999997 414.76 L 408.09999999999997 452 L 368.9 452" opacity="0.2"></path></g><g transform="translate(-46,-234) scale(1,1)"><path fill="#ffffff" stroke="none" d="M 361.9 396 L 389.34000000000003 396 L 401.1 407.76 L 401.1 445 L 361.9 445"></path></g><g transform="translate(-46,-234) scale(1,1)"><path fill="none" stroke="#000000" d="M 361.9 396 L 389.34000000000003 396 L 401.1 407.76 L 401.1 445 L 361.9 445 L 361.9 396" stroke-miterlimit="10"></path></g><g transform="translate(-46,-234) scale(1,1)"><path fill="none" stroke="#000000" d="M 389.34000000000003 396 L 389.34000000000003 407.76 L 401.1 407.76 L 389.34000000000003 396" stroke-miterlimit="10"></path></g><g transform="translate(-46,-234) scale(1,1)"><g><path fill="none" stroke="none"></path><text fill="#000000" stroke="none" font-family="Arial" font-size="13px" font-style="normal" font-weight="bold" text-decoration="none" x="333.5" y="464.5">MapTilePackage</text></g></g><g transform="translate(-46,-234) scale(1,1)"><path fill="#C0C0C0" stroke="none" d="M 527.9 251 L 555.34 251 L 567.1 262.76 L 567.1 300 L 527.9 300" opacity="0.2"></path></g><g transform="translate(-46,-234) scale(1,1)"><path fill="#ffffff" stroke="none" d="M 520.9 244 L 548.34 244 L 560.1 255.76000000000002 L 560.1 293 L 520.9 293"></path></g><g transform="translate(-46,-234) scale(1,1)"><path fill="none" stroke="#000000" d="M 520.9 244 L 548.34 244 L 560.1 255.76000000000002 L 560.1 293 L 520.9 293 L 520.9 244" stroke-miterlimit="10"></path></g><g transform="translate(-46,-234) scale(1,1)"><path fill="none" stroke="#000000" d="M 548.34 244 L 548.34 255.76000000000002 L 560.1 255.76000000000002 L 548.34 244" stroke-miterlimit="10"></path></g><g transform="translate(-46,-234) scale(1,1)"><g><path fill="none" stroke="none"></path><text fill="#000000" stroke="none" font-family="Arial" font-size="13px" font-style="normal" font-weight="bold" text-decoration="none" x="475.5" y="312.5">ArcGISMapInformation</text></g></g><g transform="translate(-46,-234) scale(1,1)"><path fill="#C0C0C0" stroke="none" d="M 138.4 459 L 165.84000000000003 459 L 177.60000000000002 470.76 L 177.60000000000002 508 L 138.4 508" opacity="0.2"></path></g><g transform="translate(-46,-234) scale(1,1)"><path fill="#ffffff" stroke="none" d="M 131.39999999999998 452 L 158.84 452 L 170.60000000000002 463.76 L 170.60000000000002 501 L 131.39999999999998 501"></path></g><g transform="translate(-46,-234) scale(1,1)"><path fill="none" stroke="#000000" d="M 131.39999999999998 452 L 158.84 452 L 170.60000000000002 463.76 L 170.60000000000002 501 L 131.39999999999998 501 L 131.39999999999998 452" stroke-miterlimit="10"></path></g><g transform="translate(-46,-234) scale(1,1)"><path fill="none" stroke="#000000" d="M 158.84 452 L 158.84 463.76 L 170.60000000000002 463.76 L 158.84 452" stroke-miterlimit="10"></path></g><g transform="translate(-46,-234) scale(1,1)"><g><path fill="none" stroke="none"></path><text fill="#000000" stroke="none" font-family="Arial" font-size="13px" font-style="normal" font-weight="bold" text-decoration="none" x="71" y="520.5">MarkerIconConfigurationFile</text></g></g><g transform="translate(-46,-234) scale(1,1)"><path fill="#C0C0C0" stroke="none" d="M 134.9 251 L 162.34000000000003 251 L 174.10000000000002 262.76 L 174.10000000000002 300 L 134.9 300" opacity="0.2"></path></g><g transform="translate(-46,-234) scale(1,1)"><path fill="#ffffff" stroke="none" d="M 127.89999999999999 244 L 155.34 244 L 167.10000000000002 255.76000000000002 L 167.10000000000002 293 L 127.89999999999999 293"></path></g><g transform="translate(-46,-234) scale(1,1)"><path fill="none" stroke="#000000" d="M 127.89999999999999 244 L 155.34 244 L 167.10000000000002 255.76000000000002 L 167.10000000000002 293 L 127.89999999999999 293 L 127.89999999999999 244" stroke-miterlimit="10"></path></g><g transform="translate(-46,-234) scale(1,1)"><path fill="none" stroke="#000000" d="M 155.34 244 L 155.34 255.76000000000002 L 167.10000000000002 255.76000000000002 L 155.34 244" stroke-miterlimit="10"></path></g><g transform="translate(-46,-234) scale(1,1)"><g><path fill="none" stroke="none"></path><text fill="#000000" stroke="none" font-family="Arial" font-size="13px" font-style="normal" font-weight="bold" text-decoration="none" x="99.5" y="312.5">ConfigurationFile</text></g></g><g transform="translate(-46,-234) scale(1,1)"><path fill="none" stroke="#000000" d="M 149 452 L 149 318" stroke-miterlimit="10"></path></g><g transform="translate(-46,-234) scale(1,1)"><path fill="#FFFFFF" stroke="none" d="M 157.41903551203197 338.3253497152483 L 149 318 L 140.58096448796803 338.3253497152483"></path></g><g transform="translate(-46,-234) scale(1,1)"><path fill="none" stroke="#000000" d="M 157.41903551203197 338.3253497152483 L 149 318 L 140.58096448796803 338.3253497152483 L 157.41903551203197 338.3253497152483" stroke-miterlimit="10"></path></g><g transform="translate(-46,-234) scale(1,1)"><path fill="none" stroke="#000000" d="M 500 319 L 421 395" stroke-miterlimit="10"></path></g><g transform="translate(-46,-234) scale(1,1)"><path fill="#FFFFFF" stroke="none" d="M 425.40538961498663 384.9206874073592 L 421 395 L 431.24223115448115 390.98793058657054 L 436.8544704737128 379.74759802528894"></path></g><g transform="translate(-46,-234) scale(1,1)"><path fill="none" stroke="#000000" d="M 425.40538961498663 384.9206874073592 L 421 395 L 431.24223115448115 390.98793058657054 L 436.8544704737128 379.74759802528894 L 425.40538961498663 384.9206874073592" stroke-miterlimit="10"></path></g><g transform="translate(-46,-234) scale(1,1)"><g><path fill="none" stroke="none"></path><text fill="#000000" stroke="none" font-family="Arial" font-size="13px" font-style="normal" font-weight="normal" text-decoration="none" x="424" y="377">1</text></g></g><g transform="translate(-46,-234) scale(1,1)"><path fill="none" stroke="#000000" d="M 580 319 L 659 395" stroke-miterlimit="10"></path></g><g transform="translate(-46,-234) scale(1,1)"><path fill="#FFFFFF" stroke="none" d="M 648.7577688455189 390.98793058657054 L 659 395 L 654.5946103850133 384.9206874073592 L 643.1455295262872 379.74759802528894"></path></g><g transform="translate(-46,-234) scale(1,1)"><path fill="none" stroke="#000000" d="M 648.7577688455189 390.98793058657054 L 659 395 L 654.5946103850133 384.9206874073592 L 643.1455295262872 379.74759802528894 L 648.7577688455189 390.98793058657054" stroke-miterlimit="10"></path></g><g transform="translate(-46,-234) scale(1,1)"><g><path fill="none" stroke="none"></path><text fill="#000000" stroke="none" font-family="Arial" font-size="13px" font-style="normal" font-weight="normal" text-decoration="none" x="623" y="395">0..1</text></g></g><g transform="translate(-46,-234) scale(1,1)"><path fill="#C0C0C0" stroke="none" d="M 686.9 531 L 714.34 531 L 726.1 542.76 L 726.1 580 L 686.9 580" opacity="0.2"></path></g><g transform="translate(-46,-234) scale(1,1)"><path fill="#ffffff" stroke="none" d="M 679.9 524 L 707.34 524 L 719.1 535.76 L 719.1 573 L 679.9 573"></path></g><g transform="translate(-46,-234) scale(1,1)"><path fill="none" stroke="#000000" d="M 679.9 524 L 707.34 524 L 719.1 535.76 L 719.1 573 L 679.9 573 L 679.9 524" stroke-miterlimit="10"></path></g><g transform="translate(-46,-234) scale(1,1)"><path fill="none" stroke="#000000" d="M 707.34 524 L 707.34 535.76 L 719.1 535.76 L 707.34 524" stroke-miterlimit="10"></path></g><g transform="translate(-46,-234) scale(1,1)"><g><path fill="none" stroke="none"></path><text fill="#000000" stroke="none" font-family="Arial" font-size="13px" font-style="normal" font-weight="bold" text-decoration="none" x="625" y="592.5">GeodatabaseRequiredFile</text></g></g><g transform="translate(-46,-234) scale(1,1)"><path fill="#C0C0C0" stroke="none" d="M 526.4 395 L 553.84 395 L 565.6 406.76 L 565.6 444 L 526.4 444" opacity="0.2"></path></g><g transform="translate(-46,-234) scale(1,1)"><path fill="#ffffff" stroke="none" d="M 519.4 388 L 546.84 388 L 558.6 399.76 L 558.6 437 L 519.4 437"></path></g><g transform="translate(-46,-234) scale(1,1)"><path fill="none" stroke="#000000" d="M 519.4 388 L 546.84 388 L 558.6 399.76 L 558.6 437 L 519.4 437 L 519.4 388" stroke-miterlimit="10"></path></g><g transform="translate(-46,-234) scale(1,1)"><path fill="none" stroke="#000000" d="M 546.84 388 L 546.84 399.76 L 558.6 399.76 L 546.84 388" stroke-miterlimit="10"></path></g><g transform="translate(-46,-234) scale(1,1)"><g><path fill="none" stroke="none"></path><text fill="#000000" stroke="none" font-family="Arial" font-size="13px" font-style="normal" font-weight="bold" text-decoration="none" x="506.5" y="456.5">MapPlaces</text></g></g><g transform="translate(-46,-234) scale(1,1)"><path fill="none" stroke="#000000" d="M 540 319 L 539 387" stroke-miterlimit="10"></path></g><g transform="translate(-46,-234) scale(1,1)"><path fill="#000000" stroke="none" d="M 534.9403722946846 376.7765258891981 L 539 387 L 543.3584975915118 376.9003218494456 L 539.3234944337213 365.0023785069533"></path></g><g transform="translate(-46,-234) scale(1,1)"><path fill="none" stroke="#000000" d="M 534.9403722946846 376.7765258891981 L 539 387 L 543.3584975915118 376.9003218494456 L 539.3234944337213 365.0023785069533 L 534.9403722946846 376.7765258891981" stroke-miterlimit="10"></path></g><g transform="translate(-46,-234) scale(1,1)"><g><path fill="none" stroke="none"></path><text fill="#000000" stroke="none" font-family="Arial" font-size="13px" font-style="normal" font-weight="normal" text-decoration="none" x="523" y="372">1</text></g></g><g transform="translate(-46,-234) scale(1,1)"><path fill="none" stroke="#000000" d="M 699 471 L 699 523" stroke-miterlimit="10"></path></g><g transform="translate(-46,-234) scale(1,1)"><g><path fill="none" stroke="none"></path><text fill="#000000" stroke="none" font-family="Arial" font-size="13px" font-style="normal" font-weight="normal" text-decoration="none" x="676" y="508">0..*</text></g></g><g transform="translate(-46,-234) scale(1,1)"><path fill="#C0C0C0" stroke="none" d="M 686.9 671 L 714.34 671 L 726.1 682.76 L 726.1 720 L 686.9 720" opacity="0.2"></path></g><g transform="translate(-46,-234) scale(1,1)"><path fill="#ffffff" stroke="none" d="M 679.9 664 L 707.34 664 L 719.1 675.76 L 719.1 713 L 679.9 713"></path></g><g transform="translate(-46,-234) scale(1,1)"><path fill="none" stroke="#000000" d="M 679.9 664 L 707.34 664 L 719.1 675.76 L 719.1 713 L 679.9 713 L 679.9 664" stroke-miterlimit="10"></path></g><g transform="translate(-46,-234) scale(1,1)"><path fill="none" stroke="#000000" d="M 707.34 664 L 707.34 675.76 L 719.1 675.76 L 707.34 664" stroke-miterlimit="10"></path></g><g transform="translate(-46,-234) scale(1,1)"><g><path fill="none" stroke="none"></path><text fill="#000000" stroke="none" font-family="Arial" font-size="13px" font-style="normal" font-weight="bold" text-decoration="none" x="635" y="732.5">TransportationNetwork</text></g></g><g transform="translate(-46,-234) scale(1,1)"><path fill="none" stroke="#000000" d="M 696 664 L 696 598" stroke-miterlimit="10"></path></g><g transform="translate(-46,-234) scale(1,1)"><path fill="#FFFFFF" stroke="none" d="M 704.419035512032 618.3253497152483 L 696 598 L 687.580964487968 618.3253497152483"></path></g><g transform="translate(-46,-234) scale(1,1)"><path fill="none" stroke="#000000" d="M 704.419035512032 618.3253497152483 L 696 598 L 687.580964487968 618.3253497152483 L 704.419035512032 618.3253497152483" stroke-miterlimit="10"></path></g><g transform="translate(-46,-234) scale(1,1)"><path fill="none" stroke="#000000" d="M 746 420 L 836 420 L 836 696 L 776 696" stroke-miterlimit="10"></path></g><g transform="translate(-46,-234) scale(1,1)"><path fill="none" stroke="#000000" d="M 786.1626748576241 691.790482243984 L 776 696 L 786.1626748576241 700.209517756016" stroke-miterlimit="10"></path></g><g transform="translate(-46,-234) scale(1,1)"><g><path fill="none" stroke="none"></path><text fill="#000000" stroke="none" font-family="Arial" font-size="13px" font-style="normal" font-weight="normal" text-decoration="none" x="794" y="690">1</text></g></g><g transform="translate(-46,-234) scale(1,1)"><path fill="#ffffff" stroke="none" d="M 892 496 L 1045 496 L 1055 506 L 1055 611 L 892 611 L 892 496"></path></g><g transform="translate(-46,-234) scale(1,1)"><path fill="none" stroke="#000000" d="M 892 496 L 1045 496 L 1055 506 L 1055 611 L 892 611 L 892 496 L 892 496" stroke-miterlimit="10"></path></g><g transform="translate(-46,-234) scale(1,1)"><path fill="none" stroke="#000000" d="M 1045 496 L 1045 506 L 1055 506 L 1045 496" stroke-miterlimit="10"></path></g><g transform="translate(-46,-234) scale(1,1)"><g><path fill="none" stroke="none"></path><text fill="#000000" stroke="none" font-family="Arial" font-size="13px" font-style="normal" font-weight="normal" text-decoration="none" x="897" y="514">Required for computing</text><text fill="#000000" stroke="none" font-family="Arial" font-size="13px" font-style="normal" font-weight="normal" text-decoration="none" x="897" y="527">routes. For the current</text><text fill="#000000" stroke="none" font-family="Arial" font-size="13px" font-style="normal" font-weight="normal" text-decoration="none" x="897" y="540">requirements, it would</text><text fill="#000000" stroke="none" font-family="Arial" font-size="13px" font-style="normal" font-weight="normal" text-decoration="none" x="897" y="553">make no sense to have a</text><text fill="#000000" stroke="none" font-family="Arial" font-size="13px" font-style="normal" font-weight="normal" text-decoration="none" x="897" y="566">map with a geodatabase</text><text fill="#000000" stroke="none" font-family="Arial" font-size="13px" font-style="normal" font-weight="normal" text-decoration="none" x="897" y="579">that doesn't use a</text><text fill="#000000" stroke="none" font-family="Arial" font-size="13px" font-style="normal" font-weight="normal" text-decoration="none" x="897" y="592">transportation network.</text></g></g><g transform="translate(-46,-234) scale(1,1)"><path fill="none" stroke="#000000" d="M 891 556 L 836 558" stroke-miterlimit="10" stroke-dasharray="3"></path></g></g></svg>