<svg version="1.1" xmlns="http://www.w3.org/2000/svg" xmlns:xlink="http://www.w3.org/1999/xlink" width="1076" height="618"><defs></defs><g><g transform="translate(-314,-74) scale(1,1)"><rect fill="#C0C0C0" stroke="none" x="431" y="315" width="548" height="220" opacity="0.2"></rect></g><g transform="translate(-314,-74) scale(1,1)"><rect fill="#ffffff" stroke="none" x="424" y="308" width="548" height="220"></rect></g><g transform="translate(-314,-74) scale(1,1)"><path fill="none" stroke="#000000" d="M 424 308 L 972 308 L 972 528 L 424 528 L 424 308 Z Z" stroke-miterlimit="10"></path></g><g transform="translate(-314,-74) scale(1,1)"><path fill="none" stroke="#000000" d="M 424 333 L 972 333" stroke-miterlimit="10"></path></g><g transform="translate(-314,-74) scale(1,1)"><path fill="none" stroke="#000000" d="M 424 416 L 972 416" stroke-miterlimit="10"></path></g><g transform="translate(-314,-74) scale(1,1)"><g><path fill="none" stroke="none"></path><text fill="#000000" stroke="none" font-family="Arial" font-size="13px" font-style="italic" font-weight="bold" text-decoration="none" x="681.5" y="327.5">Place</text></g></g><g transform="translate(-314,-74) scale(1,1)"><g><path fill="none" stroke="none"></path><text fill="#000000" stroke="none" font-family="Arial" font-size="13px" font-style="normal" font-weight="normal" text-decoration="none" x="429" y="350.5">#placeType: String[1]</text></g></g><g transform="translate(-314,-74) scale(1,1)"><g><path fill="none" stroke="none"></path><text fill="#000000" stroke="none" font-family="Arial" font-size="13px" font-style="normal" font-weight="normal" text-decoration="none" x="429" y="365.5">-placeImageLocation: String</text></g></g><g transform="translate(-314,-74) scale(1,1)"><g><path fill="none" stroke="none"></path><text fill="#000000" stroke="none" font-family="Arial" font-size="13px" font-style="normal" font-weight="normal" text-decoration="none" x="429" y="380.5">-name: String[1]</text></g></g><g transform="translate(-314,-74) scale(1,1)"><g><path fill="none" stroke="none"></path><text fill="#000000" stroke="none" font-family="Arial" font-size="13px" font-style="normal" font-weight="normal" text-decoration="none" x="429" y="395.5">-iconImageDictionary: Dictionary&lt;String,String&gt;</text><path fill="none" stroke="#000000" d="M 429 395.5 L 704 395.5" stroke-miterlimit="10"></path></g></g><g transform="translate(-314,-74) scale(1,1)"><g><path fill="none" stroke="none"></path><text fill="#000000" stroke="none" font-family="Arial" font-size="13px" font-style="normal" font-weight="normal" text-decoration="none" x="429" y="410.5">-markerConfigurationPath: String = "markerconfig.xml"</text><path fill="none" stroke="#000000" d="M 429 410.5 L 742 410.5" stroke-miterlimit="10"></path></g></g><g transform="translate(-314,-74) scale(1,1)"><g><path fill="none" stroke="none"></path><text fill="#000000" stroke="none" font-family="Arial" font-size="13px" font-style="normal" font-weight="normal" text-decoration="none" x="429" y="433.5">-initializeMarkerImageDictionary()</text><path fill="none" stroke="#000000" d="M 429 433.5 L 621 433.5" stroke-miterlimit="10"></path></g></g><g transform="translate(-314,-74) scale(1,1)"><g><path fill="none" stroke="none"></path><text fill="#000000" stroke="none" font-family="Arial" font-size="13px" font-style="normal" font-weight="normal" text-decoration="none" x="429" y="448.5">«Create»+Place(name: String, iconImageLocation: String, latitude: Double, longitude: Double)</text></g></g><g transform="translate(-314,-74) scale(1,1)"><g><path fill="none" stroke="none"></path><text fill="#000000" stroke="none" font-family="Arial" font-size="13px" font-style="normal" font-weight="normal" text-decoration="none" x="429" y="463.5">#getIconImageLocation(): String</text></g></g><g transform="translate(-314,-74) scale(1,1)"><g><path fill="none" stroke="none"></path><text fill="#000000" stroke="none" font-family="Arial" font-size="13px" font-style="normal" font-weight="normal" text-decoration="none" x="429" y="478.5">#getPlaceImageLocation(): String[0..*]</text></g></g><g transform="translate(-314,-74) scale(1,1)"><g><path fill="none" stroke="none"></path><text fill="#000000" stroke="none" font-family="Arial" font-size="13px" font-style="normal" font-weight="normal" text-decoration="none" x="429" y="493.5">+getName(): String</text></g></g><g transform="translate(-314,-74) scale(1,1)"><g><path fill="none" stroke="none"></path><text fill="#000000" stroke="none" font-family="Arial" font-size="13px" font-style="italic" font-weight="normal" text-decoration="none" x="429" y="508.5">#getDescription(): String</text></g></g><g transform="translate(-314,-74) scale(1,1)"><g><path fill="none" stroke="none"></path><text fill="#000000" stroke="none" font-family="Arial" font-size="13px" font-style="normal" font-weight="normal" text-decoration="none" x="429" y="523.5">+addOnMap(map: JMap)</text></g></g><g transform="translate(-314,-74) scale(1,1)"><path fill="#C0C0C0" stroke="none" d="M 362.5 334.5 C 362.5 328.1487248 367.6487248 323 374 323 C 380.3512752 323 385.5 328.1487248 385.5 334.5 C 385.5 340.8512752 380.3512752 346 374 346 C 367.6487248 346 362.5 340.8512752 362.5 334.5 Z" opacity="0.2"></path></g><g transform="translate(-314,-74) scale(1,1)"><path fill="#ffffff" stroke="none" d="M 355.5 327.5 C 355.5 321.1487248 360.6487248 316 367 316 C 373.3512752 316 378.5 321.1487248 378.5 327.5 C 378.5 333.8512752 373.3512752 339 367 339 C 360.6487248 339 355.5 333.8512752 355.5 327.5 Z"></path></g><g transform="translate(-314,-74) scale(1,1)"><path fill="none" stroke="#000000" d="M 355.5 327.5 C 355.5 321.1487248 360.6487248 316 367 316 C 373.3512752 316 378.5 321.1487248 378.5 327.5 C 378.5 333.8512752 373.3512752 339 367 339 C 360.6487248 339 355.5 333.8512752 355.5 327.5 Z" stroke-miterlimit="10"></path></g><g transform="translate(-314,-74) scale(1,1)"><g><path fill="none" stroke="none"></path><text fill="#000000" stroke="none" font-family="Arial" font-size="13px" font-style="normal" font-weight="bold" text-decoration="none" x="333.5" y="358.5">Serializable</text></g></g><g transform="translate(-314,-74) scale(1,1)"><g><path fill="none" stroke="none"></path><text fill="#000000" stroke="none" font-family="Arial" font-size="13px" font-style="normal" font-weight="normal" text-decoration="none" x="343.5" y="373.5">(from io)</text></g></g><g transform="translate(-314,-74) scale(1,1)"><path fill="none" stroke="#000000" d="M 424 327 L 378.5 327" stroke-miterlimit="10"></path></g><g transform="translate(-314,-74) scale(1,1)"><rect fill="#C0C0C0" stroke="none" x="555" y="91" width="570" height="130" opacity="0.2"></rect></g><g transform="translate(-314,-74) scale(1,1)"><rect fill="#ffffff" stroke="none" x="548" y="84" width="570" height="130"></rect></g><g transform="translate(-314,-74) scale(1,1)"><path fill="none" stroke="#000000" d="M 548 84 L 1118 84 L 1118 214 L 548 214 L 548 84 Z Z" stroke-miterlimit="10"></path></g><g transform="translate(-314,-74) scale(1,1)"><path fill="none" stroke="#000000" d="M 548 109 L 1118 109" stroke-miterlimit="10"></path></g><g transform="translate(-314,-74) scale(1,1)"><path fill="none" stroke="#000000" d="M 548 147 L 1118 147" stroke-miterlimit="10"></path></g><g transform="translate(-314,-74) scale(1,1)"><g><path fill="none" stroke="none"></path><text fill="#000000" stroke="none" font-family="Arial" font-size="13px" font-style="italic" font-weight="bold" text-decoration="none" x="806" y="103.5">MapPoint</text></g></g><g transform="translate(-314,-74) scale(1,1)"><g><path fill="none" stroke="none"></path><text fill="#000000" stroke="none" font-family="Arial" font-size="13px" font-style="normal" font-weight="normal" text-decoration="none" x="553" y="126.5">-latitude: Double[1]</text></g></g><g transform="translate(-314,-74) scale(1,1)"><g><path fill="none" stroke="none"></path><text fill="#000000" stroke="none" font-family="Arial" font-size="13px" font-style="normal" font-weight="normal" text-decoration="none" x="553" y="141.5">-longitude: Double[1]</text></g></g><g transform="translate(-314,-74) scale(1,1)"><g><path fill="none" stroke="none"></path><text fill="#000000" stroke="none" font-family="Arial" font-size="13px" font-style="normal" font-weight="normal" text-decoration="none" x="553" y="164.5">«Create»+MapPoint(name: String, iconImageLocation: String, latitude: Double, longitude: Double)</text></g></g><g transform="translate(-314,-74) scale(1,1)"><g><path fill="none" stroke="none"></path><text fill="#000000" stroke="none" font-family="Arial" font-size="13px" font-style="normal" font-weight="normal" text-decoration="none" x="553" y="179.5">+getLatitude(): Double</text></g></g><g transform="translate(-314,-74) scale(1,1)"><g><path fill="none" stroke="none"></path><text fill="#000000" stroke="none" font-family="Arial" font-size="13px" font-style="normal" font-weight="normal" text-decoration="none" x="553" y="194.5">+getLongitude(): Double</text></g></g><g transform="translate(-314,-74) scale(1,1)"><g><path fill="none" stroke="none"></path><text fill="#000000" stroke="none" font-family="Arial" font-size="13px" font-style="normal" font-weight="normal" text-decoration="none" x="553" y="209.5">+addOnMap(map: JMap)</text></g></g><g transform="translate(-314,-74) scale(1,1)"><rect fill="#C0C0C0" stroke="none" x="1235" y="311" width="152" height="47" opacity="0.2"></rect></g><g transform="translate(-314,-74) scale(1,1)"><rect fill="#ffffff" stroke="none" x="1228" y="304" width="152" height="47"></rect></g><g transform="translate(-314,-74) scale(1,1)"><path fill="none" stroke="#000000" d="M 1228 304 L 1380 304 L 1380 351 L 1228 351 L 1228 304 Z Z" stroke-miterlimit="10"></path></g><g transform="translate(-314,-74) scale(1,1)"><path fill="none" stroke="#000000" d="M 1228 329 L 1380 329" stroke-miterlimit="10"></path></g><g transform="translate(-314,-74) scale(1,1)"><g><path fill="none" stroke="none"></path><text fill="#000000" stroke="none" font-family="Arial" font-size="13px" font-style="normal" font-weight="bold" text-decoration="none" x="1266" y="323.5">UserLocation</text></g></g><g transform="translate(-314,-74) scale(1,1)"><g><path fill="none" stroke="none"></path><text fill="#000000" stroke="none" font-family="Arial" font-size="13px" font-style="normal" font-weight="normal" text-decoration="none" x="1233" y="346.5">+addOnMap(map: JMap)</text></g></g><g transform="translate(-314,-74) scale(1,1)"><path fill="none" stroke="#000000" d="M 798 308 L 798 214" stroke-miterlimit="10"></path></g><g transform="translate(-314,-74) scale(1,1)"><path fill="#FFFFFF" stroke="none" d="M 806.419035512032 234.3253497152483 L 798 214 L 789.580964487968 234.3253497152483"></path></g><g transform="translate(-314,-74) scale(1,1)"><path fill="none" stroke="#000000" d="M 806.419035512032 234.3253497152483 L 798 214 L 789.580964487968 234.3253497152483 L 806.419035512032 234.3253497152483" stroke-miterlimit="10"></path></g><g transform="translate(-314,-74) scale(1,1)"><path fill="none" stroke="#000000" d="M 1280 304 L 1280 124 L 1118 124" stroke-miterlimit="10"></path></g><g transform="translate(-314,-74) scale(1,1)"><path fill="#FFFFFF" stroke="none" d="M 1138.3253497152482 115.58096448796803 L 1118 124 L 1138.3253497152482 132.41903551203197"></path></g><g transform="translate(-314,-74) scale(1,1)"><path fill="none" stroke="#000000" d="M 1138.3253497152482 115.58096448796803 L 1118 124 L 1138.3253497152482 132.41903551203197 L 1138.3253497152482 115.58096448796803" stroke-miterlimit="10"></path></g><g transform="translate(-314,-74) scale(1,1)"><path fill="#C0C0C0" stroke="none" d="M 674.4 615 L 701.84 615 L 713.6 626.76 L 713.6 664 L 674.4 664" opacity="0.2"></path></g><g transform="translate(-314,-74) scale(1,1)"><path fill="#ffffff" stroke="none" d="M 667.4 608 L 694.84 608 L 706.6 619.76 L 706.6 657 L 667.4 657"></path></g><g transform="translate(-314,-74) scale(1,1)"><path fill="none" stroke="#000000" d="M 667.4 608 L 694.84 608 L 706.6 619.76 L 706.6 657 L 667.4 657 L 667.4 608" stroke-miterlimit="10"></path></g><g transform="translate(-314,-74) scale(1,1)"><path fill="none" stroke="#000000" d="M 694.84 608 L 694.84 619.76 L 706.6 619.76 L 694.84 608" stroke-miterlimit="10"></path></g><g transform="translate(-314,-74) scale(1,1)"><g><path fill="none" stroke="none"></path><text fill="#000000" stroke="none" font-family="Arial" font-size="13px" font-style="normal" font-weight="bold" text-decoration="none" x="553.5" y="676.5">markerconfig.xml: MarkerIconConfigurationFile</text><path fill="none" stroke="#000000" d="M 837.5 676.5 L 536.5 676.5" stroke-miterlimit="10"></path></g></g><g transform="translate(-314,-74) scale(1,1)"><path fill="none" stroke="#000000" d="M 687 528 L 687 608" stroke-miterlimit="10" stroke-dasharray="3"></path></g><g transform="translate(-314,-74) scale(1,1)"><path fill="none" stroke="#000000" d="M 682.790482243984 597.8373251423759 L 687 608 L 691.209517756016 597.8373251423759" stroke-miterlimit="10"></path></g><g transform="translate(-314,-74) scale(1,1)"><g><path fill="none" stroke="none"></path><text fill="#000000" stroke="none" font-family="Arial" font-size="13px" font-style="normal" font-weight="normal" text-decoration="none" x="600" y="574">+use for configuring marker images</text></g></g></g></svg>