<svg version="1.1" xmlns="http://www.w3.org/2000/svg" xmlns:xlink="http://www.w3.org/1999/xlink" width="548" height="474"><defs></defs><g><g transform="translate(-118,-82) scale(1,1)"><rect fill="#C0C0C0" stroke="none" x="259" y="99" width="123.19999999999999" height="15" opacity="0.2"></rect></g><g transform="translate(-118,-82) scale(1,1)"><rect fill="#C0C0C0" stroke="none" x="259" y="113" width="308" height="86" opacity="0.2"></rect></g><g transform="translate(-118,-82) scale(1,1)"><rect fill="#ffffff" stroke="none" x="252" y="107" width="308" height="85"></rect></g><g transform="translate(-118,-82) scale(1,1)"><path fill="none" stroke="#000000" d="M 252 107 L 560 107 L 560 192 L 252 192 L 252 107 Z Z" stroke-miterlimit="10"></path></g><g transform="translate(-118,-82) scale(1,1)"><rect fill="#ffffff" stroke="none" x="252" y="92" width="123.19999999999999" height="15"></rect></g><g transform="translate(-118,-82) scale(1,1)"><path fill="none" stroke="#000000" d="M 252 92 L 375.2 92 L 375.2 107 L 252 107 L 252 92 Z Z" stroke-miterlimit="10"></path></g><g transform="translate(-118,-82) scale(1,1)"><rect fill="#ffffff" stroke="none" x="252" y="106" width="308" height="86"></rect></g><g transform="translate(-118,-82) scale(1,1)"><path fill="none" stroke="#000000" d="M 252 106 L 560 106 L 560 192 L 252 192 L 252 106 Z Z" stroke-miterlimit="10"></path></g><g transform="translate(-118,-82) scale(1,1)"><g><path fill="none" stroke="none"></path><text fill="#000000" stroke="none" font-family="Arial" font-size="13px" font-style="normal" font-weight="bold" text-decoration="none" x="379.5" y="126.5">touristgis</text></g></g><g transform="translate(-118,-82) scale(1,1)"><rect fill="#C0C0C0" stroke="none" x="135" y="499" width="30.400000000000006" height="15" opacity="0.2"></rect></g><g transform="translate(-118,-82) scale(1,1)"><rect fill="#C0C0C0" stroke="none" x="135" y="513" width="76" height="40" opacity="0.2"></rect></g><g transform="translate(-118,-82) scale(1,1)"><rect fill="#ffffff" stroke="none" x="128" y="507" width="76" height="39"></rect></g><g transform="translate(-118,-82) scale(1,1)"><path fill="none" stroke="#000000" d="M 128 507 L 204 507 L 204 546 L 128 546 L 128 507 Z Z" stroke-miterlimit="10"></path></g><g transform="translate(-118,-82) scale(1,1)"><rect fill="#ffffff" stroke="none" x="128" y="492" width="30.400000000000006" height="15"></rect></g><g transform="translate(-118,-82) scale(1,1)"><path fill="none" stroke="#000000" d="M 128 492 L 158.4 492 L 158.4 507 L 128 507 L 128 492 Z Z" stroke-miterlimit="10"></path></g><g transform="translate(-118,-82) scale(1,1)"><rect fill="#ffffff" stroke="none" x="128" y="506" width="76" height="40"></rect></g><g transform="translate(-118,-82) scale(1,1)"><path fill="none" stroke="#000000" d="M 128 506 L 204 506 L 204 546 L 128 546 L 128 506 Z Z" stroke-miterlimit="10"></path></g><g transform="translate(-118,-82) scale(1,1)"><g><path fill="none" stroke="none"></path><text fill="#000000" stroke="none" font-family="Arial" font-size="13px" font-style="normal" font-weight="bold" text-decoration="none" x="155.5" y="526.5">esri</text></g></g><g transform="translate(-118,-82) scale(1,1)"><g><path fill="none" stroke="none"></path><text fill="#000000" stroke="none" font-family="Arial" font-size="13px" font-style="normal" font-weight="normal" text-decoration="none" x="132.5" y="541.5">(from ESRI)</text></g></g><g transform="translate(-118,-82) scale(1,1)"><rect fill="#C0C0C0" stroke="none" x="423" y="399" width="35.60000000000002" height="15" opacity="0.2"></rect></g><g transform="translate(-118,-82) scale(1,1)"><rect fill="#C0C0C0" stroke="none" x="423" y="413" width="89" height="40" opacity="0.2"></rect></g><g transform="translate(-118,-82) scale(1,1)"><rect fill="#ffffff" stroke="none" x="416" y="407" width="89" height="39"></rect></g><g transform="translate(-118,-82) scale(1,1)"><path fill="none" stroke="#000000" d="M 416 407 L 505 407 L 505 446 L 416 446 L 416 407 Z Z" stroke-miterlimit="10"></path></g><g transform="translate(-118,-82) scale(1,1)"><rect fill="#ffffff" stroke="none" x="416" y="392" width="35.60000000000002" height="15"></rect></g><g transform="translate(-118,-82) scale(1,1)"><path fill="none" stroke="#000000" d="M 416 392 L 451.6 392 L 451.6 407 L 416 407 L 416 392 Z Z" stroke-miterlimit="10"></path></g><g transform="translate(-118,-82) scale(1,1)"><rect fill="#ffffff" stroke="none" x="416" y="406" width="89" height="40"></rect></g><g transform="translate(-118,-82) scale(1,1)"><path fill="none" stroke="#000000" d="M 416 406 L 505 406 L 505 446 L 416 446 L 416 406 Z Z" stroke-miterlimit="10"></path></g><g transform="translate(-118,-82) scale(1,1)"><g><path fill="none" stroke="none"></path><text fill="#000000" stroke="none" font-family="Arial" font-size="13px" font-style="normal" font-weight="bold" text-decoration="none" x="423.5" y="426.5">touristplaces</text></g></g><g transform="translate(-118,-82) scale(1,1)"><rect fill="#C0C0C0" stroke="none" x="451" y="283" width="62.39999999999998" height="15" opacity="0.2"></rect></g><g transform="translate(-118,-82) scale(1,1)"><rect fill="#C0C0C0" stroke="none" x="451" y="297" width="156" height="42" opacity="0.2"></rect></g><g transform="translate(-118,-82) scale(1,1)"><rect fill="#ffffff" stroke="none" x="444" y="291" width="156" height="41"></rect></g><g transform="translate(-118,-82) scale(1,1)"><path fill="none" stroke="#000000" d="M 444 291 L 600 291 L 600 332 L 444 332 L 444 291 Z Z" stroke-miterlimit="10"></path></g><g transform="translate(-118,-82) scale(1,1)"><rect fill="#ffffff" stroke="none" x="444" y="276" width="62.39999999999998" height="15"></rect></g><g transform="translate(-118,-82) scale(1,1)"><path fill="none" stroke="#000000" d="M 444 276 L 506.4 276 L 506.4 291 L 444 291 L 444 276 Z Z" stroke-miterlimit="10"></path></g><g transform="translate(-118,-82) scale(1,1)"><rect fill="#ffffff" stroke="none" x="444" y="290" width="156" height="42"></rect></g><g transform="translate(-118,-82) scale(1,1)"><path fill="none" stroke="#000000" d="M 444 290 L 600 290 L 600 332 L 444 332 L 444 290 Z Z" stroke-miterlimit="10"></path></g><g transform="translate(-118,-82) scale(1,1)"><g><path fill="none" stroke="none"></path><text fill="#000000" stroke="none" font-family="Arial" font-size="13px" font-style="normal" font-weight="bold" text-decoration="none" x="503" y="310.5">places</text></g></g><g transform="translate(-118,-82) scale(1,1)"><rect fill="#C0C0C0" stroke="none" x="271" y="279" width="39.60000000000002" height="15" opacity="0.2"></rect></g><g transform="translate(-118,-82) scale(1,1)"><rect fill="#C0C0C0" stroke="none" x="271" y="293" width="99" height="40" opacity="0.2"></rect></g><g transform="translate(-118,-82) scale(1,1)"><rect fill="#ffffff" stroke="none" x="264" y="287" width="99" height="39"></rect></g><g transform="translate(-118,-82) scale(1,1)"><path fill="none" stroke="#000000" d="M 264 287 L 363 287 L 363 326 L 264 326 L 264 287 Z Z" stroke-miterlimit="10"></path></g><g transform="translate(-118,-82) scale(1,1)"><rect fill="#ffffff" stroke="none" x="264" y="272" width="39.60000000000002" height="15"></rect></g><g transform="translate(-118,-82) scale(1,1)"><path fill="none" stroke="#000000" d="M 264 272 L 303.6 272 L 303.6 287 L 264 287 L 264 272 Z Z" stroke-miterlimit="10"></path></g><g transform="translate(-118,-82) scale(1,1)"><rect fill="#ffffff" stroke="none" x="264" y="286" width="99" height="40"></rect></g><g transform="translate(-118,-82) scale(1,1)"><path fill="none" stroke="#000000" d="M 264 286 L 363 286 L 363 326 L 264 326 L 264 286 Z Z" stroke-miterlimit="10"></path></g><g transform="translate(-118,-82) scale(1,1)"><g><path fill="none" stroke="none"></path><text fill="#000000" stroke="none" font-family="Arial" font-size="13px" font-style="normal" font-weight="bold" text-decoration="none" x="297.5" y="306.5">maps</text></g></g><g transform="translate(-118,-82) scale(1,1)"><path fill="none" stroke="#000000" d="M 363 300 L 400 300 L 400 192" stroke-miterlimit="10"></path></g><g transform="translate(-118,-82) scale(1,1)"><path fill="#FFFFFF" stroke="none" d="M 393 199 C 393 195.1340064 396.1340064 192 400 192 C 403.8659936 192 407 195.1340064 407 199 C 407 202.8659936 403.8659936 206 400 206 C 396.1340064 206 393 202.8659936 393 199 Z"></path></g><g transform="translate(-118,-82) scale(1,1)"><path fill="none" stroke="#000000" d="M 393 199 C 393 195.1340064 396.1340064 192 400 192 C 403.8659936 192 407 195.1340064 407 199 C 407 202.8659936 403.8659936 206 400 206 C 396.1340064 206 393 202.8659936 393 199 Z" stroke-miterlimit="10"></path></g><g transform="translate(-118,-82) scale(1,1)"><path fill="none" stroke="#000000" d="M 400 206 L 400 192" stroke-miterlimit="10"></path></g><g transform="translate(-118,-82) scale(1,1)"><path fill="none" stroke="#000000" d="M 407 199 L 393 199" stroke-miterlimit="10"></path></g><g transform="translate(-118,-82) scale(1,1)"><path fill="none" stroke="#000000" d="M 444 300 L 400 300 L 400 192" stroke-miterlimit="10"></path></g><g transform="translate(-118,-82) scale(1,1)"><path fill="#FFFFFF" stroke="none" d="M 393 199 C 393 195.1340064 396.1340064 192 400 192 C 403.8659936 192 407 195.1340064 407 199 C 407 202.8659936 403.8659936 206 400 206 C 396.1340064 206 393 202.8659936 393 199 Z"></path></g><g transform="translate(-118,-82) scale(1,1)"><path fill="none" stroke="#000000" d="M 393 199 C 393 195.1340064 396.1340064 192 400 192 C 403.8659936 192 407 195.1340064 407 199 C 407 202.8659936 403.8659936 206 400 206 C 396.1340064 206 393 202.8659936 393 199 Z" stroke-miterlimit="10"></path></g><g transform="translate(-118,-82) scale(1,1)"><path fill="none" stroke="#000000" d="M 400 206 L 400 192" stroke-miterlimit="10"></path></g><g transform="translate(-118,-82) scale(1,1)"><path fill="none" stroke="#000000" d="M 407 199 L 393 199" stroke-miterlimit="10"></path></g><g transform="translate(-118,-82) scale(1,1)"><path fill="none" stroke="#000000" d="M 505 419 L 536 419 L 536 332" stroke-miterlimit="10"></path></g><g transform="translate(-118,-82) scale(1,1)"><path fill="#FFFFFF" stroke="none" d="M 529 339 C 529 335.1340064 532.1340064 332 536 332 C 539.8659936 332 543 335.1340064 543 339 C 543 342.8659936 539.8659936 346 536 346 C 532.1340064 346 529 342.8659936 529 339 Z"></path></g><g transform="translate(-118,-82) scale(1,1)"><path fill="none" stroke="#000000" d="M 529 339 C 529 335.1340064 532.1340064 332 536 332 C 539.8659936 332 543 335.1340064 543 339 C 543 342.8659936 539.8659936 346 536 346 C 532.1340064 346 529 342.8659936 529 339 Z" stroke-miterlimit="10"></path></g><g transform="translate(-118,-82) scale(1,1)"><path fill="none" stroke="#000000" d="M 536 346 L 536 332" stroke-miterlimit="10"></path></g><g transform="translate(-118,-82) scale(1,1)"><path fill="none" stroke="#000000" d="M 543 339 L 529 339" stroke-miterlimit="10"></path></g><g transform="translate(-118,-82) scale(1,1)"><path fill="none" stroke="#000000" d="M 294 327 L 185 491" stroke-miterlimit="10" stroke-dasharray="3"></path></g><g transform="translate(-118,-82) scale(1,1)"><path fill="none" stroke="#000000" d="M 187.1195067293029 480.20612714432673 L 185 491 L 194.13113827257257 484.86629688954866" stroke-miterlimit="10"></path></g><g transform="translate(-118,-82) scale(1,1)"><path fill="none" stroke="#000000" d="M 474 333 L 205 495" stroke-miterlimit="10" stroke-dasharray="3"></path></g><g transform="translate(-118,-82) scale(1,1)"><path fill="none" stroke="#000000" d="M 211.53415293007677 486.15099748636214 L 205 495 L 215.87753353029737 493.36315416203706" stroke-miterlimit="10"></path></g><g transform="translate(-118,-82) scale(1,1)"><rect fill="#C0C0C0" stroke="none" x="579" y="399" width="33.60000000000002" height="15" opacity="0.2"></rect></g><g transform="translate(-118,-82) scale(1,1)"><rect fill="#C0C0C0" stroke="none" x="579" y="413" width="84" height="40" opacity="0.2"></rect></g><g transform="translate(-118,-82) scale(1,1)"><rect fill="#ffffff" stroke="none" x="572" y="407" width="84" height="39"></rect></g><g transform="translate(-118,-82) scale(1,1)"><path fill="none" stroke="#000000" d="M 572 407 L 656 407 L 656 446 L 572 446 L 572 407 Z Z" stroke-miterlimit="10"></path></g><g transform="translate(-118,-82) scale(1,1)"><rect fill="#ffffff" stroke="none" x="572" y="392" width="33.60000000000002" height="15"></rect></g><g transform="translate(-118,-82) scale(1,1)"><path fill="none" stroke="#000000" d="M 572 392 L 605.6 392 L 605.6 407 L 572 407 L 572 392 Z Z" stroke-miterlimit="10"></path></g><g transform="translate(-118,-82) scale(1,1)"><rect fill="#ffffff" stroke="none" x="572" y="406" width="84" height="40"></rect></g><g transform="translate(-118,-82) scale(1,1)"><path fill="none" stroke="#000000" d="M 572 406 L 656 406 L 656 446 L 572 446 L 572 406 Z Z" stroke-miterlimit="10"></path></g><g transform="translate(-118,-82) scale(1,1)"><g><path fill="none" stroke="none"></path><text fill="#000000" stroke="none" font-family="Arial" font-size="13px" font-style="normal" font-weight="bold" text-decoration="none" x="590.5" y="426.5">facilities</text></g></g><g transform="translate(-118,-82) scale(1,1)"><path fill="none" stroke="#000000" d="M 572 419 L 536 419 L 536 332" stroke-miterlimit="10"></path></g><g transform="translate(-118,-82) scale(1,1)"><path fill="#FFFFFF" stroke="none" d="M 529 339 C 529 335.1340064 532.1340064 332 536 332 C 539.8659936 332 543 335.1340064 543 339 C 543 342.8659936 539.8659936 346 536 346 C 532.1340064 346 529 342.8659936 529 339 Z"></path></g><g transform="translate(-118,-82) scale(1,1)"><path fill="none" stroke="#000000" d="M 529 339 C 529 335.1340064 532.1340064 332 536 332 C 539.8659936 332 543 335.1340064 543 339 C 543 342.8659936 539.8659936 346 536 346 C 532.1340064 346 529 342.8659936 529 339 Z" stroke-miterlimit="10"></path></g><g transform="translate(-118,-82) scale(1,1)"><path fill="none" stroke="#000000" d="M 536 346 L 536 332" stroke-miterlimit="10"></path></g><g transform="translate(-118,-82) scale(1,1)"><path fill="none" stroke="#000000" d="M 543 339 L 529 339" stroke-miterlimit="10"></path></g></g></svg>