<svg version="1.1" xmlns="http://www.w3.org/2000/svg" xmlns:xlink="http://www.w3.org/1999/xlink" width="544" height="344"><defs></defs><g><g transform="translate(-462,-119) scale(1,1)"><path fill="#C0C0C0" stroke="none" d="M 724.5 230.5 C 724.5 224.1487248 729.6487248 219 736 219 C 742.3512752 219 747.5 224.1487248 747.5 230.5 C 747.5 236.8512752 742.3512752 242 736 242 C 729.6487248 242 724.5 236.8512752 724.5 230.5 Z" opacity="0.2"></path></g><g transform="translate(-462,-119) scale(1,1)"><path fill="#ffffff" stroke="none" d="M 717.5 223.5 C 717.5 217.1487248 722.6487248 212 729 212 C 735.3512752 212 740.5 217.1487248 740.5 223.5 C 740.5 229.8512752 735.3512752 235 729 235 C 722.6487248 235 717.5 229.8512752 717.5 223.5 Z"></path></g><g transform="translate(-462,-119) scale(1,1)"><path fill="none" stroke="#000000" d="M 717.5 223.5 C 717.5 217.1487248 722.6487248 212 729 212 C 735.3512752 212 740.5 217.1487248 740.5 223.5 C 740.5 229.8512752 735.3512752 235 729 235 C 722.6487248 235 717.5 229.8512752 717.5 223.5 Z" stroke-miterlimit="10"></path></g><g transform="translate(-462,-119) scale(1,1)"><g><path fill="none" stroke="none"></path><text fill="#000000" stroke="none" font-family="Arial" font-size="13px" font-style="normal" font-weight="bold" text-decoration="none" x="693" y="254.5">PlaceLoader</text></g></g><g transform="translate(-462,-119) scale(1,1)"><path fill="#C0C0C0" stroke="none" d="M 523.5 230.5 C 523.5 224.1487248 528.6487248 219 535 219 C 541.3512752 219 546.5 224.1487248 546.5 230.5 C 546.5 236.8512752 541.3512752 242 535 242 C 528.6487248 242 523.5 236.8512752 523.5 230.5 Z" opacity="0.2"></path></g><g transform="translate(-462,-119) scale(1,1)"><path fill="#ffffff" stroke="none" d="M 516.5 223.5 C 516.5 217.1487248 521.6487248 212 528 212 C 534.3512752 212 539.5 217.1487248 539.5 223.5 C 539.5 229.8512752 534.3512752 235 528 235 C 521.6487248 235 516.5 229.8512752 516.5 223.5 Z"></path></g><g transform="translate(-462,-119) scale(1,1)"><path fill="none" stroke="#000000" d="M 516.5 223.5 C 516.5 217.1487248 521.6487248 212 528 212 C 534.3512752 212 539.5 217.1487248 539.5 223.5 C 539.5 229.8512752 534.3512752 235 528 235 C 521.6487248 235 516.5 229.8512752 516.5 223.5 Z" stroke-miterlimit="10"></path></g><g transform="translate(-462,-119) scale(1,1)"><g><path fill="none" stroke="none"></path><text fill="#000000" stroke="none" font-family="Arial" font-size="13px" font-style="normal" font-weight="bold" text-decoration="none" x="480.5" y="254.5">PlaceRepository</text></g></g><g transform="translate(-462,-119) scale(1,1)"><rect fill="#C0C0C0" stroke="none" x="557" y="136" width="175" height="47" opacity="0.2"></rect></g><g transform="translate(-462,-119) scale(1,1)"><rect fill="#ffffff" stroke="none" x="550" y="129" width="175" height="47"></rect></g><g transform="translate(-462,-119) scale(1,1)"><path fill="none" stroke="#000000" d="M 550 129 L 725 129 L 725 176 L 550 176 L 550 129 Z Z" stroke-miterlimit="10"></path></g><g transform="translate(-462,-119) scale(1,1)"><rect fill="#ffffff" stroke="none" x="540" y="136" width="20" height="10"></rect></g><g transform="translate(-462,-119) scale(1,1)"><path fill="none" stroke="#000000" d="M 540 136 L 560 136 L 560 146 L 540 146 L 540 136 Z Z" stroke-miterlimit="10"></path></g><g transform="translate(-462,-119) scale(1,1)"><rect fill="#ffffff" stroke="none" x="540" y="156" width="20" height="10"></rect></g><g transform="translate(-462,-119) scale(1,1)"><path fill="none" stroke="#000000" d="M 540 156 L 560 156 L 560 166 L 540 166 L 540 156 Z Z" stroke-miterlimit="10"></path></g><g transform="translate(-462,-119) scale(1,1)"><path fill="none" stroke="#000000" d="M 560 154 L 725 154" stroke-miterlimit="10"></path></g><g transform="translate(-462,-119) scale(1,1)"><g><path fill="none" stroke="none"></path><text fill="#000000" stroke="none" font-family="Arial" font-size="13px" font-style="normal" font-weight="bold" text-decoration="none" x="601" y="148.5">PlaceManager</text></g></g><g transform="translate(-462,-119) scale(1,1)"><g><path fill="none" stroke="none"></path><text fill="#000000" stroke="none" font-family="Arial" font-size="13px" font-style="normal" font-weight="normal" text-decoration="none" x="565" y="171.5">-placesBinLocation: String</text></g></g><g transform="translate(-462,-119) scale(1,1)"><path fill="none" stroke="#000000" d="M 661 177 L 717.5 218.24137931034483" stroke-miterlimit="10"></path></g><g transform="translate(-462,-119) scale(1,1)"><path fill="none" stroke="#000000" d="M 601 177 L 539.5 218.5483870967742" stroke-miterlimit="10"></path></g><g transform="translate(-462,-119) scale(1,1)"><rect fill="#C0C0C0" stroke="none" x="487" y="375" width="308" height="85" opacity="0.2"></rect></g><g transform="translate(-462,-119) scale(1,1)"><rect fill="#ffffff" stroke="none" x="480" y="368" width="308" height="85"></rect></g><g transform="translate(-462,-119) scale(1,1)"><path fill="none" stroke="#000000" d="M 480 368 L 788 368 L 788 453 L 480 453 L 480 368 Z Z" stroke-miterlimit="10"></path></g><g transform="translate(-462,-119) scale(1,1)"><path fill="none" stroke="#000000" d="M 480 408 L 788 408" stroke-miterlimit="10"></path></g><g transform="translate(-462,-119) scale(1,1)"><path fill="none" stroke="#000000" d="M 480 431 L 788 431" stroke-miterlimit="10"></path></g><g transform="translate(-462,-119) scale(1,1)"><g><path fill="none" stroke="none"></path><text fill="#000000" stroke="none" font-family="Arial" font-size="13px" font-style="normal" font-weight="bold" text-decoration="none" x="592.5" y="387.5">PlaceManager</text></g></g><g transform="translate(-462,-119) scale(1,1)"><g><path fill="none" stroke="none"></path><text fill="#000000" stroke="none" font-family="Arial" font-size="13px" font-style="normal" font-weight="normal" text-decoration="none" x="596.5" y="402.5">(from places)</text></g></g><g transform="translate(-462,-119) scale(1,1)"><g><path fill="none" stroke="none"></path><text fill="#000000" stroke="none" font-family="Arial" font-size="13px" font-style="normal" font-weight="normal" text-decoration="none" x="485" y="425.5">-placesBinLocation: String</text></g></g><g transform="translate(-462,-119) scale(1,1)"><g><path fill="none" stroke="none"></path><text fill="#000000" stroke="none" font-family="Arial" font-size="13px" font-style="normal" font-weight="normal" text-decoration="none" x="485" y="448.5">«Create»+PlaceManager(placesBinLocation: String)</text></g></g><g transform="translate(-462,-119) scale(1,1)"><path fill="none" stroke="#000000" d="M 633 368 L 633 176" stroke-miterlimit="10" stroke-dasharray="3"></path></g><g transform="translate(-462,-119) scale(1,1)"><path fill="#FFFFFF" stroke="none" d="M 641.419035512032 196.3253497152483 L 633 176 L 624.580964487968 196.3253497152483"></path></g><g transform="translate(-462,-119) scale(1,1)"><path fill="none" stroke="#000000" d="M 641.419035512032 196.3253497152483 L 633 176 L 624.580964487968 196.3253497152483 L 641.419035512032 196.3253497152483" stroke-miterlimit="10"></path></g><g transform="translate(-462,-119) scale(1,1)"><path fill="none" stroke="#000000" d="M 608 367 L 532.7368421052631 235" stroke-miterlimit="10"></path></g><g transform="translate(-462,-119) scale(1,1)"><path fill="none" stroke="#000000" d="M 657 367 L 724.578947368421 235" stroke-miterlimit="10"></path></g><g transform="translate(-462,-119) scale(1,1)"><rect fill="#C0C0C0" stroke="none" x="919" y="411" width="84" height="39" opacity="0.2"></rect></g><g transform="translate(-462,-119) scale(1,1)"><rect fill="#ffffff" stroke="none" x="912" y="404" width="84" height="39"></rect></g><g transform="translate(-462,-119) scale(1,1)"><path fill="none" stroke="#000000" d="M 912 404 L 996 404 L 996 443 L 912 443 L 912 404 Z Z" stroke-miterlimit="10"></path></g><g transform="translate(-462,-119) scale(1,1)"><g><path fill="none" stroke="none"></path><text fill="#000000" stroke="none" font-family="Arial" font-size="13px" font-style="italic" font-weight="bold" text-decoration="none" x="937.5" y="423.5">Place</text></g></g><g transform="translate(-462,-119) scale(1,1)"><g><path fill="none" stroke="none"></path><text fill="#000000" stroke="none" font-family="Arial" font-size="13px" font-style="normal" font-weight="normal" text-decoration="none" x="916.5" y="438.5">(from places)</text></g></g><g transform="translate(-462,-119) scale(1,1)"><path fill="none" stroke="#000000" d="M 788 422 L 912 422" stroke-miterlimit="10"></path></g><g transform="translate(-462,-119) scale(1,1)"><path fill="none" stroke="#000000" d="M 901.8373251423759 426.209517756016 L 912 422 L 901.8373251423758 417.790482243984" stroke-miterlimit="10"></path></g><g transform="translate(-462,-119) scale(1,1)"><g><path fill="none" stroke="none"></path><text fill="#000000" stroke="none" font-family="Arial" font-size="13px" font-style="normal" font-weight="normal" text-decoration="none" x="863" y="413">-places</text></g></g><g transform="translate(-462,-119) scale(1,1)"><g><path fill="none" stroke="none"></path><text fill="#000000" stroke="none" font-family="Arial" font-size="13px" font-style="normal" font-weight="normal" text-decoration="none" x="858" y="400">{ordered}</text></g></g><g transform="translate(-462,-119) scale(1,1)"><g><path fill="none" stroke="none"></path><text fill="#000000" stroke="none" font-family="Arial" font-size="13px" font-style="normal" font-weight="normal" text-decoration="none" x="880" y="441">0..*</text></g></g></g></svg>