<svg version="1.1" xmlns="http://www.w3.org/2000/svg" xmlns:xlink="http://www.w3.org/1999/xlink" width="1297" height="557"><defs></defs><g><g transform="translate(-540,-66) scale(1,1)"><rect fill="#C0C0C0" stroke="none" x="682" y="282" width="326" height="144" opacity="0.2"></rect></g><g transform="translate(-540,-66) scale(1,1)"><rect fill="#ffffff" stroke="none" x="675" y="275" width="326" height="144"></rect></g><g transform="translate(-540,-66) scale(1,1)"><path fill="none" stroke="#000000" d="M 675 275 L 1001 275 L 1001 419 L 675 419 L 675 275 Z Z" stroke-miterlimit="10"></path></g><g transform="translate(-540,-66) scale(1,1)"><rect fill="#ffffff" stroke="none" x="665" y="282" width="20" height="10"></rect></g><g transform="translate(-540,-66) scale(1,1)"><path fill="none" stroke="#000000" d="M 665 282 L 685 282 L 685 292 L 665 292 L 665 282 Z Z" stroke-miterlimit="10"></path></g><g transform="translate(-540,-66) scale(1,1)"><rect fill="#ffffff" stroke="none" x="665" y="302" width="20" height="10"></rect></g><g transform="translate(-540,-66) scale(1,1)"><path fill="none" stroke="#000000" d="M 665 302 L 685 302 L 685 312 L 665 312 L 665 302 Z Z" stroke-miterlimit="10"></path></g><g transform="translate(-540,-66) scale(1,1)"><path fill="none" stroke="#000000" d="M 685 315 L 1001 315" stroke-miterlimit="10"></path></g><g transform="translate(-540,-66) scale(1,1)"><g><path fill="none" stroke="none"></path><text fill="#000000" stroke="none" font-family="Arial" font-size="13px" font-style="normal" font-weight="bold" text-decoration="none" x="811" y="294.5">TouristMap</text></g></g><g transform="translate(-540,-66) scale(1,1)"><g><path fill="none" stroke="none"></path><text fill="#000000" stroke="none" font-family="Arial" font-size="13px" font-style="normal" font-weight="normal" text-decoration="none" x="808.5" y="309.5">(from maps)</text></g></g><g transform="translate(-540,-66) scale(1,1)"><g><path fill="none" stroke="none"></path><text fill="#000000" stroke="none" font-family="Arial" font-size="13px" font-style="normal" font-weight="normal" text-decoration="none" x="690" y="332.5">-geodatabaseLocation: String</text></g></g><g transform="translate(-540,-66) scale(1,1)"><g><path fill="none" stroke="none"></path><text fill="#000000" stroke="none" font-family="Arial" font-size="13px" font-style="normal" font-weight="normal" text-decoration="none" x="690" y="347.5">-mapTilePackageLocation: String</text></g></g><g transform="translate(-540,-66) scale(1,1)"><g><path fill="none" stroke="none"></path><text fill="#000000" stroke="none" font-family="Arial" font-size="13px" font-style="normal" font-weight="normal" text-decoration="none" x="690" y="362.5">-Directions</text></g></g><g transform="translate(-540,-66) scale(1,1)"><g><path fill="none" stroke="none"></path><text fill="#000000" stroke="none" font-family="Arial" font-size="13px" font-style="normal" font-weight="normal" text-decoration="none" x="690" y="377.5">-Places</text></g></g><g transform="translate(-540,-66) scale(1,1)"><g><path fill="none" stroke="none"></path><text fill="#000000" stroke="none" font-family="Arial" font-size="13px" font-style="normal" font-weight="normal" text-decoration="none" x="690" y="392.5">-Observer</text></g></g><g transform="translate(-540,-66) scale(1,1)"><path fill="#C0C0C0" stroke="none" d="M 1126.5 366.5 C 1126.5 360.1487248 1131.6487248 355 1138 355 C 1144.3512752 355 1149.5 360.1487248 1149.5 366.5 C 1149.5 372.8512752 1144.3512752 378 1138 378 C 1131.6487248 378 1126.5 372.8512752 1126.5 366.5 Z" opacity="0.2"></path></g><g transform="translate(-540,-66) scale(1,1)"><path fill="#ffffff" stroke="none" d="M 1119.5 359.5 C 1119.5 353.1487248 1124.6487248 348 1131 348 C 1137.3512752 348 1142.5 353.1487248 1142.5 359.5 C 1142.5 365.8512752 1137.3512752 371 1131 371 C 1124.6487248 371 1119.5 365.8512752 1119.5 359.5 Z"></path></g><g transform="translate(-540,-66) scale(1,1)"><path fill="none" stroke="#000000" d="M 1119.5 359.5 C 1119.5 353.1487248 1124.6487248 348 1131 348 C 1137.3512752 348 1142.5 353.1487248 1142.5 359.5 C 1142.5 365.8512752 1137.3512752 371 1131 371 C 1124.6487248 371 1119.5 365.8512752 1119.5 359.5 Z" stroke-miterlimit="10"></path></g><g transform="translate(-540,-66) scale(1,1)"><g><path fill="none" stroke="none"></path><text fill="#000000" stroke="none" font-family="Arial" font-size="13px" font-style="normal" font-weight="bold" text-decoration="none" x="1118.5" y="390.5">Map</text></g></g><g transform="translate(-540,-66) scale(1,1)"><g><path fill="none" stroke="none"></path><text fill="#000000" stroke="none" font-family="Arial" font-size="13px" font-style="normal" font-weight="normal" text-decoration="none" x="1096.5" y="405.5">(from maps)</text></g></g><g transform="translate(-540,-66) scale(1,1)"><path fill="none" stroke="#000000" d="M 1001 359 L 1119.5 359" stroke-miterlimit="10"></path></g><g transform="translate(-540,-66) scale(1,1)"><path fill="none" stroke="#000000" d="M 720 500.5 A 11.5 11.5 0 0 1 720 523.5" stroke-miterlimit="10"></path></g><g transform="translate(-540,-66) scale(1,1)"><g><path fill="none" stroke="none"></path><text fill="#000000" stroke="none" font-family="Arial" font-size="13px" font-style="normal" font-weight="bold" text-decoration="none" x="669.5" y="543.5">RoutingCalculator</text></g></g><g transform="translate(-540,-66) scale(1,1)"><g><path fill="none" stroke="none"></path><text fill="#000000" stroke="none" font-family="Arial" font-size="13px" font-style="normal" font-weight="normal" text-decoration="none" x="686" y="558.5">(from maps)</text></g></g><g transform="translate(-540,-66) scale(1,1)"><path fill="none" stroke="#000000" d="M 1052 523.5 A 11.5 11.5 0 0 1 1052 500.5" stroke-miterlimit="10"></path></g><g transform="translate(-540,-66) scale(1,1)"><g><path fill="none" stroke="none"></path><text fill="#000000" stroke="none" font-family="Arial" font-size="13px" font-style="normal" font-weight="bold" text-decoration="none" x="985" y="543.5">ClosestPlaceCalculator</text></g></g><g transform="translate(-540,-66) scale(1,1)"><g><path fill="none" stroke="none"></path><text fill="#000000" stroke="none" font-family="Arial" font-size="13px" font-style="normal" font-weight="normal" text-decoration="none" x="1018" y="558.5">(from maps)</text></g></g><g transform="translate(-540,-66) scale(1,1)"><path fill="none" stroke="#000000" d="M 798.5 153 A 11.5 11.5 0 0 1 775.5 153" stroke-miterlimit="10"></path></g><g transform="translate(-540,-66) scale(1,1)"><g><path fill="none" stroke="none"></path><text fill="#000000" stroke="none" font-family="Arial" font-size="13px" font-style="normal" font-weight="bold" text-decoration="none" x="751" y="184.5">PlaceLoader</text></g></g><g transform="translate(-540,-66) scale(1,1)"><g><path fill="none" stroke="none"></path><text fill="#000000" stroke="none" font-family="Arial" font-size="13px" font-style="normal" font-weight="normal" text-decoration="none" x="749.5" y="199.5">(from places)</text></g></g><g transform="translate(-540,-66) scale(1,1)"><rect fill="#ffffff" stroke="none" x="841" y="412" width="14" height="14"></rect></g><g transform="translate(-540,-66) scale(1,1)"><path fill="none" stroke="#000000" d="M 841 412 L 855 412 L 855 426 L 841 426 L 841 412 Z Z" stroke-miterlimit="10"></path></g><g transform="translate(-540,-66) scale(1,1)"><g><path fill="none" stroke="none"></path><text fill="#000000" stroke="none" font-family="Arial" font-size="13px" font-style="normal" font-weight="normal" text-decoration="none" x="856" y="415.5">Directions</text></g></g><g transform="translate(-540,-66) scale(1,1)"><path fill="none" stroke="#000000" d="M 845 426 L 845 512 L 732 512" stroke-miterlimit="10"></path></g><g transform="translate(-540,-66) scale(1,1)"><path fill="none" stroke="#000000" d="M 845 426 L 845 512 L 1041 512" stroke-miterlimit="10"></path></g><g transform="translate(-540,-66) scale(1,1)"><rect fill="#ffffff" stroke="none" x="857" y="268" width="14" height="14"></rect></g><g transform="translate(-540,-66) scale(1,1)"><path fill="none" stroke="#000000" d="M 857 268 L 871 268 L 871 282 L 857 282 L 857 268 Z Z" stroke-miterlimit="10"></path></g><g transform="translate(-540,-66) scale(1,1)"><g><path fill="none" stroke="none"></path><text fill="#000000" stroke="none" font-family="Arial" font-size="13px" font-style="normal" font-weight="normal" text-decoration="none" x="876" y="269.5">Places</text></g></g><g transform="translate(-540,-66) scale(1,1)"><path fill="none" stroke="#000000" d="M 861 268 L 861 235 L 787 235 L 787 165" stroke-miterlimit="10"></path></g><g transform="translate(-540,-66) scale(1,1)"><path fill="none" stroke="#000000" d="M 935.5 153 A 11.5 11.5 0 0 1 912.5 153" stroke-miterlimit="10"></path></g><g transform="translate(-540,-66) scale(1,1)"><g><path fill="none" stroke="none"></path><text fill="#000000" stroke="none" font-family="Arial" font-size="13px" font-style="normal" font-weight="bold" text-decoration="none" x="876.5" y="184.5">PlaceRepository</text></g></g><g transform="translate(-540,-66) scale(1,1)"><g><path fill="none" stroke="none"></path><text fill="#000000" stroke="none" font-family="Arial" font-size="13px" font-style="normal" font-weight="normal" text-decoration="none" x="886.5" y="199.5">(from places)</text></g></g><g transform="translate(-540,-66) scale(1,1)"><path fill="none" stroke="#000000" d="M 861 268 L 861 235 L 924 235 L 924 165" stroke-miterlimit="10"></path></g><g transform="translate(-540,-66) scale(1,1)"><rect fill="#C0C0C0" stroke="none" x="1303" y="303" width="531" height="160" opacity="0.2"></rect></g><g transform="translate(-540,-66) scale(1,1)"><rect fill="#ffffff" stroke="none" x="1296" y="296" width="531" height="160"></rect></g><g transform="translate(-540,-66) scale(1,1)"><path fill="none" stroke="#000000" d="M 1296 296 L 1827 296 L 1827 456 L 1296 456 L 1296 296 Z Z" stroke-miterlimit="10"></path></g><g transform="translate(-540,-66) scale(1,1)"><path fill="none" stroke="#000000" d="M 1296 336 L 1827 336" stroke-miterlimit="10"></path></g><g transform="translate(-540,-66) scale(1,1)"><path fill="none" stroke="#000000" d="M 1296 374 L 1827 374" stroke-miterlimit="10"></path></g><g transform="translate(-540,-66) scale(1,1)"><g><path fill="none" stroke="none"></path><text fill="#000000" stroke="none" font-family="Arial" font-size="13px" font-style="normal" font-weight="bold" text-decoration="none" x="1529.5" y="315.5">TouristMap</text></g></g><g transform="translate(-540,-66) scale(1,1)"><g><path fill="none" stroke="none"></path><text fill="#000000" stroke="none" font-family="Arial" font-size="13px" font-style="normal" font-weight="normal" text-decoration="none" x="1527" y="330.5">(from maps)</text></g></g><g transform="translate(-540,-66) scale(1,1)"><g><path fill="none" stroke="none"></path><text fill="#000000" stroke="none" font-family="Arial" font-size="13px" font-style="normal" font-weight="normal" text-decoration="none" x="1301" y="353.5">-geodatabaseLocation: String</text></g></g><g transform="translate(-540,-66) scale(1,1)"><g><path fill="none" stroke="none"></path><text fill="#000000" stroke="none" font-family="Arial" font-size="13px" font-style="normal" font-weight="normal" text-decoration="none" x="1301" y="368.5">-mapTilePackageLocation: String</text></g></g><g transform="translate(-540,-66) scale(1,1)"><g><path fill="none" stroke="none"></path><text fill="#000000" stroke="none" font-family="Arial" font-size="13px" font-style="normal" font-weight="normal" text-decoration="none" x="1301" y="391.5">«Create»+TouristMap(geodatabaseLocation: String[1], mapTilePackageLocation: String[1])</text></g></g><g transform="translate(-540,-66) scale(1,1)"><g><path fill="none" stroke="none"></path><text fill="#000000" stroke="none" font-family="Arial" font-size="13px" font-style="normal" font-weight="normal" text-decoration="none" x="1301" y="406.5">+setPlacesLoader(arg: PlaceLoader)</text></g></g><g transform="translate(-540,-66) scale(1,1)"><g><path fill="none" stroke="none"></path><text fill="#000000" stroke="none" font-family="Arial" font-size="13px" font-style="normal" font-weight="normal" text-decoration="none" x="1301" y="421.5">+setPlacesRepository(arg: PlaceRepository)</text></g></g><g transform="translate(-540,-66) scale(1,1)"><g><path fill="none" stroke="none"></path><text fill="#000000" stroke="none" font-family="Arial" font-size="13px" font-style="normal" font-weight="normal" text-decoration="none" x="1301" y="436.5">+setDirectionsRoutingCalculator(arg: RoutingCalculator)</text></g></g><g transform="translate(-540,-66) scale(1,1)"><g><path fill="none" stroke="none"></path><text fill="#000000" stroke="none" font-family="Arial" font-size="13px" font-style="normal" font-weight="normal" text-decoration="none" x="1301" y="451.5">+setDirectionsClosestPlaceCalculator(arg: ClosestPlaceCalculator)</text></g></g><g transform="translate(-540,-66) scale(1,1)"><path fill="none" stroke="#000000" d="M 1296 308 L 1001 308" stroke-miterlimit="10" stroke-dasharray="3"></path></g><g transform="translate(-540,-66) scale(1,1)"><path fill="#FFFFFF" stroke="none" d="M 1021.3253497152483 299.580964487968 L 1001 308 L 1021.3253497152483 316.419035512032"></path></g><g transform="translate(-540,-66) scale(1,1)"><path fill="none" stroke="#000000" d="M 1021.3253497152483 299.580964487968 L 1001 308 L 1021.3253497152483 316.419035512032 L 1021.3253497152483 299.580964487968" stroke-miterlimit="10"></path></g><g transform="translate(-540,-66) scale(1,1)"><path fill="none" stroke="#000000" d="M 1296 359 L 1142.5 359" stroke-miterlimit="10"></path></g><g transform="translate(-540,-66) scale(1,1)"><path fill="none" stroke="#000000" d="M 1368 456 L 1368 612 L 1052 612 L 1052 564" stroke-miterlimit="10"></path></g><g transform="translate(-540,-66) scale(1,1)"><path fill="none" stroke="#000000" d="M 1056.2095177560159 574.1626748576241 L 1052 564 L 1047.7904822439841 574.1626748576241" stroke-miterlimit="10"></path></g><g transform="translate(-540,-66) scale(1,1)"><g><path fill="none" stroke="none"></path><text fill="#000000" stroke="none" font-family="Arial" font-size="13px" font-style="normal" font-weight="normal" text-decoration="none" x="851" y="591">-directionsClosestPlaceCalculator</text></g></g><g transform="translate(-540,-66) scale(1,1)"><g><path fill="none" stroke="none"></path><text fill="#000000" stroke="none" font-family="Arial" font-size="13px" font-style="normal" font-weight="normal" text-decoration="none" x="1061" y="592">1</text></g></g><g transform="translate(-540,-66) scale(1,1)"><path fill="none" stroke="#000000" d="M 1368 456 L 1368 612 L 720 612 L 720 564" stroke-miterlimit="10"></path></g><g transform="translate(-540,-66) scale(1,1)"><path fill="none" stroke="#000000" d="M 724.209517756016 574.1626748576241 L 720 564 L 715.790482243984 574.1626748576241" stroke-miterlimit="10"></path></g><g transform="translate(-540,-66) scale(1,1)"><g><path fill="none" stroke="none"></path><text fill="#000000" stroke="none" font-family="Arial" font-size="13px" font-style="normal" font-weight="normal" text-decoration="none" x="550" y="591">-directionsRoutingCalculator</text></g></g><g transform="translate(-540,-66) scale(1,1)"><g><path fill="none" stroke="none"></path><text fill="#000000" stroke="none" font-family="Arial" font-size="13px" font-style="normal" font-weight="normal" text-decoration="none" x="729" y="592">1</text></g></g><g transform="translate(-540,-66) scale(1,1)"><path fill="none" stroke="#000000" d="M 1372 296 L 1372 76 L 924 76 L 924 142" stroke-miterlimit="10"></path></g><g transform="translate(-540,-66) scale(1,1)"><path fill="none" stroke="#000000" d="M 919.790482243984 131.83732514237585 L 924 142 L 928.209517756016 131.83732514237585" stroke-miterlimit="10"></path></g><g transform="translate(-540,-66) scale(1,1)"><g><path fill="none" stroke="none"></path><text fill="#000000" stroke="none" font-family="Arial" font-size="13px" font-style="normal" font-weight="normal" text-decoration="none" x="927" y="128">-placesRepository</text></g></g><g transform="translate(-540,-66) scale(1,1)"><g><path fill="none" stroke="none"></path><text fill="#000000" stroke="none" font-family="Arial" font-size="13px" font-style="normal" font-weight="normal" text-decoration="none" x="908" y="127">1</text></g></g><g transform="translate(-540,-66) scale(1,1)"><path fill="none" stroke="#000000" d="M 1372 296 L 1372 76 L 788 76 L 788 142" stroke-miterlimit="10"></path></g><g transform="translate(-540,-66) scale(1,1)"><path fill="none" stroke="#000000" d="M 783.790482243984 131.83732514237585 L 788 142 L 792.209517756016 131.83732514237585" stroke-miterlimit="10"></path></g><g transform="translate(-540,-66) scale(1,1)"><g><path fill="none" stroke="none"></path><text fill="#000000" stroke="none" font-family="Arial" font-size="13px" font-style="normal" font-weight="normal" text-decoration="none" x="791" y="128">-placesLoader</text></g></g><g transform="translate(-540,-66) scale(1,1)"><g><path fill="none" stroke="none"></path><text fill="#000000" stroke="none" font-family="Arial" font-size="13px" font-style="normal" font-weight="normal" text-decoration="none" x="772" y="127">1</text></g></g></g></svg>