<svg version="1.1" xmlns="http://www.w3.org/2000/svg" xmlns:xlink="http://www.w3.org/1999/xlink" width="914" height="364"><defs></defs><g><g transform="translate(-142,-106) scale(1,1)"><rect fill="#C0C0C0" stroke="none" x="303" y="123" width="548" height="220" opacity="0.2"></rect></g><g transform="translate(-142,-106) scale(1,1)"><rect fill="#ffffff" stroke="none" x="296" y="116" width="548" height="220"></rect></g><g transform="translate(-142,-106) scale(1,1)"><path fill="none" stroke="#000000" d="M 296 116 L 844 116 L 844 336 L 296 336 L 296 116 Z Z" stroke-miterlimit="10"></path></g><g transform="translate(-142,-106) scale(1,1)"><path fill="none" stroke="#000000" d="M 296 141 L 844 141" stroke-miterlimit="10"></path></g><g transform="translate(-142,-106) scale(1,1)"><path fill="none" stroke="#000000" d="M 296 224 L 844 224" stroke-miterlimit="10"></path></g><g transform="translate(-142,-106) scale(1,1)"><g><path fill="none" stroke="none"></path><text fill="#000000" stroke="none" font-family="Arial" font-size="13px" font-style="italic" font-weight="bold" text-decoration="none" x="553.5" y="135.5">Place</text></g></g><g transform="translate(-142,-106) scale(1,1)"><g><path fill="none" stroke="none"></path><text fill="#000000" stroke="none" font-family="Arial" font-size="13px" font-style="normal" font-weight="normal" text-decoration="none" x="301" y="158.5">#placeType: String[1]</text></g></g><g transform="translate(-142,-106) scale(1,1)"><g><path fill="none" stroke="none"></path><text fill="#000000" stroke="none" font-family="Arial" font-size="13px" font-style="normal" font-weight="normal" text-decoration="none" x="301" y="173.5">-placeImageLocation: String</text></g></g><g transform="translate(-142,-106) scale(1,1)"><g><path fill="none" stroke="none"></path><text fill="#000000" stroke="none" font-family="Arial" font-size="13px" font-style="normal" font-weight="normal" text-decoration="none" x="301" y="188.5">-name: String[1]</text></g></g><g transform="translate(-142,-106) scale(1,1)"><g><path fill="none" stroke="none"></path><text fill="#000000" stroke="none" font-family="Arial" font-size="13px" font-style="normal" font-weight="normal" text-decoration="none" x="301" y="203.5">-iconImageDictionary: Dictionary&lt;String,String&gt;</text><path fill="none" stroke="#000000" d="M 301 203.5 L 576 203.5" stroke-miterlimit="10"></path></g></g><g transform="translate(-142,-106) scale(1,1)"><g><path fill="none" stroke="none"></path><text fill="#000000" stroke="none" font-family="Arial" font-size="13px" font-style="normal" font-weight="normal" text-decoration="none" x="301" y="218.5">-markerConfigurationPath: String = "markerconfig.xml"</text><path fill="none" stroke="#000000" d="M 301 218.5 L 614 218.5" stroke-miterlimit="10"></path></g></g><g transform="translate(-142,-106) scale(1,1)"><g><path fill="none" stroke="none"></path><text fill="#000000" stroke="none" font-family="Arial" font-size="13px" font-style="normal" font-weight="normal" text-decoration="none" x="301" y="241.5">-initializeMarkerImageDictionary()</text><path fill="none" stroke="#000000" d="M 301 241.5 L 493 241.5" stroke-miterlimit="10"></path></g></g><g transform="translate(-142,-106) scale(1,1)"><g><path fill="none" stroke="none"></path><text fill="#000000" stroke="none" font-family="Arial" font-size="13px" font-style="normal" font-weight="normal" text-decoration="none" x="301" y="256.5">«Create»+Place(name: String, iconImageLocation: String, latitude: Double, longitude: Double)</text></g></g><g transform="translate(-142,-106) scale(1,1)"><g><path fill="none" stroke="none"></path><text fill="#000000" stroke="none" font-family="Arial" font-size="13px" font-style="normal" font-weight="normal" text-decoration="none" x="301" y="271.5">#getIconImageLocation(): String</text></g></g><g transform="translate(-142,-106) scale(1,1)"><g><path fill="none" stroke="none"></path><text fill="#000000" stroke="none" font-family="Arial" font-size="13px" font-style="normal" font-weight="normal" text-decoration="none" x="301" y="286.5">#getPlaceImageLocation(): String[0..*]</text></g></g><g transform="translate(-142,-106) scale(1,1)"><g><path fill="none" stroke="none"></path><text fill="#000000" stroke="none" font-family="Arial" font-size="13px" font-style="normal" font-weight="normal" text-decoration="none" x="301" y="301.5">+getName(): String</text></g></g><g transform="translate(-142,-106) scale(1,1)"><g><path fill="none" stroke="none"></path><text fill="#000000" stroke="none" font-family="Arial" font-size="13px" font-style="italic" font-weight="normal" text-decoration="none" x="301" y="316.5">#getDescription(): String</text></g></g><g transform="translate(-142,-106) scale(1,1)"><g><path fill="none" stroke="none"></path><text fill="#000000" stroke="none" font-family="Arial" font-size="13px" font-style="normal" font-weight="normal" text-decoration="none" x="301" y="331.5">+addOnMap(map: JMap)</text></g></g><g transform="translate(-142,-106) scale(1,1)"><rect fill="#C0C0C0" stroke="none" x="383" y="423" width="60" height="44" opacity="0.2"></rect></g><g transform="translate(-142,-106) scale(1,1)"><rect fill="#ffffff" stroke="none" x="376" y="416" width="60" height="44"></rect></g><g transform="translate(-142,-106) scale(1,1)"><path fill="none" stroke="#000000" d="M 376 416 L 436 416 L 436 460 L 376 460 L 376 416 Z Z" stroke-miterlimit="10"></path></g><g transform="translate(-142,-106) scale(1,1)"><g><path fill="none" stroke="none"></path><text fill="#000000" stroke="none" font-family="Arial" font-size="13px" font-style="normal" font-weight="bold" text-decoration="none" x="382.5" y="435.5">Hospital</text></g></g><g transform="translate(-142,-106) scale(1,1)"><path fill="none" stroke="#000000" d="M 424 415 L 484 337" stroke-miterlimit="10"></path></g><g transform="translate(-142,-106) scale(1,1)"><path fill="#FFFFFF" stroke="none" d="M 478.28054507253995 358.2435363189078 L 484 337 L 464.9342860486198 347.9771832235846"></path></g><g transform="translate(-142,-106) scale(1,1)"><path fill="none" stroke="#000000" d="M 478.28054507253995 358.2435363189078 L 484 337 L 464.9342860486198 347.9771832235846 L 478.28054507253995 358.2435363189078" stroke-miterlimit="10"></path></g><g transform="translate(-142,-106) scale(1,1)"><rect fill="#C0C0C0" stroke="none" x="535" y="423" width="82" height="44" opacity="0.2"></rect></g><g transform="translate(-142,-106) scale(1,1)"><rect fill="#ffffff" stroke="none" x="528" y="416" width="82" height="44"></rect></g><g transform="translate(-142,-106) scale(1,1)"><path fill="none" stroke="#000000" d="M 528 416 L 610 416 L 610 460 L 528 460 L 528 416 Z Z" stroke-miterlimit="10"></path></g><g transform="translate(-142,-106) scale(1,1)"><g><path fill="none" stroke="none"></path><text fill="#000000" stroke="none" font-family="Arial" font-size="13px" font-style="normal" font-weight="bold" text-decoration="none" x="557" y="435.5">Trail</text></g></g><g transform="translate(-142,-106) scale(1,1)"><path fill="none" stroke="#000000" d="M 569 415 L 569 337" stroke-miterlimit="10"></path></g><g transform="translate(-142,-106) scale(1,1)"><path fill="#FFFFFF" stroke="none" d="M 577.419035512032 357.3253497152483 L 569 337 L 560.580964487968 357.3253497152483"></path></g><g transform="translate(-142,-106) scale(1,1)"><path fill="none" stroke="#000000" d="M 577.419035512032 357.3253497152483 L 569 337 L 560.580964487968 357.3253497152483 L 577.419035512032 357.3253497152483" stroke-miterlimit="10"></path></g><g transform="translate(-142,-106) scale(1,1)"><rect fill="#C0C0C0" stroke="none" x="815" y="423" width="73" height="44" opacity="0.2"></rect></g><g transform="translate(-142,-106) scale(1,1)"><rect fill="#ffffff" stroke="none" x="808" y="416" width="73" height="44"></rect></g><g transform="translate(-142,-106) scale(1,1)"><path fill="none" stroke="#000000" d="M 808 416 L 881 416 L 881 460 L 808 460 L 808 416 Z Z" stroke-miterlimit="10"></path></g><g transform="translate(-142,-106) scale(1,1)"><g><path fill="none" stroke="none"></path><text fill="#000000" stroke="none" font-family="Arial" font-size="13px" font-style="normal" font-weight="bold" text-decoration="none" x="816" y="435.5">Landmark</text></g></g><g transform="translate(-142,-106) scale(1,1)"><path fill="none" stroke="#000000" d="M 814 415 L 713 337" stroke-miterlimit="10"></path></g><g transform="translate(-142,-106) scale(1,1)"><path fill="#FFFFFF" stroke="none" d="M 734.2325669084316 342.7600436178014 L 713 337 L 723.9407261408714 356.08665794502673"></path></g><g transform="translate(-142,-106) scale(1,1)"><path fill="none" stroke="#000000" d="M 734.2325669084316 342.7600436178014 L 713 337 L 723.9407261408714 356.08665794502673 L 734.2325669084316 342.7600436178014" stroke-miterlimit="10"></path></g><g transform="translate(-142,-106) scale(1,1)"><rect fill="#C0C0C0" stroke="none" x="919" y="343" width="134" height="57" opacity="0.2"></rect></g><g transform="translate(-142,-106) scale(1,1)"><rect fill="#ffffff" stroke="none" x="912" y="336" width="134" height="57"></rect></g><g transform="translate(-142,-106) scale(1,1)"><path fill="none" stroke="#000000" d="M 912 336 L 1046 336 L 1046 393 L 912 393 L 912 336 Z Z" stroke-miterlimit="10"></path></g><g transform="translate(-142,-106) scale(1,1)"><path fill="none" stroke="#000000" d="M 912 361 L 1046 361" stroke-miterlimit="10"></path></g><g transform="translate(-142,-106) scale(1,1)"><g><path fill="none" stroke="none"></path><text fill="#000000" stroke="none" font-family="Arial" font-size="13px" font-style="normal" font-weight="bold" text-decoration="none" x="951" y="355.5">Institution</text></g></g><g transform="translate(-142,-106) scale(1,1)"><g><path fill="none" stroke="none"></path><text fill="#000000" stroke="none" font-family="Arial" font-size="13px" font-style="normal" font-weight="normal" text-decoration="none" x="917" y="378.5">-specialization: String</text></g></g><g transform="translate(-142,-106) scale(1,1)"><path fill="none" stroke="#000000" d="M 911 341 L 845 319" stroke-miterlimit="10"></path></g><g transform="translate(-142,-106) scale(1,1)"><path fill="#FFFFFF" stroke="none" d="M 866.9446525938781 317.44044155800503 L 845 319 L 861.6199870099056 333.41443830992284"></path></g><g transform="translate(-142,-106) scale(1,1)"><path fill="none" stroke="#000000" d="M 866.9446525938781 317.44044155800503 L 845 319 L 861.6199870099056 333.41443830992284 L 866.9446525938781 317.44044155800503" stroke-miterlimit="10"></path></g><g transform="translate(-142,-106) scale(1,1)"><rect fill="#C0C0C0" stroke="none" x="966" y="193" width="67" height="57" opacity="0.2"></rect></g><g transform="translate(-142,-106) scale(1,1)"><rect fill="#ffffff" stroke="none" x="959" y="186" width="67" height="57"></rect></g><g transform="translate(-142,-106) scale(1,1)"><path fill="none" stroke="#000000" d="M 959 186 L 1026 186 L 1026 243 L 959 243 L 959 186 Z Z" stroke-miterlimit="10"></path></g><g transform="translate(-142,-106) scale(1,1)"><path fill="none" stroke="#000000" d="M 959 211 L 1026 211" stroke-miterlimit="10"></path></g><g transform="translate(-142,-106) scale(1,1)"><g><path fill="none" stroke="none"></path><text fill="#000000" stroke="none" font-family="Arial" font-size="13px" font-style="normal" font-weight="bold" text-decoration="none" x="977.5" y="205.5">Hotel</text></g></g><g transform="translate(-142,-106) scale(1,1)"><g><path fill="none" stroke="none"></path><text fill="#000000" stroke="none" font-family="Arial" font-size="13px" font-style="normal" font-weight="normal" text-decoration="none" x="964" y="228.5">-rating: int</text></g></g><g transform="translate(-142,-106) scale(1,1)"><path fill="none" stroke="#000000" d="M 958 215 L 845 218" stroke-miterlimit="10"></path></g><g transform="translate(-142,-106) scale(1,1)"><path fill="#FFFFFF" stroke="none" d="M 865.0947550321893 209.04450893606017 L 845 218 L 865.5416260097109 225.87664908937612"></path></g><g transform="translate(-142,-106) scale(1,1)"><path fill="none" stroke="#000000" d="M 865.0947550321893 209.04450893606017 L 845 218 L 865.5416260097109 225.87664908937612 L 865.0947550321893 209.04450893606017" stroke-miterlimit="10"></path></g><g transform="translate(-142,-106) scale(1,1)"><rect fill="#C0C0C0" stroke="none" x="159" y="423" width="94" height="40" opacity="0.2"></rect></g><g transform="translate(-142,-106) scale(1,1)"><rect fill="#ffffff" stroke="none" x="152" y="416" width="94" height="40"></rect></g><g transform="translate(-142,-106) scale(1,1)"><path fill="none" stroke="#000000" d="M 152 416 L 246 416 L 246 456 L 152 456 L 152 416 Z Z" stroke-miterlimit="10"></path></g><g transform="translate(-142,-106) scale(1,1)"><g><path fill="none" stroke="none"></path><text fill="#000000" stroke="none" font-family="Arial" font-size="13px" font-style="normal" font-weight="bold" text-decoration="none" x="160.5" y="435.5">PoliceStation</text></g></g><g transform="translate(-142,-106) scale(1,1)"><path fill="none" stroke="#000000" d="M 236 415 L 374 337" stroke-miterlimit="10"></path></g><g transform="translate(-142,-106) scale(1,1)"><path fill="#FFFFFF" stroke="none" d="M 360.4481533717541 354.330535276341 L 374 337 L 352.16285833607384 339.67193636706065"></path></g><g transform="translate(-142,-106) scale(1,1)"><path fill="none" stroke="#000000" d="M 360.4481533717541 354.330535276341 L 374 337 L 352.16285833607384 339.67193636706065 L 360.4481533717541 354.330535276341" stroke-miterlimit="10"></path></g></g></svg>