<svg version="1.1" xmlns="http://www.w3.org/2000/svg" xmlns:xlink="http://www.w3.org/1999/xlink" width="1508" height="756"><defs></defs><g><g transform="translate(-98,2) scale(1,1)"><path fill="#ffffff" stroke="none" d="M 195.0709090909091 47.3 C 195.0709090909091 43.82060576 197.9493108130909 41 201.5 41 C 205.0506891869091 41 207.92909090909092 43.82060576 207.92909090909092 47.3 C 207.92909090909092 50.779394239999995 205.0506891869091 53.6 201.5 53.6 C 197.9493108130909 53.6 195.0709090909091 50.779394239999995 195.0709090909091 47.3 Z"></path></g><g transform="translate(-98,2) scale(1,1)"><path fill="none" stroke="#000000" d="M 195.0709090909091 47.3 C 195.0709090909091 43.82060576 197.9493108130909 41 201.5 41 C 205.0506891869091 41 207.92909090909092 43.82060576 207.92909090909092 47.3 C 207.92909090909092 50.779394239999995 205.0506891869091 53.6 201.5 53.6 C 197.9493108130909 53.6 195.0709090909091 50.779394239999995 195.0709090909091 47.3 Z" stroke-miterlimit="10"></path></g><g transform="translate(-98,2) scale(1,1)"><path fill="none" stroke="#000000" d="M 201.5 53.6 L 201.5 66.4" stroke-miterlimit="10"></path></g><g transform="translate(-98,2) scale(1,1)"><path fill="none" stroke="#000000" d="M 194.6927272727273 58.4 L 208.30727272727273 58.4" stroke-miterlimit="10"></path></g><g transform="translate(-98,2) scale(1,1)"><path fill="none" stroke="#000000" d="M 201.5 66.4 L 192.04545454545456 79" stroke-miterlimit="10"></path></g><g transform="translate(-98,2) scale(1,1)"><path fill="none" stroke="#000000" d="M 201.5 66.4 L 210.95454545454547 79" stroke-miterlimit="10"></path></g><g transform="translate(-98,2) scale(1,1)"><g><path fill="none" stroke="none"></path><text fill="#000000" stroke="none" font-family="Arial" font-size="13px" font-style="normal" font-weight="bold" text-decoration="none" x="160" y="99.5">tourist: Tourist</text></g></g><g transform="translate(-98,2) scale(1,1)"><path fill="none" stroke="#000000" d="M 202.5 105 L 202.5 494" stroke-miterlimit="10" stroke-dasharray="3"></path></g><g transform="translate(-98,2) scale(1,1)"><rect fill="#C0C0C0" stroke="none" x="415" y="47" width="163" height="39" opacity="0.2"></rect></g><g transform="translate(-98,2) scale(1,1)"><rect fill="#ffffff" stroke="none" x="408" y="40" width="163" height="39"></rect></g><g transform="translate(-98,2) scale(1,1)"><path fill="none" stroke="#000000" d="M 408 40 L 571 40 L 571 79 L 408 79 L 408 40 Z Z" stroke-miterlimit="10"></path></g><g transform="translate(-98,2) scale(1,1)"><g><path fill="none" stroke="none"></path><text fill="#000000" stroke="none" font-family="Arial" font-size="13px" font-style="normal" font-weight="bold" text-decoration="none" x="423" y="59.5">touristMap: TouristMap</text></g></g><g transform="translate(-98,2) scale(1,1)"><path fill="none" stroke="#000000" d="M 490.5 80 L 490.5 578" stroke-miterlimit="10" stroke-dasharray="3"></path></g><g transform="translate(-98,2) scale(1,1)"><path fill="#ffffff" stroke="none" d="M 1317.5 60 C 1317.5 48.954304 1326.454304 40 1337.5 40 C 1348.545696 40 1357.5 48.954304 1357.5 60 C 1357.5 71.04569599999999 1348.545696 80 1337.5 80 C 1326.454304 80 1317.5 71.04569599999999 1317.5 60 Z"></path></g><g transform="translate(-98,2) scale(1,1)"><path fill="none" stroke="#000000" d="M 1317.5 60 C 1317.5 48.954304 1326.454304 40 1337.5 40 C 1348.545696 40 1357.5 48.954304 1357.5 60 C 1357.5 71.04569599999999 1348.545696 80 1337.5 80 C 1326.454304 80 1317.5 71.04569599999999 1317.5 60 Z" stroke-miterlimit="10"></path></g><g transform="translate(-98,2) scale(1,1)"><g><path fill="none" stroke="none"></path><text fill="#000000" stroke="none" font-family="Arial" font-size="13px" font-style="normal" font-weight="bold" text-decoration="none" x="1199.5" y="99.5">closestPlaceCalculator: ClosestPlaceCalculator</text></g></g><g transform="translate(-98,2) scale(1,1)"><path fill="none" stroke="#000000" d="M 1338.5 105 L 1338.5 634" stroke-miterlimit="10" stroke-dasharray="3"></path></g><g transform="translate(-98,2) scale(1,1)"><rect fill="#C0C0C0" stroke="none" x="623" y="175" width="238" height="39" opacity="0.2"></rect></g><g transform="translate(-98,2) scale(1,1)"><rect fill="#ffffff" stroke="none" x="616" y="168" width="238" height="39"></rect></g><g transform="translate(-98,2) scale(1,1)"><path fill="none" stroke="#000000" d="M 616 168 L 854 168 L 854 207 L 616 207 L 616 168 Z Z" stroke-miterlimit="10"></path></g><g transform="translate(-98,2) scale(1,1)"><g><path fill="none" stroke="none"></path><text fill="#000000" stroke="none" font-family="Arial" font-size="13px" font-style="normal" font-weight="bold" text-decoration="none" x="635" y="187.5">currentUserLocation: UserLocation</text></g></g><g transform="translate(-98,2) scale(1,1)"><path fill="none" stroke="#000000" d="M 736.5 208 L 736.5 673" stroke-miterlimit="10" stroke-dasharray="3"></path></g><g transform="translate(-98,2) scale(1,1)"><path fill="#ffffff" stroke="none" d="M 871 60 C 871 48.954304 879.954304 40 891 40 C 902.045696 40 911 48.954304 911 60 C 911 71.04569599999999 902.045696 80 891 80 C 879.954304 80 871 71.04569599999999 871 60 Z"></path></g><g transform="translate(-98,2) scale(1,1)"><path fill="none" stroke="#000000" d="M 871 60 C 871 48.954304 879.954304 40 891 40 C 902.045696 40 911 48.954304 911 60 C 911 71.04569599999999 902.045696 80 891 80 C 879.954304 80 871 71.04569599999999 871 60 Z" stroke-miterlimit="10"></path></g><g transform="translate(-98,2) scale(1,1)"><g><path fill="none" stroke="none"></path><text fill="#000000" stroke="none" font-family="Arial" font-size="13px" font-style="normal" font-weight="bold" text-decoration="none" x="793" y="99.5">placeRepository: PlaceRepository</text></g></g><g transform="translate(-98,2) scale(1,1)"><path fill="none" stroke="#000000" d="M 892.5 105 L 892.5 399" stroke-miterlimit="10" stroke-dasharray="3"></path></g><g transform="translate(-98,2) scale(1,1)"><rect fill="#C0C0C0" stroke="none" x="1071" y="415" width="155" height="39" opacity="0.2"></rect></g><g transform="translate(-98,2) scale(1,1)"><rect fill="#ffffff" stroke="none" x="1064" y="408" width="155" height="39"></rect></g><g transform="translate(-98,2) scale(1,1)"><path fill="none" stroke="#000000" d="M 1064 408 L 1219 408 L 1219 447 L 1064 447 L 1064 408 Z Z" stroke-miterlimit="10"></path></g><g transform="translate(-98,2) scale(1,1)"><g><path fill="none" stroke="none"></path><text fill="#000000" stroke="none" font-family="Arial" font-size="13px" font-style="normal" font-weight="bold" text-decoration="none" x="1078.5" y="427.5">closestPlaceObserver</text></g></g><g transform="translate(-98,2) scale(1,1)"><path fill="none" stroke="#000000" d="M 1142.5 448 L 1142.5 673" stroke-miterlimit="10" stroke-dasharray="3"></path></g><g transform="translate(-98,2) scale(1,1)"><rect fill="#C0C0C0" stroke="none" x="1023" y="47" width="89" height="39" opacity="0.2"></rect></g><g transform="translate(-98,2) scale(1,1)"><rect fill="#ffffff" stroke="none" x="1016" y="40" width="89" height="39"></rect></g><g transform="translate(-98,2) scale(1,1)"><path fill="none" stroke="#000000" d="M 1016 40 L 1105 40 L 1105 79 L 1016 79 L 1016 40 Z Z" stroke-miterlimit="10"></path></g><g transform="translate(-98,2) scale(1,1)"><g><path fill="none" stroke="none"></path><text fill="#000000" stroke="none" font-family="Arial" font-size="13px" font-style="normal" font-weight="bold" text-decoration="none" x="1028.5" y="59.5">map: JMap</text></g></g><g transform="translate(-98,2) scale(1,1)"><path fill="none" stroke="#000000" d="M 1061.5 80 L 1061.5 630" stroke-miterlimit="10" stroke-dasharray="3"></path></g><g transform="translate(-98,2) scale(1,1)"><path fill="none" stroke="#000000" d="M 108 8 L 1596 8 L 1596 744 L 108 744 L 108 8" stroke-miterlimit="10"></path></g><g transform="translate(-98,2) scale(1,1)"><path fill="#ffffff" stroke="none" d="M 108 8 L 108 30 L 391 30 L 402 19 L 402 8 L 108 8"></path></g><g transform="translate(-98,2) scale(1,1)"><path fill="none" stroke="#000000" d="M 108 8 L 108 30 L 391 30 L 402 19 L 402 8 L 108 8 L 108 8" stroke-miterlimit="10"></path></g><g transform="translate(-98,2) scale(1,1)"><g><path fill="none" stroke="none"></path><text fill="#000000" stroke="none" font-family="Arial" font-size="13px" font-style="normal" font-weight="normal" text-decoration="none" x="179" y="25.5">Closest Location SequenceDiagram</text></g></g><g transform="translate(-98,2) scale(1,1)"><g><path fill="none" stroke="none"></path><text fill="#000000" stroke="none" font-family="Arial" font-size="13px" font-style="normal" font-weight="bold" text-decoration="none" x="113" y="25.5">interaction</text></g></g><g transform="translate(-98,2) scale(1,1)"><path fill="none" stroke="#000000" d="M 202 144 L 232 144 L 232 164 L 208 164" stroke-miterlimit="10"></path></g><g transform="translate(-98,2) scale(1,1)"><path fill="#000000" stroke="none" d="M 218.16267485762415 159.790482243984 L 208 164 L 218.16267485762415 168.209517756016"></path></g><g transform="translate(-98,2) scale(1,1)"><path fill="none" stroke="#000000" d="M 218.16267485762415 159.790482243984 L 208 164 L 218.16267485762415 168.209517756016 L 218.16267485762415 159.790482243984" stroke-miterlimit="10"></path></g><g transform="translate(-98,2) scale(1,1)"><g><path fill="none" stroke="none"></path><text fill="#000000" stroke="none" font-family="Arial" font-size="13px" font-style="normal" font-weight="normal" text-decoration="none" x="187" y="160">1 : specify location</text></g></g><g transform="translate(-98,2) scale(1,1)"><rect fill="#ffffff" stroke="none" x="195" y="164" width="13" height="68"></rect></g><g transform="translate(-98,2) scale(1,1)"><path fill="none" stroke="#000000" d="M 195 164 L 208 164 L 208 232 L 195 232 L 195 164 Z Z" stroke-miterlimit="10"></path></g><g transform="translate(-98,2) scale(1,1)"><path fill="none" stroke="#000000" d="M 208 184 L 483 184" stroke-miterlimit="10"></path></g><g transform="translate(-98,2) scale(1,1)"><path fill="none" stroke="#000000" d="M 472.83732514237585 188.209517756016 L 483 184 L 472.83732514237585 179.790482243984" stroke-miterlimit="10"></path></g><g transform="translate(-98,2) scale(1,1)"><g><path fill="none" stroke="none"></path><text fill="#000000" stroke="none" font-family="Arial" font-size="13px" font-style="normal" font-weight="normal" text-decoration="none" x="271" y="181">2 : specify a user location</text></g></g><g transform="translate(-98,2) scale(1,1)"><rect fill="#ffffff" stroke="none" x="483" y="184" width="13" height="72"></rect></g><g transform="translate(-98,2) scale(1,1)"><path fill="none" stroke="#000000" d="M 483 184 L 496 184 L 496 256 L 483 256 L 483 184 Z Z" stroke-miterlimit="10"></path></g><g transform="translate(-98,2) scale(1,1)"><path fill="none" stroke="#000000" d="M 496 188 L 616 188" stroke-miterlimit="10" stroke-dasharray="3"></path></g><g transform="translate(-98,2) scale(1,1)"><path fill="none" stroke="#000000" d="M 605.8373251423759 192.209517756016 L 616 188 L 605.8373251423758 183.790482243984" stroke-miterlimit="10"></path></g><g transform="translate(-98,2) scale(1,1)"><g><path fill="none" stroke="none"></path><text fill="#000000" stroke="none" font-family="Arial" font-size="13px" font-style="normal" font-weight="normal" text-decoration="none" x="547" y="185">3 : </text></g></g><g transform="translate(-98,2) scale(1,1)"><g><path fill="none" stroke="none"></path><text fill="#000000" stroke="none" font-family="Arial" font-size="13px" font-style="normal" font-weight="normal" text-decoration="none" x="531" y="170">«create»</text></g></g><g transform="translate(-98,2) scale(1,1)"><path fill="none" stroke="#000000" d="M 496 227 L 729 227" stroke-miterlimit="10"></path></g><g transform="translate(-98,2) scale(1,1)"><path fill="#000000" stroke="none" d="M 718.8373251423759 231.209517756016 L 729 227 L 718.8373251423758 222.790482243984"></path></g><g transform="translate(-98,2) scale(1,1)"><path fill="none" stroke="#000000" d="M 718.8373251423759 231.209517756016 L 729 227 L 718.8373251423758 222.790482243984 L 718.8373251423759 231.209517756016" stroke-miterlimit="10"></path></g><g transform="translate(-98,2) scale(1,1)"><g><path fill="none" stroke="none"></path><text fill="#000000" stroke="none" font-family="Arial" font-size="13px" font-style="normal" font-weight="normal" text-decoration="none" x="555" y="224">4 : addOnMap(map)</text></g></g><g transform="translate(-98,2) scale(1,1)"><rect fill="#ffffff" stroke="none" x="729" y="227" width="13" height="28"></rect></g><g transform="translate(-98,2) scale(1,1)"><path fill="none" stroke="#000000" d="M 729 227 L 742 227 L 742 255 L 729 255 L 729 227 Z Z" stroke-miterlimit="10"></path></g><g transform="translate(-98,2) scale(1,1)"><path fill="none" stroke="#000000" d="M 729 249 L 496 249" stroke-miterlimit="10" stroke-dasharray="3"></path></g><g transform="translate(-98,2) scale(1,1)"><path fill="none" stroke="#000000" d="M 506.16267485762415 244.790482243984 L 496 249 L 506.16267485762415 253.209517756016" stroke-miterlimit="10"></path></g><g transform="translate(-98,2) scale(1,1)"><g><path fill="none" stroke="none"></path><text fill="#000000" stroke="none" font-family="Arial" font-size="13px" font-style="normal" font-weight="normal" text-decoration="none" x="602" y="266">5 : </text></g></g><g transform="translate(-98,2) scale(1,1)"><path fill="none" stroke="#000000" d="M 202 320 L 483 320" stroke-miterlimit="10"></path></g><g transform="translate(-98,2) scale(1,1)"><path fill="none" stroke="#000000" d="M 472.83732514237585 324.209517756016 L 483 320 L 472.83732514237585 315.790482243984" stroke-miterlimit="10"></path></g><g transform="translate(-98,2) scale(1,1)"><g><path fill="none" stroke="none"></path><text fill="#000000" stroke="none" font-family="Arial" font-size="13px" font-style="normal" font-weight="normal" text-decoration="none" x="216" y="317">6 : request closest place solving(placeType)</text></g></g><g transform="translate(-98,2) scale(1,1)"><rect fill="#ffffff" stroke="none" x="483" y="320" width="13" height="176"></rect></g><g transform="translate(-98,2) scale(1,1)"><path fill="none" stroke="#000000" d="M 483 320 L 496 320 L 496 496 L 483 496 L 483 320 Z Z" stroke-miterlimit="10"></path></g><g transform="translate(-98,2) scale(1,1)"><path fill="none" stroke="#000000" d="M 496 348 L 885 348" stroke-miterlimit="10"></path></g><g transform="translate(-98,2) scale(1,1)"><path fill="#000000" stroke="none" d="M 874.8373251423759 352.209517756016 L 885 348 L 874.8373251423758 343.790482243984"></path></g><g transform="translate(-98,2) scale(1,1)"><path fill="none" stroke="#000000" d="M 874.8373251423759 352.209517756016 L 885 348 L 874.8373251423758 343.790482243984 L 874.8373251423759 352.209517756016" stroke-miterlimit="10"></path></g><g transform="translate(-98,2) scale(1,1)"><g><path fill="none" stroke="none"></path><text fill="#000000" stroke="none" font-family="Arial" font-size="13px" font-style="normal" font-weight="normal" text-decoration="none" x="542" y="345">7 : places = getPlaces(p -&gt; p is of type  placeType)</text></g></g><g transform="translate(-98,2) scale(1,1)"><rect fill="#ffffff" stroke="none" x="885" y="348" width="13" height="44"></rect></g><g transform="translate(-98,2) scale(1,1)"><path fill="none" stroke="#000000" d="M 885 348 L 898 348 L 898 392 L 885 392 L 885 348 Z Z" stroke-miterlimit="10"></path></g><g transform="translate(-98,2) scale(1,1)"><path fill="none" stroke="#000000" d="M 885 385 L 496 385" stroke-miterlimit="10" stroke-dasharray="3"></path></g><g transform="translate(-98,2) scale(1,1)"><path fill="none" stroke="#000000" d="M 506.16267485762415 380.790482243984 L 496 385 L 506.16267485762415 389.209517756016" stroke-miterlimit="10"></path></g><g transform="translate(-98,2) scale(1,1)"><g><path fill="none" stroke="none"></path><text fill="#000000" stroke="none" font-family="Arial" font-size="13px" font-style="normal" font-weight="normal" text-decoration="none" x="680" y="402">8 : </text></g></g><g transform="translate(-98,2) scale(1,1)"><path fill="none" stroke="#000000" d="M 496 428 L 1064 428" stroke-miterlimit="10" stroke-dasharray="3"></path></g><g transform="translate(-98,2) scale(1,1)"><path fill="none" stroke="#000000" d="M 1053.837325142376 432.209517756016 L 1064 428 L 1053.837325142376 423.790482243984" stroke-miterlimit="10"></path></g><g transform="translate(-98,2) scale(1,1)"><g><path fill="none" stroke="none"></path><text fill="#000000" stroke="none" font-family="Arial" font-size="13px" font-style="normal" font-weight="normal" text-decoration="none" x="771" y="425">9 : </text></g></g><g transform="translate(-98,2) scale(1,1)"><g><path fill="none" stroke="none"></path><text fill="#000000" stroke="none" font-family="Arial" font-size="13px" font-style="normal" font-weight="normal" text-decoration="none" x="755" y="410">«create»</text></g></g><g transform="translate(-98,2) scale(1,1)"><path fill="none" stroke="#000000" d="M 496 476 L 1331 476" stroke-miterlimit="10"></path></g><g transform="translate(-98,2) scale(1,1)"><path fill="#000000" stroke="none" d="M 1320.837325142376 480.209517756016 L 1331 476 L 1320.837325142376 471.790482243984"></path></g><g transform="translate(-98,2) scale(1,1)"><path fill="none" stroke="#000000" d="M 1320.837325142376 480.209517756016 L 1331 476 L 1320.837325142376 471.790482243984 L 1320.837325142376 480.209517756016" stroke-miterlimit="10"></path></g><g transform="translate(-98,2) scale(1,1)"><g><path fill="none" stroke="none"></path><text fill="#000000" stroke="none" font-family="Arial" font-size="13px" font-style="normal" font-weight="normal" text-decoration="none" x="670" y="473">10 : solve(currentUserLocation, places, geodatabaseLocation,  closestPlacObserver)</text></g></g><g transform="translate(-98,2) scale(1,1)"><rect fill="#ffffff" stroke="none" x="1331" y="476" width="13" height="88"></rect></g><g transform="translate(-98,2) scale(1,1)"><path fill="none" stroke="#000000" d="M 1331 476 L 1344 476 L 1344 564 L 1331 564 L 1331 476 Z Z" stroke-miterlimit="10"></path></g><g transform="translate(-98,2) scale(1,1)"><path fill="none" stroke="#000000" d="M 1344 492 L 1374 492 L 1374 512 L 1351 512" stroke-miterlimit="10"></path></g><g transform="translate(-98,2) scale(1,1)"><path fill="#000000" stroke="none" d="M 1361.162674857624 507.790482243984 L 1351 512 L 1361.162674857624 516.209517756016"></path></g><g transform="translate(-98,2) scale(1,1)"><path fill="none" stroke="#000000" d="M 1361.162674857624 507.790482243984 L 1351 512 L 1361.162674857624 516.209517756016 L 1361.162674857624 507.790482243984" stroke-miterlimit="10"></path></g><g transform="translate(-98,2) scale(1,1)"><g><path fill="none" stroke="none"></path><text fill="#000000" stroke="none" font-family="Arial" font-size="13px" font-style="normal" font-weight="normal" text-decoration="none" x="1375" y="508">11 : solve closest place</text></g></g><g transform="translate(-98,2) scale(1,1)"><rect fill="#ffffff" stroke="none" x="1338" y="512" width="13" height="28"></rect></g><g transform="translate(-98,2) scale(1,1)"><path fill="none" stroke="#000000" d="M 1338 512 L 1351 512 L 1351 540 L 1338 540 L 1338 512 Z Z" stroke-miterlimit="10"></path></g><g transform="translate(-98,2) scale(1,1)"><path fill="none" stroke="#000000" d="M 1331 556 L 1148 556" stroke-miterlimit="10"></path></g><g transform="translate(-98,2) scale(1,1)"><path fill="none" stroke="#000000" d="M 1158.162674857624 551.790482243984 L 1148 556 L 1158.162674857624 560.209517756016" stroke-miterlimit="10"></path></g><g transform="translate(-98,2) scale(1,1)"><g><path fill="none" stroke="none"></path><text fill="#000000" stroke="none" font-family="Arial" font-size="13px" font-style="normal" font-weight="normal" text-decoration="none" x="1168" y="572">12 : handle closest place result notification</text></g></g><g transform="translate(-98,2) scale(1,1)"><rect fill="#ffffff" stroke="none" x="1135" y="556" width="13" height="80"></rect></g><g transform="translate(-98,2) scale(1,1)"><path fill="none" stroke="#000000" d="M 1135 556 L 1148 556 L 1148 636 L 1135 636 L 1135 556 Z Z" stroke-miterlimit="10"></path></g><g transform="translate(-98,2) scale(1,1)"><path fill="none" stroke="#000000" d="M 1135 576 L 1067 576" stroke-miterlimit="10"></path></g><g transform="translate(-98,2) scale(1,1)"><path fill="#000000" stroke="none" d="M 1077.162674857624 571.790482243984 L 1067 576 L 1077.162674857624 580.209517756016"></path></g><g transform="translate(-98,2) scale(1,1)"><path fill="none" stroke="#000000" d="M 1077.162674857624 571.790482243984 L 1067 576 L 1077.162674857624 580.209517756016 L 1077.162674857624 571.790482243984" stroke-miterlimit="10"></path></g><g transform="translate(-98,2) scale(1,1)"><g><path fill="none" stroke="none"></path><text fill="#000000" stroke="none" font-family="Arial" font-size="13px" font-style="normal" font-weight="normal" text-decoration="none" x="1072" y="596">13 : add map changes</text></g></g><g transform="translate(-98,2) scale(1,1)"><rect fill="#ffffff" stroke="none" x="1054" y="576" width="13" height="40"></rect></g><g transform="translate(-98,2) scale(1,1)"><path fill="none" stroke="#000000" d="M 1054 576 L 1067 576 L 1067 616 L 1054 616 L 1054 576 Z Z" stroke-miterlimit="10"></path></g><g transform="translate(-98,2) scale(1,1)"><path fill="none" stroke="#000000" d="M 1067 610 L 1135 610" stroke-miterlimit="10" stroke-dasharray="3"></path></g><g transform="translate(-98,2) scale(1,1)"><path fill="none" stroke="#000000" d="M 1124.837325142376 614.209517756016 L 1135 610 L 1124.837325142376 605.790482243984" stroke-miterlimit="10"></path></g><g transform="translate(-98,2) scale(1,1)"><g><path fill="none" stroke="none"></path><text fill="#000000" stroke="none" font-family="Arial" font-size="13px" font-style="normal" font-weight="normal" text-decoration="none" x="1088" y="607">14 : </text></g></g><g transform="translate(-98,2) scale(1,1)"><path fill="none" stroke="#000000" d="M 1135 628 L 742 628" stroke-miterlimit="10"></path></g><g transform="translate(-98,2) scale(1,1)"><path fill="#000000" stroke="none" d="M 752.1626748576241 623.790482243984 L 742 628 L 752.1626748576241 632.209517756016"></path></g><g transform="translate(-98,2) scale(1,1)"><path fill="none" stroke="#000000" d="M 752.1626748576241 623.790482243984 L 742 628 L 752.1626748576241 632.209517756016 L 752.1626748576241 623.790482243984" stroke-miterlimit="10"></path></g><g transform="translate(-98,2) scale(1,1)"><path fill="none" stroke="#000000" d="M 726 663 L 746 683" stroke-miterlimit="10"></path></g><g transform="translate(-98,2) scale(1,1)"><path fill="none" stroke="#000000" d="M 746 663 L 726 683" stroke-miterlimit="10"></path></g><g transform="translate(-98,2) scale(1,1)"><g><path fill="none" stroke="none"></path><text fill="#000000" stroke="none" font-family="Arial" font-size="13px" font-style="normal" font-weight="normal" text-decoration="none" x="838" y="645">15 : destroys current user location</text></g></g><g transform="translate(-98,2) scale(1,1)"><g><path fill="none" stroke="none"></path><text fill="#000000" stroke="none" font-family="Arial" font-size="13px" font-style="normal" font-weight="normal" text-decoration="none" x="909" y="660">«destroy»</text></g></g><g transform="translate(-98,2) scale(1,1)"><rect fill="#ffffff" stroke="none" x="729" y="628" width="13" height="28"></rect></g><g transform="translate(-98,2) scale(1,1)"><path fill="none" stroke="#000000" d="M 729 628 L 742 628 L 742 656 L 729 656 L 729 628 Z Z" stroke-miterlimit="10"></path></g></g></svg>