<svg version="1.1" xmlns="http://www.w3.org/2000/svg" xmlns:xlink="http://www.w3.org/1999/xlink" width="1076" height="434"><defs></defs><g><g transform="translate(-314,-74) scale(1,1)"><rect fill="#C0C0C0" stroke="none" x="431" y="315" width="548" height="190" opacity="0.2"></rect></g><g transform="translate(-314,-74) scale(1,1)"><rect fill="#ffffff" stroke="none" x="424" y="308" width="548" height="190"></rect></g><g transform="translate(-314,-74) scale(1,1)"><path fill="none" stroke="#000000" d="M 424 308 L 972 308 L 972 498 L 424 498 L 424 308 Z Z" stroke-miterlimit="10"></path></g><g transform="translate(-314,-74) scale(1,1)"><path fill="none" stroke="#000000" d="M 424 333 L 972 333" stroke-miterlimit="10"></path></g><g transform="translate(-314,-74) scale(1,1)"><path fill="none" stroke="#000000" d="M 424 386 L 972 386" stroke-miterlimit="10"></path></g><g transform="translate(-314,-74) scale(1,1)"><g><path fill="none" stroke="none"></path><text fill="#000000" stroke="none" font-family="Arial" font-size="13px" font-style="italic" font-weight="bold" text-decoration="none" x="681.5" y="327.5">Place</text></g></g><g transform="translate(-314,-74) scale(1,1)"><g><path fill="none" stroke="none"></path><text fill="#000000" stroke="none" font-family="Arial" font-size="13px" font-style="normal" font-weight="normal" text-decoration="none" x="429" y="350.5">-iconImageLocation: String[1]</text></g></g><g transform="translate(-314,-74) scale(1,1)"><g><path fill="none" stroke="none"></path><text fill="#000000" stroke="none" font-family="Arial" font-size="13px" font-style="normal" font-weight="normal" text-decoration="none" x="429" y="365.5">-placeImageLocations: String[0..*]</text></g></g><g transform="translate(-314,-74) scale(1,1)"><g><path fill="none" stroke="none"></path><text fill="#000000" stroke="none" font-family="Arial" font-size="13px" font-style="normal" font-weight="normal" text-decoration="none" x="429" y="380.5">-name: String[1]</text></g></g><g transform="translate(-314,-74) scale(1,1)"><g><path fill="none" stroke="none"></path><text fill="#000000" stroke="none" font-family="Arial" font-size="13px" font-style="normal" font-weight="normal" text-decoration="none" x="429" y="403.5">«Create»+Place(name: String, iconImageLocation: String, latitude: Double, longitude: Double)</text></g></g><g transform="translate(-314,-74) scale(1,1)"><g><path fill="none" stroke="none"></path><text fill="#000000" stroke="none" font-family="Arial" font-size="13px" font-style="normal" font-weight="normal" text-decoration="none" x="429" y="418.5">#getIconImageLocation(): String</text></g></g><g transform="translate(-314,-74) scale(1,1)"><g><path fill="none" stroke="none"></path><text fill="#000000" stroke="none" font-family="Arial" font-size="13px" font-style="normal" font-weight="normal" text-decoration="none" x="429" y="433.5">#getPlaceImageLocations(): String[0..*]</text></g></g><g transform="translate(-314,-74) scale(1,1)"><g><path fill="none" stroke="none"></path><text fill="#000000" stroke="none" font-family="Arial" font-size="13px" font-style="normal" font-weight="normal" text-decoration="none" x="429" y="448.5">+addPlaceImageLocation(placeImageLocation: String)</text></g></g><g transform="translate(-314,-74) scale(1,1)"><g><path fill="none" stroke="none"></path><text fill="#000000" stroke="none" font-family="Arial" font-size="13px" font-style="normal" font-weight="normal" text-decoration="none" x="429" y="463.5">+getName(): String</text></g></g><g transform="translate(-314,-74) scale(1,1)"><g><path fill="none" stroke="none"></path><text fill="#000000" stroke="none" font-family="Arial" font-size="13px" font-style="italic" font-weight="normal" text-decoration="none" x="429" y="478.5">#getDescription(): String</text></g></g><g transform="translate(-314,-74) scale(1,1)"><g><path fill="none" stroke="none"></path><text fill="#000000" stroke="none" font-family="Arial" font-size="13px" font-style="normal" font-weight="normal" text-decoration="none" x="429" y="493.5">+addOnMap(map: JMap)</text></g></g><g transform="translate(-314,-74) scale(1,1)"><path fill="#C0C0C0" stroke="none" d="M 362.5 326.5 C 362.5 320.1487248 367.6487248 315 374 315 C 380.3512752 315 385.5 320.1487248 385.5 326.5 C 385.5 332.8512752 380.3512752 338 374 338 C 367.6487248 338 362.5 332.8512752 362.5 326.5 Z" opacity="0.2"></path></g><g transform="translate(-314,-74) scale(1,1)"><path fill="#ffffff" stroke="none" d="M 355.5 319.5 C 355.5 313.1487248 360.6487248 308 367 308 C 373.3512752 308 378.5 313.1487248 378.5 319.5 C 378.5 325.8512752 373.3512752 331 367 331 C 360.6487248 331 355.5 325.8512752 355.5 319.5 Z"></path></g><g transform="translate(-314,-74) scale(1,1)"><path fill="none" stroke="#000000" d="M 355.5 319.5 C 355.5 313.1487248 360.6487248 308 367 308 C 373.3512752 308 378.5 313.1487248 378.5 319.5 C 378.5 325.8512752 373.3512752 331 367 331 C 360.6487248 331 355.5 325.8512752 355.5 319.5 Z" stroke-miterlimit="10"></path></g><g transform="translate(-314,-74) scale(1,1)"><g><path fill="none" stroke="none"></path><text fill="#000000" stroke="none" font-family="Arial" font-size="13px" font-style="normal" font-weight="bold" text-decoration="none" x="333.5" y="350.5">Serializable</text></g></g><g transform="translate(-314,-74) scale(1,1)"><g><path fill="none" stroke="none"></path><text fill="#000000" stroke="none" font-family="Arial" font-size="13px" font-style="normal" font-weight="normal" text-decoration="none" x="343.5" y="365.5">(from io)</text></g></g><g transform="translate(-314,-74) scale(1,1)"><path fill="none" stroke="#000000" d="M 424 319 L 378.5 319" stroke-miterlimit="10"></path></g><g transform="translate(-314,-74) scale(1,1)"><rect fill="#C0C0C0" stroke="none" x="555" y="91" width="570" height="130" opacity="0.2"></rect></g><g transform="translate(-314,-74) scale(1,1)"><rect fill="#ffffff" stroke="none" x="548" y="84" width="570" height="130"></rect></g><g transform="translate(-314,-74) scale(1,1)"><path fill="none" stroke="#000000" d="M 548 84 L 1118 84 L 1118 214 L 548 214 L 548 84 Z Z" stroke-miterlimit="10"></path></g><g transform="translate(-314,-74) scale(1,1)"><path fill="none" stroke="#000000" d="M 548 109 L 1118 109" stroke-miterlimit="10"></path></g><g transform="translate(-314,-74) scale(1,1)"><path fill="none" stroke="#000000" d="M 548 147 L 1118 147" stroke-miterlimit="10"></path></g><g transform="translate(-314,-74) scale(1,1)"><g><path fill="none" stroke="none"></path><text fill="#000000" stroke="none" font-family="Arial" font-size="13px" font-style="italic" font-weight="bold" text-decoration="none" x="806" y="103.5">MapPoint</text></g></g><g transform="translate(-314,-74) scale(1,1)"><g><path fill="none" stroke="none"></path><text fill="#000000" stroke="none" font-family="Arial" font-size="13px" font-style="normal" font-weight="normal" text-decoration="none" x="553" y="126.5">#latitude: Double[1]</text></g></g><g transform="translate(-314,-74) scale(1,1)"><g><path fill="none" stroke="none"></path><text fill="#000000" stroke="none" font-family="Arial" font-size="13px" font-style="normal" font-weight="normal" text-decoration="none" x="553" y="141.5">#longitude: Double[1]</text></g></g><g transform="translate(-314,-74) scale(1,1)"><g><path fill="none" stroke="none"></path><text fill="#000000" stroke="none" font-family="Arial" font-size="13px" font-style="normal" font-weight="normal" text-decoration="none" x="553" y="164.5">«Create»+MapPoint(latitude: Double, longitude: Double)</text></g></g><g transform="translate(-314,-74) scale(1,1)"><g><path fill="none" stroke="none"></path><text fill="#000000" stroke="none" font-family="Arial" font-size="13px" font-style="normal" font-weight="normal" text-decoration="none" x="553" y="179.5">+getLatitude(): Double</text></g></g><g transform="translate(-314,-74) scale(1,1)"><g><path fill="none" stroke="none"></path><text fill="#000000" stroke="none" font-family="Arial" font-size="13px" font-style="normal" font-weight="normal" text-decoration="none" x="553" y="194.5">+getLongitude(): Double</text></g></g><g transform="translate(-314,-74) scale(1,1)"><g><path fill="none" stroke="none"></path><text fill="#000000" stroke="none" font-family="Arial" font-size="13px" font-style="italic" font-weight="normal" text-decoration="none" x="553" y="209.5">+addOnMap(map: JMap)</text></g></g><g transform="translate(-314,-74) scale(1,1)"><rect fill="#C0C0C0" stroke="none" x="1235" y="311" width="152" height="47" opacity="0.2"></rect></g><g transform="translate(-314,-74) scale(1,1)"><rect fill="#ffffff" stroke="none" x="1228" y="304" width="152" height="47"></rect></g><g transform="translate(-314,-74) scale(1,1)"><path fill="none" stroke="#000000" d="M 1228 304 L 1380 304 L 1380 351 L 1228 351 L 1228 304 Z Z" stroke-miterlimit="10"></path></g><g transform="translate(-314,-74) scale(1,1)"><path fill="none" stroke="#000000" d="M 1228 329 L 1380 329" stroke-miterlimit="10"></path></g><g transform="translate(-314,-74) scale(1,1)"><g><path fill="none" stroke="none"></path><text fill="#000000" stroke="none" font-family="Arial" font-size="13px" font-style="normal" font-weight="bold" text-decoration="none" x="1266" y="323.5">UserLocation</text></g></g><g transform="translate(-314,-74) scale(1,1)"><g><path fill="none" stroke="none"></path><text fill="#000000" stroke="none" font-family="Arial" font-size="13px" font-style="normal" font-weight="normal" text-decoration="none" x="1233" y="346.5">+addOnMap(map: JMap)</text></g></g><g transform="translate(-314,-74) scale(1,1)"><path fill="none" stroke="#000000" d="M 798 308 L 798 214" stroke-miterlimit="10"></path></g><g transform="translate(-314,-74) scale(1,1)"><path fill="#FFFFFF" stroke="none" d="M 806.419035512032 234.3253497152483 L 798 214 L 789.580964487968 234.3253497152483"></path></g><g transform="translate(-314,-74) scale(1,1)"><path fill="none" stroke="#000000" d="M 806.419035512032 234.3253497152483 L 798 214 L 789.580964487968 234.3253497152483 L 806.419035512032 234.3253497152483" stroke-miterlimit="10"></path></g><g transform="translate(-314,-74) scale(1,1)"><path fill="none" stroke="#000000" d="M 1280 304 L 1280 124 L 1118 124" stroke-miterlimit="10"></path></g><g transform="translate(-314,-74) scale(1,1)"><path fill="#FFFFFF" stroke="none" d="M 1138.3253497152482 115.58096448796803 L 1118 124 L 1138.3253497152482 132.41903551203197"></path></g><g transform="translate(-314,-74) scale(1,1)"><path fill="none" stroke="#000000" d="M 1138.3253497152482 115.58096448796803 L 1118 124 L 1138.3253497152482 132.41903551203197 L 1138.3253497152482 115.58096448796803" stroke-miterlimit="10"></path></g></g></svg>