<svg version="1.1" xmlns="http://www.w3.org/2000/svg" xmlns:xlink="http://www.w3.org/1999/xlink" width="1624" height="764"><defs></defs><g><g transform="translate(-90,6) scale(1,1)"><path fill="none" stroke="#000000" d="M 100 4 L 1704 4 L 1704 748 L 100 748 L 100 4" stroke-miterlimit="10"></path></g><g transform="translate(-90,6) scale(1,1)"><path fill="#ffffff" stroke="none" d="M 100 4 L 100 26 L 330 26 L 341 15 L 341 4 L 100 4"></path></g><g transform="translate(-90,6) scale(1,1)"><path fill="none" stroke="#000000" d="M 100 4 L 100 26 L 330 26 L 341 15 L 341 4 L 100 4 L 100 4" stroke-miterlimit="10"></path></g><g transform="translate(-90,6) scale(1,1)"><g><path fill="none" stroke="none"></path><text fill="#000000" stroke="none" font-family="Arial" font-size="13px" font-style="normal" font-weight="normal" text-decoration="none" x="171" y="21.5">Routing SequenceDiagram</text></g></g><g transform="translate(-90,6) scale(1,1)"><g><path fill="none" stroke="none"></path><text fill="#000000" stroke="none" font-family="Arial" font-size="13px" font-style="normal" font-weight="bold" text-decoration="none" x="105" y="21.5">interaction</text></g></g><g transform="translate(-90,6) scale(1,1)"><path fill="#ffffff" stroke="none" d="M 291.0709090909091 47.3 C 291.0709090909091 43.82060576 293.9493108130909 41 297.5 41 C 301.0506891869091 41 303.929090909091 43.82060576 303.929090909091 47.3 C 303.929090909091 50.779394239999995 301.0506891869091 53.6 297.5 53.6 C 293.9493108130909 53.6 291.0709090909091 50.779394239999995 291.0709090909091 47.3 Z"></path></g><g transform="translate(-90,6) scale(1,1)"><path fill="none" stroke="#000000" d="M 291.0709090909091 47.3 C 291.0709090909091 43.82060576 293.9493108130909 41 297.5 41 C 301.0506891869091 41 303.929090909091 43.82060576 303.929090909091 47.3 C 303.929090909091 50.779394239999995 301.0506891869091 53.6 297.5 53.6 C 293.9493108130909 53.6 291.0709090909091 50.779394239999995 291.0709090909091 47.3 Z" stroke-miterlimit="10"></path></g><g transform="translate(-90,6) scale(1,1)"><path fill="none" stroke="#000000" d="M 297.5 53.6 L 297.5 66.4" stroke-miterlimit="10"></path></g><g transform="translate(-90,6) scale(1,1)"><path fill="none" stroke="#000000" d="M 290.69272727272727 58.4 L 304.3072727272728 58.4" stroke-miterlimit="10"></path></g><g transform="translate(-90,6) scale(1,1)"><path fill="none" stroke="#000000" d="M 297.5 66.4 L 288.04545454545456 79" stroke-miterlimit="10"></path></g><g transform="translate(-90,6) scale(1,1)"><path fill="none" stroke="#000000" d="M 297.5 66.4 L 306.9545454545455 79" stroke-miterlimit="10"></path></g><g transform="translate(-90,6) scale(1,1)"><g><path fill="none" stroke="none"></path><text fill="#000000" stroke="none" font-family="Arial" font-size="13px" font-style="normal" font-weight="bold" text-decoration="none" x="256" y="99.5">tourist: Tourist</text></g></g><g transform="translate(-90,6) scale(1,1)"><path fill="none" stroke="#000000" d="M 298.5 105 L 298.5 596" stroke-miterlimit="10" stroke-dasharray="3"></path></g><g transform="translate(-90,6) scale(1,1)"><rect fill="#C0C0C0" stroke="none" x="399" y="47" width="163" height="39" opacity="0.2"></rect></g><g transform="translate(-90,6) scale(1,1)"><rect fill="#ffffff" stroke="none" x="392" y="40" width="163" height="39"></rect></g><g transform="translate(-90,6) scale(1,1)"><path fill="none" stroke="#000000" d="M 392 40 L 555 40 L 555 79 L 392 79 L 392 40 Z Z" stroke-miterlimit="10"></path></g><g transform="translate(-90,6) scale(1,1)"><g><path fill="none" stroke="none"></path><text fill="#000000" stroke="none" font-family="Arial" font-size="13px" font-style="normal" font-weight="bold" text-decoration="none" x="407" y="59.5">touristMap: TouristMap</text></g></g><g transform="translate(-90,6) scale(1,1)"><path fill="none" stroke="#000000" d="M 474.5 80 L 474.5 606" stroke-miterlimit="10" stroke-dasharray="3"></path></g><g transform="translate(-90,6) scale(1,1)"><rect fill="#C0C0C0" stroke="none" x="791" y="243" width="224" height="39" opacity="0.2"></rect></g><g transform="translate(-90,6) scale(1,1)"><path fill="none" stroke="#000000" d="M 789 241 L 1013 241 L 1013 280 L 789 280 L 789 241 Z Z" stroke-miterlimit="10"></path></g><g transform="translate(-90,6) scale(1,1)"><rect fill="#ffffff" stroke="none" x="784" y="236" width="224" height="39"></rect></g><g transform="translate(-90,6) scale(1,1)"><path fill="none" stroke="#000000" d="M 784 236 L 1008 236 L 1008 275 L 784 275 L 784 236 Z Z" stroke-miterlimit="10"></path></g><g transform="translate(-90,6) scale(1,1)"><g><path fill="none" stroke="none"></path><text fill="#000000" stroke="none" font-family="Arial" font-size="13px" font-style="normal" font-weight="bold" text-decoration="none" x="821.5" y="255.5">stops[stop]: UserLocation</text></g></g><g transform="translate(-90,6) scale(1,1)"><path fill="none" stroke="#000000" d="M 897.5 276 L 897.5 538" stroke-miterlimit="10" stroke-dasharray="3"></path></g><g transform="translate(-90,6) scale(1,1)"><path fill="#ffffff" stroke="none" d="M 1300.5 60 C 1300.5 48.954304 1309.454304 40 1320.5 40 C 1331.545696 40 1340.5 48.954304 1340.5 60 C 1340.5 71.04569599999999 1331.545696 80 1320.5 80 C 1309.454304 80 1300.5 71.04569599999999 1300.5 60 Z"></path></g><g transform="translate(-90,6) scale(1,1)"><path fill="none" stroke="#000000" d="M 1300.5 60 C 1300.5 48.954304 1309.454304 40 1320.5 40 C 1331.545696 40 1340.5 48.954304 1340.5 60 C 1340.5 71.04569599999999 1331.545696 80 1320.5 80 C 1309.454304 80 1300.5 71.04569599999999 1300.5 60 Z" stroke-miterlimit="10"></path></g><g transform="translate(-90,6) scale(1,1)"><g><path fill="none" stroke="none"></path><text fill="#000000" stroke="none" font-family="Arial" font-size="13px" font-style="normal" font-weight="bold" text-decoration="none" x="1217" y="99.5">routingCalculator: RoutingCalculator</text></g></g><g transform="translate(-90,6) scale(1,1)"><path fill="none" stroke="#000000" d="M 1321.5 105 L 1321.5 610" stroke-miterlimit="10" stroke-dasharray="3"></path></g><g transform="translate(-90,6) scale(1,1)"><rect fill="#C0C0C0" stroke="none" x="1127" y="395" width="121" height="39" opacity="0.2"></rect></g><g transform="translate(-90,6) scale(1,1)"><rect fill="#ffffff" stroke="none" x="1120" y="388" width="121" height="39"></rect></g><g transform="translate(-90,6) scale(1,1)"><path fill="none" stroke="#000000" d="M 1120 388 L 1241 388 L 1241 427 L 1120 427 L 1120 388 Z Z" stroke-miterlimit="10"></path></g><g transform="translate(-90,6) scale(1,1)"><g><path fill="none" stroke="none"></path><text fill="#000000" stroke="none" font-family="Arial" font-size="13px" font-style="normal" font-weight="bold" text-decoration="none" x="1135.5" y="407.5">routingObserver</text></g></g><g transform="translate(-90,6) scale(1,1)"><path fill="none" stroke="#000000" d="M 1181.5 428 L 1181.5 648" stroke-miterlimit="10" stroke-dasharray="3"></path></g><g transform="translate(-90,6) scale(1,1)"><rect fill="#C0C0C0" stroke="none" x="1003" y="47" width="89" height="39" opacity="0.2"></rect></g><g transform="translate(-90,6) scale(1,1)"><rect fill="#ffffff" stroke="none" x="996" y="40" width="89" height="39"></rect></g><g transform="translate(-90,6) scale(1,1)"><path fill="none" stroke="#000000" d="M 996 40 L 1085 40 L 1085 79 L 996 79 L 996 40 Z Z" stroke-miterlimit="10"></path></g><g transform="translate(-90,6) scale(1,1)"><g><path fill="none" stroke="none"></path><text fill="#000000" stroke="none" font-family="Arial" font-size="13px" font-style="normal" font-weight="bold" text-decoration="none" x="1008.5" y="59.5">map: JMap</text></g></g><g transform="translate(-90,6) scale(1,1)"><path fill="none" stroke="#000000" d="M 1041.5 80 L 1041.5 664" stroke-miterlimit="10" stroke-dasharray="3"></path></g><g transform="translate(-90,6) scale(1,1)"><path fill="none" stroke="#000000" d="M 140 208 L 1056 208 L 1056 348 L 140 348 L 140 208" stroke-miterlimit="10"></path></g><g transform="translate(-90,6) scale(1,1)"><path fill="#ffffff" stroke="none" d="M 140 208 L 140 230 L 262 230 L 273 219 L 273 208 L 140 208"></path></g><g transform="translate(-90,6) scale(1,1)"><path fill="none" stroke="#000000" d="M 140 208 L 140 230 L 262 230 L 273 219 L 273 208 L 140 208 L 140 208" stroke-miterlimit="10"></path></g><g transform="translate(-90,6) scale(1,1)"><g><path fill="none" stroke="none"></path><text fill="#000000" stroke="none" font-family="Arial" font-size="13px" font-style="normal" font-weight="normal" text-decoration="none" x="175" y="225.5">stops creation</text></g></g><g transform="translate(-90,6) scale(1,1)"><g><path fill="none" stroke="none"></path><text fill="#000000" stroke="none" font-family="Arial" font-size="13px" font-style="normal" font-weight="bold" text-decoration="none" x="145" y="225.5">loop</text></g></g><g transform="translate(-90,6) scale(1,1)"><path fill="none" stroke="#000000" d="M 298 172 L 328 172 L 328 192 L 304 192" stroke-miterlimit="10"></path></g><g transform="translate(-90,6) scale(1,1)"><path fill="#000000" stroke="none" d="M 314.16267485762415 187.790482243984 L 304 192 L 314.16267485762415 196.209517756016"></path></g><g transform="translate(-90,6) scale(1,1)"><path fill="none" stroke="#000000" d="M 314.16267485762415 187.790482243984 L 304 192 L 314.16267485762415 196.209517756016 L 314.16267485762415 187.790482243984" stroke-miterlimit="10"></path></g><g transform="translate(-90,6) scale(1,1)"><g><path fill="none" stroke="none"></path><text fill="#000000" stroke="none" font-family="Arial" font-size="13px" font-style="normal" font-weight="normal" text-decoration="none" x="331" y="185">1 : specifyRoute()</text></g></g><g transform="translate(-90,6) scale(1,1)"><rect fill="#ffffff" stroke="none" x="291" y="192" width="13" height="172"></rect></g><g transform="translate(-90,6) scale(1,1)"><path fill="none" stroke="#000000" d="M 291 192 L 304 192 L 304 364 L 291 364 L 291 192 Z Z" stroke-miterlimit="10"></path></g><g transform="translate(-90,6) scale(1,1)"><path fill="none" stroke="#000000" d="M 304 236 L 467 236" stroke-miterlimit="10"></path></g><g transform="translate(-90,6) scale(1,1)"><path fill="none" stroke="#000000" d="M 456.83732514237585 240.209517756016 L 467 236 L 456.83732514237585 231.790482243984" stroke-miterlimit="10"></path></g><g transform="translate(-90,6) scale(1,1)"><g><path fill="none" stroke="none"></path><text fill="#000000" stroke="none" font-family="Arial" font-size="13px" font-style="normal" font-weight="normal" text-decoration="none" x="316" y="235">2 : specify a user location</text></g></g><g transform="translate(-90,6) scale(1,1)"><rect fill="#ffffff" stroke="none" x="467" y="236" width="13" height="80"></rect></g><g transform="translate(-90,6) scale(1,1)"><path fill="none" stroke="#000000" d="M 467 236 L 480 236 L 480 316 L 467 316 L 467 236 Z Z" stroke-miterlimit="10"></path></g><g transform="translate(-90,6) scale(1,1)"><path fill="none" stroke="#000000" d="M 480 256 L 784 256" stroke-miterlimit="10" stroke-dasharray="3"></path></g><g transform="translate(-90,6) scale(1,1)"><path fill="none" stroke="#000000" d="M 773.8373251423759 260.209517756016 L 784 256 L 773.8373251423758 251.790482243984" stroke-miterlimit="10"></path></g><g transform="translate(-90,6) scale(1,1)"><g><path fill="none" stroke="none"></path><text fill="#000000" stroke="none" font-family="Arial" font-size="13px" font-style="normal" font-weight="normal" text-decoration="none" x="492" y="253">3 : MapPoint(latitude: Double, longitude: Double)</text></g></g><g transform="translate(-90,6) scale(1,1)"><g><path fill="none" stroke="none"></path><text fill="#000000" stroke="none" font-family="Arial" font-size="13px" font-style="normal" font-weight="normal" text-decoration="none" x="607" y="238">«create»</text></g></g><g transform="translate(-90,6) scale(1,1)"><path fill="none" stroke="#000000" d="M 467 308 L 304 308" stroke-miterlimit="10" stroke-dasharray="3"></path></g><g transform="translate(-90,6) scale(1,1)"><path fill="none" stroke="#000000" d="M 314.16267485762415 303.790482243984 L 304 308 L 314.16267485762415 312.209517756016" stroke-miterlimit="10"></path></g><g transform="translate(-90,6) scale(1,1)"><g><path fill="none" stroke="none"></path><text fill="#000000" stroke="none" font-family="Arial" font-size="13px" font-style="normal" font-weight="normal" text-decoration="none" x="375" y="325">4 : </text></g></g><g transform="translate(-90,6) scale(1,1)"><path fill="none" stroke="#000000" d="M 298 396 L 467 396" stroke-miterlimit="10"></path></g><g transform="translate(-90,6) scale(1,1)"><path fill="none" stroke="#000000" d="M 456.83732514237585 400.209517756016 L 467 396 L 456.83732514237585 391.790482243984" stroke-miterlimit="10"></path></g><g transform="translate(-90,6) scale(1,1)"><g><path fill="none" stroke="none"></path><text fill="#000000" stroke="none" font-family="Arial" font-size="13px" font-style="normal" font-weight="normal" text-decoration="none" x="313" y="393">5 : request route solving</text></g></g><g transform="translate(-90,6) scale(1,1)"><rect fill="#ffffff" stroke="none" x="467" y="396" width="13" height="180"></rect></g><g transform="translate(-90,6) scale(1,1)"><path fill="none" stroke="#000000" d="M 467 396 L 480 396 L 480 576 L 467 576 L 467 396 Z Z" stroke-miterlimit="10"></path></g><g transform="translate(-90,6) scale(1,1)"><path fill="none" stroke="#000000" d="M 480 408 L 1120 408" stroke-miterlimit="10" stroke-dasharray="3"></path></g><g transform="translate(-90,6) scale(1,1)"><path fill="none" stroke="#000000" d="M 1109.837325142376 412.209517756016 L 1120 408 L 1109.837325142376 403.790482243984" stroke-miterlimit="10"></path></g><g transform="translate(-90,6) scale(1,1)"><g><path fill="none" stroke="none"></path><text fill="#000000" stroke="none" font-family="Arial" font-size="13px" font-style="normal" font-weight="normal" text-decoration="none" x="791" y="405">6 : </text></g></g><g transform="translate(-90,6) scale(1,1)"><g><path fill="none" stroke="none"></path><text fill="#000000" stroke="none" font-family="Arial" font-size="13px" font-style="normal" font-weight="normal" text-decoration="none" x="775" y="390">«create»</text></g></g><g transform="translate(-90,6) scale(1,1)"><path fill="none" stroke="#000000" d="M 480 460 L 1314 460" stroke-miterlimit="10"></path></g><g transform="translate(-90,6) scale(1,1)"><path fill="#000000" stroke="none" d="M 1303.837325142376 464.209517756016 L 1314 460 L 1303.837325142376 455.790482243984"></path></g><g transform="translate(-90,6) scale(1,1)"><path fill="none" stroke="#000000" d="M 1303.837325142376 464.209517756016 L 1314 460 L 1303.837325142376 455.790482243984 L 1303.837325142376 464.209517756016" stroke-miterlimit="10"></path></g><g transform="translate(-90,6) scale(1,1)"><g><path fill="none" stroke="none"></path><text fill="#000000" stroke="none" font-family="Arial" font-size="13px" font-style="normal" font-weight="normal" text-decoration="none" x="724" y="457">7 : solve(stops, geodatabaseLocation, &lt;&lt;create&gt;&gt;Observer)</text></g></g><g transform="translate(-90,6) scale(1,1)"><rect fill="#ffffff" stroke="none" x="1314" y="460" width="13" height="76"></rect></g><g transform="translate(-90,6) scale(1,1)"><path fill="none" stroke="#000000" d="M 1314 460 L 1327 460 L 1327 536 L 1314 536 L 1314 460 Z Z" stroke-miterlimit="10"></path></g><g transform="translate(-90,6) scale(1,1)"><path fill="none" stroke="#000000" d="M 1327 468 L 1357 468 L 1357 488 L 1334 488" stroke-miterlimit="10"></path></g><g transform="translate(-90,6) scale(1,1)"><path fill="#000000" stroke="none" d="M 1344.162674857624 483.790482243984 L 1334 488 L 1344.162674857624 492.209517756016"></path></g><g transform="translate(-90,6) scale(1,1)"><path fill="none" stroke="#000000" d="M 1344.162674857624 483.790482243984 L 1334 488 L 1344.162674857624 492.209517756016 L 1344.162674857624 483.790482243984" stroke-miterlimit="10"></path></g><g transform="translate(-90,6) scale(1,1)"><g><path fill="none" stroke="none"></path><text fill="#000000" stroke="none" font-family="Arial" font-size="13px" font-style="normal" font-weight="normal" text-decoration="none" x="1367" y="485">8 : solve routing</text></g></g><g transform="translate(-90,6) scale(1,1)"><rect fill="#ffffff" stroke="none" x="1321" y="488" width="13" height="28"></rect></g><g transform="translate(-90,6) scale(1,1)"><path fill="none" stroke="#000000" d="M 1321 488 L 1334 488 L 1334 516 L 1321 516 L 1321 488 Z Z" stroke-miterlimit="10"></path></g><g transform="translate(-90,6) scale(1,1)"><path fill="none" stroke="#000000" d="M 480 496 L 890 496" stroke-miterlimit="10"></path></g><g transform="translate(-90,6) scale(1,1)"><path fill="#000000" stroke="none" d="M 879.8373251423759 500.209517756016 L 890 496 L 879.8373251423758 491.790482243984"></path></g><g transform="translate(-90,6) scale(1,1)"><path fill="none" stroke="#000000" d="M 879.8373251423759 500.209517756016 L 890 496 L 879.8373251423758 491.790482243984 L 879.8373251423759 500.209517756016" stroke-miterlimit="10"></path></g><g transform="translate(-90,6) scale(1,1)"><path fill="none" stroke="#000000" d="M 887 528 L 907 548" stroke-miterlimit="10"></path></g><g transform="translate(-90,6) scale(1,1)"><path fill="none" stroke="#000000" d="M 907 528 L 887 548" stroke-miterlimit="10"></path></g><g transform="translate(-90,6) scale(1,1)"><g><path fill="none" stroke="none"></path><text fill="#000000" stroke="none" font-family="Arial" font-size="13px" font-style="normal" font-weight="normal" text-decoration="none" x="611" y="493">9 : destroys current stops</text></g></g><g transform="translate(-90,6) scale(1,1)"><g><path fill="none" stroke="none"></path><text fill="#000000" stroke="none" font-family="Arial" font-size="13px" font-style="normal" font-weight="normal" text-decoration="none" x="657" y="478">«destroy»</text></g></g><g transform="translate(-90,6) scale(1,1)"><rect fill="#ffffff" stroke="none" x="890" y="496" width="13" height="28"></rect></g><g transform="translate(-90,6) scale(1,1)"><path fill="none" stroke="#000000" d="M 890 496 L 903 496 L 903 524 L 890 524 L 890 496 Z Z" stroke-miterlimit="10"></path></g><g transform="translate(-90,6) scale(1,1)"><path fill="none" stroke="#000000" d="M 1314 528 L 1187 528" stroke-miterlimit="10"></path></g><g transform="translate(-90,6) scale(1,1)"><path fill="none" stroke="#000000" d="M 1197.162674857624 523.790482243984 L 1187 528 L 1197.162674857624 532.209517756016" stroke-miterlimit="10"></path></g><g transform="translate(-90,6) scale(1,1)"><g><path fill="none" stroke="none"></path><text fill="#000000" stroke="none" font-family="Arial" font-size="13px" font-style="normal" font-weight="normal" text-decoration="none" x="1196" y="546">10 : handle routing result notification</text></g></g><g transform="translate(-90,6) scale(1,1)"><rect fill="#ffffff" stroke="none" x="1174" y="528" width="13" height="84"></rect></g><g transform="translate(-90,6) scale(1,1)"><path fill="none" stroke="#000000" d="M 1174 528 L 1187 528 L 1187 612 L 1174 612 L 1174 528 Z Z" stroke-miterlimit="10"></path></g><g transform="translate(-90,6) scale(1,1)"><path fill="none" stroke="#000000" d="M 1174 544 L 1047 544" stroke-miterlimit="10"></path></g><g transform="translate(-90,6) scale(1,1)"><path fill="#000000" stroke="none" d="M 1057.162674857624 539.790482243984 L 1047 544 L 1057.162674857624 548.209517756016"></path></g><g transform="translate(-90,6) scale(1,1)"><path fill="none" stroke="#000000" d="M 1057.162674857624 539.790482243984 L 1047 544 L 1057.162674857624 548.209517756016 L 1057.162674857624 539.790482243984" stroke-miterlimit="10"></path></g><g transform="translate(-90,6) scale(1,1)"><g><path fill="none" stroke="none"></path><text fill="#000000" stroke="none" font-family="Arial" font-size="13px" font-style="normal" font-weight="normal" text-decoration="none" x="1045" y="561">11 : add map changes</text></g></g><g transform="translate(-90,6) scale(1,1)"><rect fill="#ffffff" stroke="none" x="1034" y="544" width="13" height="52"></rect></g><g transform="translate(-90,6) scale(1,1)"><path fill="none" stroke="#000000" d="M 1034 544 L 1047 544 L 1047 596 L 1034 596 L 1034 544 Z Z" stroke-miterlimit="10"></path></g><g transform="translate(-90,6) scale(1,1)"><path fill="none" stroke="#000000" d="M 1047 585 L 1174 585" stroke-miterlimit="10" stroke-dasharray="3"></path></g><g transform="translate(-90,6) scale(1,1)"><path fill="none" stroke="#000000" d="M 1163.837325142376 589.209517756016 L 1174 585 L 1163.837325142376 580.790482243984" stroke-miterlimit="10"></path></g><g transform="translate(-90,6) scale(1,1)"><g><path fill="none" stroke="none"></path><text fill="#000000" stroke="none" font-family="Arial" font-size="13px" font-style="normal" font-weight="normal" text-decoration="none" x="1097" y="582">12 : </text></g></g></g></svg>