<svg version="1.1" xmlns="http://www.w3.org/2000/svg" xmlns:xlink="http://www.w3.org/1999/xlink" width="789" height="514"><defs></defs><g><g transform="translate(-490,-206) scale(1,1)"><path fill="#ffffff" stroke="none" d="M 517.3207272727273 385.68 C 517.3207272727273 380.886167936 521.2065695976727 377 526 377 C 530.7934304023273 377 534.6792727272727 380.886167936 534.6792727272727 385.68 C 534.6792727272727 390.473832064 530.7934304023273 394.36 526 394.36 C 521.2065695976727 394.36 517.3207272727273 390.473832064 517.3207272727273 385.68 Z"></path></g><g transform="translate(-490,-206) scale(1,1)"><path fill="none" stroke="#000000" d="M 517.3207272727273 385.68 C 517.3207272727273 380.886167936 521.2065695976727 377 526 377 C 530.7934304023273 377 534.6792727272727 380.886167936 534.6792727272727 385.68 C 534.6792727272727 390.473832064 530.7934304023273 394.36 526 394.36 C 521.2065695976727 394.36 517.3207272727273 390.473832064 517.3207272727273 385.68 Z" stroke-miterlimit="10"></path></g><g transform="translate(-490,-206) scale(1,1)"><path fill="none" stroke="#000000" d="M 526 394.36 L 526 411.64" stroke-miterlimit="10"></path></g><g transform="translate(-490,-206) scale(1,1)"><path fill="none" stroke="#000000" d="M 516.8101818181818 400.84 L 535.1898181818182 400.84" stroke-miterlimit="10"></path></g><g transform="translate(-490,-206) scale(1,1)"><path fill="none" stroke="#000000" d="M 526 411.64 L 513.2363636363636 429" stroke-miterlimit="10"></path></g><g transform="translate(-490,-206) scale(1,1)"><path fill="none" stroke="#000000" d="M 526 411.64 L 538.7636363636364 429" stroke-miterlimit="10"></path></g><g transform="translate(-490,-206) scale(1,1)"><g><path fill="none" stroke="none"></path><text fill="#000000" stroke="none" font-family="Arial" font-size="13px" font-style="normal" font-weight="bold" text-decoration="none" x="506.5" y="449.5">Tourist</text></g></g><g transform="translate(-490,-206) scale(1,1)"><path fill="#C0C0C0" stroke="none" d="M 735 240 C 735 230.6111584 774.8466528 223 824 223 C 873.1533472 223 913 230.6111584 913 240 C 913 249.3888416 873.1533472 257 824 257 C 774.8466528 257 735 249.3888416 735 240 Z" opacity="0.2"></path></g><g transform="translate(-490,-206) scale(1,1)"><path fill="#ffffff" stroke="none" d="M 728 233 C 728 223.6111584 767.8466528 216 817 216 C 866.1533472 216 906 223.6111584 906 233 C 906 242.3888416 866.1533472 250 817 250 C 767.8466528 250 728 242.3888416 728 233 Z"></path></g><g transform="translate(-490,-206) scale(1,1)"><path fill="none" stroke="#000000" d="M 728 233 C 728 223.6111584 767.8466528 216 817 216 C 866.1533472 216 906 223.6111584 906 233 C 906 242.3888416 866.1533472 250 817 250 C 767.8466528 250 728 242.3888416 728 233 Z" stroke-miterlimit="10"></path></g><g transform="translate(-490,-206) scale(1,1)"><g><path fill="none" stroke="none"></path><text fill="#000000" stroke="none" font-family="Arial" font-size="13px" font-style="normal" font-weight="bold" text-decoration="none" x="763" y="240">Select desired city</text></g></g><g transform="translate(-490,-206) scale(1,1)"><path fill="none" stroke="#000000" d="M 553 398 L 788 251" stroke-miterlimit="10"></path></g><g transform="translate(-490,-206) scale(1,1)"><path fill="#C0C0C0" stroke="none" d="M 763 332 C 763 322.6111584 811.3532416 315 871 315 C 930.6467584 315 979 322.6111584 979 332 C 979 341.3888416 930.6467584 349 871 349 C 811.3532416 349 763 341.3888416 763 332 Z" opacity="0.2"></path></g><g transform="translate(-490,-206) scale(1,1)"><path fill="#ffffff" stroke="none" d="M 756 325 C 756 315.6111584 804.3532416 308 864 308 C 923.6467584 308 972 315.6111584 972 325 C 972 334.3888416 923.6467584 342 864 342 C 804.3532416 342 756 334.3888416 756 325 Z"></path></g><g transform="translate(-490,-206) scale(1,1)"><path fill="none" stroke="#000000" d="M 756 325 C 756 315.6111584 804.3532416 308 864 308 C 923.6467584 308 972 315.6111584 972 325 C 972 334.3888416 923.6467584 342 864 342 C 804.3532416 342 756 334.3888416 756 325 Z" stroke-miterlimit="10"></path></g><g transform="translate(-490,-206) scale(1,1)"><g><path fill="none" stroke="none"></path><text fill="#000000" stroke="none" font-family="Arial" font-size="13px" font-style="normal" font-weight="bold" text-decoration="none" x="800" y="332">Zoom for detailed data</text></g></g><g transform="translate(-490,-206) scale(1,1)"><path fill="none" stroke="#000000" d="M 553 408 L 796 343" stroke-miterlimit="10"></path></g><g transform="translate(-490,-206) scale(1,1)"><path fill="#C0C0C0" stroke="none" d="M 687 420 C 687 410.6111584 774.9760368 403 883.5 403 C 992.0239632 403 1080 410.6111584 1080 420 C 1080 429.3888416 992.0239632 437 883.5 437 C 774.9760368 437 687 429.3888416 687 420 Z" opacity="0.2"></path></g><g transform="translate(-490,-206) scale(1,1)"><path fill="#ffffff" stroke="none" d="M 680 413 C 680 403.6111584 767.9760368 396 876.5 396 C 985.0239632 396 1073 403.6111584 1073 413 C 1073 422.3888416 985.0239632 430 876.5 430 C 767.9760368 430 680 422.3888416 680 413 Z"></path></g><g transform="translate(-490,-206) scale(1,1)"><path fill="none" stroke="#000000" d="M 680 413 C 680 403.6111584 767.9760368 396 876.5 396 C 985.0239632 396 1073 403.6111584 1073 413 C 1073 422.3888416 985.0239632 430 876.5 430 C 767.9760368 430 680 422.3888416 680 413 Z" stroke-miterlimit="10"></path></g><g transform="translate(-490,-206) scale(1,1)"><g><path fill="none" stroke="none"></path><text fill="#000000" stroke="none" font-family="Arial" font-size="13px" font-style="normal" font-weight="bold" text-decoration="none" x="753" y="420">See places of interest as pinpoints on map</text></g></g><g transform="translate(-490,-206) scale(1,1)"><path fill="none" stroke="#000000" d="M 553 415 L 679 414" stroke-miterlimit="10"></path></g><g transform="translate(-490,-206) scale(1,1)"><path fill="#C0C0C0" stroke="none" d="M 792 512 C 792 502.6111584 833.1897984 495 884 495 C 934.8102016 495 976 502.6111584 976 512 C 976 521.3888416 934.8102016 529 884 529 C 833.1897984 529 792 521.3888416 792 512 Z" opacity="0.2"></path></g><g transform="translate(-490,-206) scale(1,1)"><path fill="#ffffff" stroke="none" d="M 785 505 C 785 495.6111584 826.1897984 488 877 488 C 927.8102016 488 969 495.6111584 969 505 C 969 514.3888416 927.8102016 522 877 522 C 826.1897984 522 785 514.3888416 785 505 Z"></path></g><g transform="translate(-490,-206) scale(1,1)"><path fill="none" stroke="#000000" d="M 785 505 C 785 495.6111584 826.1897984 488 877 488 C 927.8102016 488 969 495.6111584 969 505 C 969 514.3888416 927.8102016 522 877 522 C 826.1897984 522 785 514.3888416 785 505 Z" stroke-miterlimit="10"></path></g><g transform="translate(-490,-206) scale(1,1)"><g><path fill="none" stroke="none"></path><text fill="#000000" stroke="none" font-family="Arial" font-size="13px" font-style="normal" font-weight="bold" text-decoration="none" x="822.5" y="512">View place images</text></g></g><g transform="translate(-490,-206) scale(1,1)"><path fill="#C0C0C0" stroke="none" d="M 795 584 C 795 574.6111584 834.8466528 567 884 567 C 933.1533472 567 973 574.6111584 973 584 C 973 593.3888416 933.1533472 601 884 601 C 834.8466528 601 795 593.3888416 795 584 Z" opacity="0.2"></path></g><g transform="translate(-490,-206) scale(1,1)"><path fill="#ffffff" stroke="none" d="M 788 577 C 788 567.6111584 827.8466528 560 877 560 C 926.1533472 560 966 567.6111584 966 577 C 966 586.3888416 926.1533472 594 877 594 C 827.8466528 594 788 586.3888416 788 577 Z"></path></g><g transform="translate(-490,-206) scale(1,1)"><path fill="none" stroke="#000000" d="M 788 577 C 788 567.6111584 827.8466528 560 877 560 C 926.1533472 560 966 567.6111584 966 577 C 966 586.3888416 926.1533472 594 877 594 C 827.8466528 594 788 586.3888416 788 577 Z" stroke-miterlimit="10"></path></g><g transform="translate(-490,-206) scale(1,1)"><g><path fill="none" stroke="none"></path><text fill="#000000" stroke="none" font-family="Arial" font-size="13px" font-style="normal" font-weight="bold" text-decoration="none" x="824.5" y="584">View place details</text></g></g><g transform="translate(-490,-206) scale(1,1)"><path fill="none" stroke="#000000" d="M 544 455 L 544 505 L 785 505" stroke-miterlimit="10"></path></g><g transform="translate(-490,-206) scale(1,1)"><path fill="none" stroke="#000000" d="M 544 455 L 544 577 L 788 577" stroke-miterlimit="10"></path></g><g transform="translate(-490,-206) scale(1,1)"><path fill="#C0C0C0" stroke="none" d="M 715 700 C 715 690.6111584 792.4547296 683 888 683 C 983.5452704 683 1061 690.6111584 1061 700 C 1061 709.3888416 983.5452704 717 888 717 C 792.4547296 717 715 709.3888416 715 700 Z" opacity="0.2"></path></g><g transform="translate(-490,-206) scale(1,1)"><path fill="#ffffff" stroke="none" d="M 708 693 C 708 683.6111584 785.4547296 676 881 676 C 976.5452704 676 1054 683.6111584 1054 693 C 1054 702.3888416 976.5452704 710 881 710 C 785.4547296 710 708 702.3888416 708 693 Z"></path></g><g transform="translate(-490,-206) scale(1,1)"><path fill="none" stroke="#000000" d="M 708 693 C 708 683.6111584 785.4547296 676 881 676 C 976.5452704 676 1054 683.6111584 1054 693 C 1054 702.3888416 976.5452704 710 881 710 C 785.4547296 710 708 702.3888416 708 693 Z" stroke-miterlimit="10"></path></g><g transform="translate(-490,-206) scale(1,1)"><g><path fill="none" stroke="none"></path><text fill="#000000" stroke="none" font-family="Arial" font-size="13px" font-style="normal" font-weight="bold" text-decoration="none" x="775" y="700">View details on how to reach a place</text></g></g><g transform="translate(-490,-206) scale(1,1)"><path fill="none" stroke="#000000" d="M 520 455 L 520 692 L 708 692" stroke-miterlimit="10"></path></g><g transform="translate(-490,-206) scale(1,1)"><rect fill="#C0C0C0" stroke="none" x="1071" y="523" width="205" height="92" opacity="0.2"></rect></g><g transform="translate(-490,-206) scale(1,1)"><rect fill="#ffffff" stroke="none" x="1064" y="516" width="205" height="92"></rect></g><g transform="translate(-490,-206) scale(1,1)"><path fill="none" stroke="#000000" d="M 1064 516 L 1269 516 L 1269 608 L 1064 608 L 1064 516 Z Z" stroke-miterlimit="10"></path></g><g transform="translate(-490,-206) scale(1,1)"><path fill="none" stroke="#000000" d="M 1064 556 L 1269 556" stroke-miterlimit="10"></path></g><g transform="translate(-490,-206) scale(1,1)"><g><path fill="none" stroke="none"></path><text fill="#000000" stroke="none" font-family="Arial" font-size="13px" font-style="italic" font-weight="bold" text-decoration="none" x="1150" y="535.5">Place</text></g></g><g transform="translate(-490,-206) scale(1,1)"><g><path fill="none" stroke="none"></path><text fill="#000000" stroke="none" font-family="Arial" font-size="13px" font-style="normal" font-weight="normal" text-decoration="none" x="1129" y="550.5">(from places)</text></g></g><g transform="translate(-490,-206) scale(1,1)"><g><path fill="none" stroke="none"></path><text fill="#000000" stroke="none" font-family="Arial" font-size="13px" font-style="normal" font-weight="normal" text-decoration="none" x="1069" y="573.5">-iconImageLocation: String[1]</text></g></g><g transform="translate(-490,-206) scale(1,1)"><g><path fill="none" stroke="none"></path><text fill="#000000" stroke="none" font-family="Arial" font-size="13px" font-style="normal" font-weight="normal" text-decoration="none" x="1069" y="588.5">-placeImageLocations: String[0..*]</text></g></g><g transform="translate(-490,-206) scale(1,1)"><g><path fill="none" stroke="none"></path><text fill="#000000" stroke="none" font-family="Arial" font-size="13px" font-style="normal" font-weight="normal" text-decoration="none" x="1069" y="603.5">-name: String[1]</text></g></g><g transform="translate(-490,-206) scale(1,1)"><path fill="none" stroke="#000000" d="M 1064 577 L 966 577" stroke-miterlimit="10" stroke-dasharray="3"></path></g><g transform="translate(-490,-206) scale(1,1)"><path fill="none" stroke="#000000" d="M 976.1626748576241 572.790482243984 L 966 577 L 976.1626748576241 581.209517756016" stroke-miterlimit="10"></path></g></g></svg>