<svg version="1.1" xmlns="http://www.w3.org/2000/svg" xmlns:xlink="http://www.w3.org/1999/xlink" width="1415" height="614"><defs></defs><g><g transform="translate(6,6) scale(1,1)"><path fill="none" stroke="#000000" d="M 4 4 L 1399 4 L 1399 598 L 4 598 L 4 4" stroke-miterlimit="10"></path></g><g transform="translate(6,6) scale(1,1)"><path fill="#ffffff" stroke="none" d="M 4 4 L 4 26 L 270 26 L 281 15 L 281 4 L 4 4"></path></g><g transform="translate(6,6) scale(1,1)"><path fill="none" stroke="#000000" d="M 4 4 L 4 26 L 270 26 L 281 15 L 281 4 L 4 4 L 4 4" stroke-miterlimit="10"></path></g><g transform="translate(6,6) scale(1,1)"><g><path fill="none" stroke="none"></path><text fill="#000000" stroke="none" font-family="Arial" font-size="13px" font-style="normal" font-weight="normal" text-decoration="none" x="75" y="21.5">Populate Map SequenceDiagram</text></g></g><g transform="translate(6,6) scale(1,1)"><g><path fill="none" stroke="none"></path><text fill="#000000" stroke="none" font-family="Arial" font-size="13px" font-style="normal" font-weight="bold" text-decoration="none" x="9" y="21.5">interaction</text></g></g><g transform="translate(6,6) scale(1,1)"><rect fill="#C0C0C0" stroke="none" x="27" y="47" width="163" height="39" opacity="0.2"></rect></g><g transform="translate(6,6) scale(1,1)"><rect fill="#ffffff" stroke="none" x="20" y="40" width="163" height="39"></rect></g><g transform="translate(6,6) scale(1,1)"><path fill="none" stroke="#000000" d="M 20 40 L 183 40 L 183 79 L 20 79 L 20 40 Z Z" stroke-miterlimit="10"></path></g><g transform="translate(6,6) scale(1,1)"><g><path fill="none" stroke="none"></path><text fill="#000000" stroke="none" font-family="Arial" font-size="13px" font-style="normal" font-weight="bold" text-decoration="none" x="35" y="59.5">touristMap: TouristMap</text></g></g><g transform="translate(6,6) scale(1,1)"><path fill="none" stroke="#000000" d="M 102.5 80 L 102.5 588" stroke-miterlimit="10" stroke-dasharray="3"></path></g><g transform="translate(6,6) scale(1,1)"><path fill="#ffffff" stroke="none" d="M 613 60 C 613 48.954304 621.954304 40 633 40 C 644.045696 40 653 48.954304 653 60 C 653 71.04569599999999 644.045696 80 633 80 C 621.954304 80 613 71.04569599999999 613 60 Z"></path></g><g transform="translate(6,6) scale(1,1)"><path fill="none" stroke="#000000" d="M 613 60 C 613 48.954304 621.954304 40 633 40 C 644.045696 40 653 48.954304 653 60 C 653 71.04569599999999 644.045696 80 633 80 C 621.954304 80 613 71.04569599999999 613 60 Z" stroke-miterlimit="10"></path></g><g transform="translate(6,6) scale(1,1)"><g><path fill="none" stroke="none"></path><text fill="#000000" stroke="none" font-family="Arial" font-size="13px" font-style="normal" font-weight="bold" text-decoration="none" x="558" y="99.5">placeLoader: PlaceLoader</text></g></g><g transform="translate(6,6) scale(1,1)"><path fill="none" stroke="#000000" d="M 634.5 105 L 634.5 580" stroke-miterlimit="10" stroke-dasharray="3"></path></g><g transform="translate(6,6) scale(1,1)"><rect fill="#C0C0C0" stroke="none" x="739" y="47" width="199" height="39" opacity="0.2"></rect></g><g transform="translate(6,6) scale(1,1)"><rect fill="#ffffff" stroke="none" x="732" y="40" width="199" height="39"></rect></g><g transform="translate(6,6) scale(1,1)"><path fill="none" stroke="#000000" d="M 732 40 L 931 40 L 931 79 L 732 79 L 732 40 Z Z" stroke-miterlimit="10"></path></g><g transform="translate(6,6) scale(1,1)"><g><path fill="none" stroke="none"></path><text fill="#000000" stroke="none" font-family="Arial" font-size="13px" font-style="normal" font-weight="bold" text-decoration="none" x="751" y="59.5">placeLoader: PlaceManager</text></g></g><g transform="translate(6,6) scale(1,1)"><path fill="none" stroke="#000000" d="M 832.5 80 L 832.5 580" stroke-miterlimit="10" stroke-dasharray="3"></path></g><g transform="translate(6,6) scale(1,1)"><rect fill="#C0C0C0" stroke="none" x="1003" y="150" width="147" height="39" opacity="0.2"></rect></g><g transform="translate(6,6) scale(1,1)"><path fill="none" stroke="#000000" d="M 1001 148 L 1148 148 L 1148 187 L 1001 187 L 1001 148 Z Z" stroke-miterlimit="10"></path></g><g transform="translate(6,6) scale(1,1)"><rect fill="#ffffff" stroke="none" x="996" y="143" width="147" height="39"></rect></g><g transform="translate(6,6) scale(1,1)"><path fill="none" stroke="#000000" d="M 996 143 L 1143 143 L 1143 182 L 996 182 L 996 143 Z Z" stroke-miterlimit="10"></path></g><g transform="translate(6,6) scale(1,1)"><g><path fill="none" stroke="none"></path><text fill="#000000" stroke="none" font-family="Arial" font-size="13px" font-style="normal" font-weight="bold" text-decoration="none" x="1010.5" y="162.5">places[place]: Place</text></g></g><g transform="translate(6,6) scale(1,1)"><path fill="none" stroke="#000000" d="M 1070.5 183 L 1070.5 521" stroke-miterlimit="10" stroke-dasharray="3"></path></g><g transform="translate(6,6) scale(1,1)"><rect fill="#C0C0C0" stroke="none" x="1239" y="47" width="116" height="39" opacity="0.2"></rect></g><g transform="translate(6,6) scale(1,1)"><rect fill="#ffffff" stroke="none" x="1232" y="40" width="116" height="39"></rect></g><g transform="translate(6,6) scale(1,1)"><path fill="none" stroke="#000000" d="M 1232 40 L 1348 40 L 1348 79 L 1232 79 L 1232 40 Z Z" stroke-miterlimit="10"></path></g><g transform="translate(6,6) scale(1,1)"><g><path fill="none" stroke="none"></path><text fill="#000000" stroke="none" font-family="Arial" font-size="13px" font-style="normal" font-weight="bold" text-decoration="none" x="1258" y="59.5">map: JMap</text></g></g><g transform="translate(6,6) scale(1,1)"><path fill="none" stroke="#000000" d="M 1291.5 80 L 1291.5 454" stroke-miterlimit="10" stroke-dasharray="3"></path></g><g transform="translate(6,6) scale(1,1)"><path fill="none" stroke="#000000" d="M 724 252 L 1376 252 L 1376 472 L 724 472 L 724 252" stroke-miterlimit="10"></path></g><g transform="translate(6,6) scale(1,1)"><path fill="#ffffff" stroke="none" d="M 724 252 L 724 274 L 802 274 L 813 263 L 813 252 L 724 252"></path></g><g transform="translate(6,6) scale(1,1)"><path fill="none" stroke="#000000" d="M 724 252 L 724 274 L 802 274 L 813 263 L 813 252 L 724 252 L 724 252" stroke-miterlimit="10"></path></g><g transform="translate(6,6) scale(1,1)"><g><path fill="none" stroke="none"></path><text fill="#000000" stroke="none" font-family="Arial" font-size="13px" font-style="normal" font-weight="normal" text-decoration="none" x="759" y="269.5">places</text></g></g><g transform="translate(6,6) scale(1,1)"><g><path fill="none" stroke="none"></path><text fill="#000000" stroke="none" font-family="Arial" font-size="13px" font-style="normal" font-weight="bold" text-decoration="none" x="729" y="269.5">loop</text></g></g><g transform="translate(6,6) scale(1,1)"><path fill="none" stroke="#000000" d="M 832 96 L 862 96 L 862 116 L 838 116" stroke-miterlimit="10"></path></g><g transform="translate(6,6) scale(1,1)"><path fill="#000000" stroke="none" d="M 848.1626748576241 111.79048224398402 L 838 116 L 848.1626748576241 120.20951775601598"></path></g><g transform="translate(6,6) scale(1,1)"><path fill="none" stroke="#000000" d="M 848.1626748576241 111.79048224398402 L 838 116 L 848.1626748576241 120.20951775601598 L 848.1626748576241 111.79048224398402" stroke-miterlimit="10"></path></g><g transform="translate(6,6) scale(1,1)"><g><path fill="none" stroke="none"></path><text fill="#000000" stroke="none" font-family="Arial" font-size="13px" font-style="normal" font-weight="normal" text-decoration="none" x="867" y="112">1 : deserialize places from placesBinLocation</text></g></g><g transform="translate(6,6) scale(1,1)"><rect fill="#ffffff" stroke="none" x="825" y="116" width="13" height="96"></rect></g><g transform="translate(6,6) scale(1,1)"><path fill="none" stroke="#000000" d="M 825 116 L 838 116 L 838 212 L 825 212 L 825 116 Z Z" stroke-miterlimit="10"></path></g><g transform="translate(6,6) scale(1,1)"><path fill="none" stroke="#000000" d="M 838 163 L 996 163" stroke-miterlimit="10" stroke-dasharray="3"></path></g><g transform="translate(6,6) scale(1,1)"><path fill="none" stroke="#000000" d="M 985.8373251423759 167.209517756016 L 996 163 L 985.8373251423758 158.790482243984" stroke-miterlimit="10"></path></g><g transform="translate(6,6) scale(1,1)"><g><path fill="none" stroke="none"></path><text fill="#000000" stroke="none" font-family="Arial" font-size="13px" font-style="normal" font-weight="normal" text-decoration="none" x="877" y="160">2 : deserialize</text></g></g><g transform="translate(6,6) scale(1,1)"><g><path fill="none" stroke="none"></path><text fill="#000000" stroke="none" font-family="Arial" font-size="13px" font-style="normal" font-weight="normal" text-decoration="none" x="892" y="145">«create»</text></g></g><g transform="translate(6,6) scale(1,1)"><path fill="none" stroke="#000000" d="M 102 228 L 627 228" stroke-miterlimit="10"></path></g><g transform="translate(6,6) scale(1,1)"><path fill="#000000" stroke="none" d="M 616.8373251423759 232.209517756016 L 627 228 L 616.8373251423758 223.790482243984"></path></g><g transform="translate(6,6) scale(1,1)"><path fill="none" stroke="#000000" d="M 616.8373251423759 232.209517756016 L 627 228 L 616.8373251423758 223.790482243984 L 616.8373251423759 232.209517756016" stroke-miterlimit="10"></path></g><g transform="translate(6,6) scale(1,1)"><g><path fill="none" stroke="none"></path><text fill="#000000" stroke="none" font-family="Arial" font-size="13px" font-style="normal" font-weight="normal" text-decoration="none" x="301" y="225">3 : populateMap(map)</text></g></g><g transform="translate(6,6) scale(1,1)"><rect fill="#ffffff" stroke="none" x="627" y="228" width="13" height="292"></rect></g><g transform="translate(6,6) scale(1,1)"><path fill="none" stroke="#000000" d="M 627 228 L 640 228 L 640 520 L 627 520 L 627 228 Z Z" stroke-miterlimit="10"></path></g><g transform="translate(6,6) scale(1,1)"><path fill="none" stroke="#000000" d="M 640 237 L 825 237" stroke-miterlimit="10"></path></g><g transform="translate(6,6) scale(1,1)"><path fill="#000000" stroke="none" d="M 814.8373251423759 241.209517756016 L 825 237 L 814.8373251423758 232.790482243984"></path></g><g transform="translate(6,6) scale(1,1)"><path fill="none" stroke="#000000" d="M 814.8373251423759 241.209517756016 L 825 237 L 814.8373251423758 232.790482243984 L 814.8373251423759 241.209517756016" stroke-miterlimit="10"></path></g><g transform="translate(6,6) scale(1,1)"><g><path fill="none" stroke="none"></path><text fill="#000000" stroke="none" font-family="Arial" font-size="13px" font-style="normal" font-weight="normal" text-decoration="none" x="723" y="234">4 : </text></g></g><g transform="translate(6,6) scale(1,1)"><g><path fill="none" stroke="none"></path><text fill="#000000" stroke="none" font-family="Arial" font-size="13px" font-style="normal" font-weight="normal" text-decoration="none" x="693" y="219">«Realization»</text></g></g><g transform="translate(6,6) scale(1,1)"><rect fill="#ffffff" stroke="none" x="825" y="237" width="13" height="271"></rect></g><g transform="translate(6,6) scale(1,1)"><path fill="none" stroke="#000000" d="M 825 237 L 838 237 L 838 508 L 825 508 L 825 237 Z Z" stroke-miterlimit="10"></path></g><g transform="translate(6,6) scale(1,1)"><path fill="none" stroke="#000000" d="M 838 294 L 1063 294" stroke-miterlimit="10"></path></g><g transform="translate(6,6) scale(1,1)"><path fill="#000000" stroke="none" d="M 1052.837325142376 298.209517756016 L 1063 294 L 1052.837325142376 289.790482243984"></path></g><g transform="translate(6,6) scale(1,1)"><path fill="none" stroke="#000000" d="M 1052.837325142376 298.209517756016 L 1063 294 L 1052.837325142376 289.790482243984 L 1052.837325142376 298.209517756016" stroke-miterlimit="10"></path></g><g transform="translate(6,6) scale(1,1)"><g><path fill="none" stroke="none"></path><text fill="#000000" stroke="none" font-family="Arial" font-size="13px" font-style="normal" font-weight="normal" text-decoration="none" x="893" y="291">5 : addOnMap(map)</text></g></g><g transform="translate(6,6) scale(1,1)"><rect fill="#ffffff" stroke="none" x="1063" y="294" width="13" height="166"></rect></g><g transform="translate(6,6) scale(1,1)"><path fill="none" stroke="#000000" d="M 1063 294 L 1076 294 L 1076 460 L 1063 460 L 1063 294 Z Z" stroke-miterlimit="10"></path></g><g transform="translate(6,6) scale(1,1)"><path fill="none" stroke="#000000" d="M 1076 304 L 1106 304 L 1106 324 L 1083 324" stroke-miterlimit="10"></path></g><g transform="translate(6,6) scale(1,1)"><path fill="#000000" stroke="none" d="M 1093.162674857624 319.790482243984 L 1083 324 L 1093.162674857624 328.209517756016"></path></g><g transform="translate(6,6) scale(1,1)"><path fill="none" stroke="#000000" d="M 1093.162674857624 319.790482243984 L 1083 324 L 1093.162674857624 328.209517756016 L 1093.162674857624 319.790482243984" stroke-miterlimit="10"></path></g><g transform="translate(6,6) scale(1,1)"><g><path fill="none" stroke="none"></path><text fill="#000000" stroke="none" font-family="Arial" font-size="13px" font-style="normal" font-weight="normal" text-decoration="none" x="1111" y="321">6 : description = getDescription()</text></g></g><g transform="translate(6,6) scale(1,1)"><rect fill="#ffffff" stroke="none" x="1070" y="324" width="13" height="28"></rect></g><g transform="translate(6,6) scale(1,1)"><path fill="none" stroke="#000000" d="M 1070 324 L 1083 324 L 1083 352 L 1070 352 L 1070 324 Z Z" stroke-miterlimit="10"></path></g><g transform="translate(6,6) scale(1,1)"><path fill="none" stroke="#000000" d="M 1076 380 L 1284 380" stroke-miterlimit="10"></path></g><g transform="translate(6,6) scale(1,1)"><path fill="#000000" stroke="none" d="M 1273.837325142376 384.209517756016 L 1284 380 L 1273.837325142376 375.790482243984"></path></g><g transform="translate(6,6) scale(1,1)"><path fill="none" stroke="#000000" d="M 1273.837325142376 384.209517756016 L 1284 380 L 1273.837325142376 375.790482243984 L 1273.837325142376 384.209517756016" stroke-miterlimit="10"></path></g><g transform="translate(6,6) scale(1,1)"><g><path fill="none" stroke="none"></path><text fill="#000000" stroke="none" font-family="Arial" font-size="13px" font-style="normal" font-weight="normal" text-decoration="none" x="1114" y="377">7 : addMarkerGraphic()</text></g></g><g transform="translate(6,6) scale(1,1)"><rect fill="#ffffff" stroke="none" x="1284" y="380" width="13" height="52"></rect></g><g transform="translate(6,6) scale(1,1)"><path fill="none" stroke="#000000" d="M 1284 380 L 1297 380 L 1297 432 L 1284 432 L 1284 380 Z Z" stroke-miterlimit="10"></path></g><g transform="translate(6,6) scale(1,1)"><path fill="none" stroke="#000000" d="M 1284 424 L 1076 424" stroke-miterlimit="10" stroke-dasharray="3"></path></g><g transform="translate(6,6) scale(1,1)"><path fill="none" stroke="#000000" d="M 1086.162674857624 419.790482243984 L 1076 424 L 1086.162674857624 428.209517756016" stroke-miterlimit="10"></path></g><g transform="translate(6,6) scale(1,1)"><g><path fill="none" stroke="none"></path><text fill="#000000" stroke="none" font-family="Arial" font-size="13px" font-style="normal" font-weight="normal" text-decoration="none" x="1170" y="441">8 : </text></g></g><g transform="translate(6,6) scale(1,1)"><path fill="none" stroke="#000000" d="M 1063 448 L 838 448" stroke-miterlimit="10" stroke-dasharray="3"></path></g><g transform="translate(6,6) scale(1,1)"><path fill="none" stroke="#000000" d="M 848.1626748576241 443.790482243984 L 838 448 L 848.1626748576241 452.209517756016" stroke-miterlimit="10"></path></g><g transform="translate(6,6) scale(1,1)"><g><path fill="none" stroke="none"></path><text fill="#000000" stroke="none" font-family="Arial" font-size="13px" font-style="normal" font-weight="normal" text-decoration="none" x="940" y="465">9 : </text></g></g><g transform="translate(6,6) scale(1,1)"><path fill="none" stroke="#000000" d="M 825 496 L 640 496" stroke-miterlimit="10" stroke-dasharray="3"></path></g><g transform="translate(6,6) scale(1,1)"><path fill="none" stroke="#000000" d="M 650.1626748576241 491.790482243984 L 640 496 L 650.1626748576241 500.209517756016" stroke-miterlimit="10"></path></g><g transform="translate(6,6) scale(1,1)"><g><path fill="none" stroke="none"></path><text fill="#000000" stroke="none" font-family="Arial" font-size="13px" font-style="normal" font-weight="normal" text-decoration="none" x="718" y="513">10 : </text></g></g><g transform="translate(6,6) scale(1,1)"><g><path fill="none" stroke="none"></path><text fill="#000000" stroke="none" font-family="Arial" font-size="13px" font-style="normal" font-weight="normal" text-decoration="none" x="692" y="528">«Realization»</text></g></g><g transform="translate(6,6) scale(1,1)"><path fill="none" stroke="#000000" d="M 627 508 L 102 508" stroke-miterlimit="10" stroke-dasharray="3"></path></g><g transform="translate(6,6) scale(1,1)"><path fill="none" stroke="#000000" d="M 112.16267485762415 503.790482243984 L 102 508 L 112.16267485762415 512.209517756016" stroke-miterlimit="10"></path></g><g transform="translate(6,6) scale(1,1)"><g><path fill="none" stroke="none"></path><text fill="#000000" stroke="none" font-family="Arial" font-size="13px" font-style="normal" font-weight="normal" text-decoration="none" x="350" y="525">11 : </text></g></g></g></svg>