<svg version="1.1" xmlns="http://www.w3.org/2000/svg" xmlns:xlink="http://www.w3.org/1999/xlink" width="1475" height="677"><defs></defs><g><g transform="translate(-110,-61) scale(1,1)"><path fill="#C0C0C0" stroke="none" d="M 1254.9 230 L 1282.3400000000001 230 L 1294.1000000000001 241.76000000000002 L 1294.1000000000001 279 L 1254.9 279" opacity="0.2"></path></g><g transform="translate(-110,-61) scale(1,1)"><path fill="#ffffff" stroke="none" d="M 1247.9 223 L 1275.34 223 L 1287.1 234.75999999999993 L 1287.1 272 L 1247.9 272"></path></g><g transform="translate(-110,-61) scale(1,1)"><path fill="none" stroke="#000000" d="M 1247.9 223 L 1275.34 223 L 1287.1 234.75999999999993 L 1287.1 272 L 1247.9 272 L 1247.9 223" stroke-miterlimit="10"></path></g><g transform="translate(-110,-61) scale(1,1)"><path fill="none" stroke="#000000" d="M 1275.34 223 L 1275.34 234.75999999999993 L 1287.1 234.75999999999993 L 1275.34 223" stroke-miterlimit="10"></path></g><g transform="translate(-110,-61) scale(1,1)"><g><path fill="none" stroke="none"></path><text fill="#000000" stroke="none" font-family="Arial" font-size="13px" font-style="normal" font-weight="bold" text-decoration="none" x="1229" y="291.5">Geodatabase</text></g></g><g transform="translate(-110,-61) scale(1,1)"><path fill="#C0C0C0" stroke="none" d="M 796.9 227 L 824.34 227 L 836.1 238.76000000000002 L 836.1 276 L 796.9 276" opacity="0.2"></path></g><g transform="translate(-110,-61) scale(1,1)"><path fill="#ffffff" stroke="none" d="M 789.9 220 L 817.34 220 L 829.1 231.76000000000002 L 829.1 269 L 789.9 269"></path></g><g transform="translate(-110,-61) scale(1,1)"><path fill="none" stroke="#000000" d="M 789.9 220 L 817.34 220 L 829.1 231.76000000000002 L 829.1 269 L 789.9 269 L 789.9 220" stroke-miterlimit="10"></path></g><g transform="translate(-110,-61) scale(1,1)"><path fill="none" stroke="#000000" d="M 817.34 220 L 817.34 231.76000000000002 L 829.1 231.76000000000002 L 817.34 220" stroke-miterlimit="10"></path></g><g transform="translate(-110,-61) scale(1,1)"><g><path fill="none" stroke="none"></path><text fill="#000000" stroke="none" font-family="Arial" font-size="13px" font-style="normal" font-weight="bold" text-decoration="none" x="761.5" y="288.5">MapTilePackage</text></g></g><g transform="translate(-110,-61) scale(1,1)"><path fill="#C0C0C0" stroke="none" d="M 1095.9 78 L 1123.3400000000001 78 L 1135.1000000000001 89.76000000000002 L 1135.1000000000001 127 L 1095.9 127" opacity="0.2"></path></g><g transform="translate(-110,-61) scale(1,1)"><path fill="#ffffff" stroke="none" d="M 1088.9 71 L 1116.34 71 L 1128.1 82.75999999999995 L 1128.1 120 L 1088.9 120"></path></g><g transform="translate(-110,-61) scale(1,1)"><path fill="none" stroke="#000000" d="M 1088.9 71 L 1116.34 71 L 1128.1 82.75999999999995 L 1128.1 120 L 1088.9 120 L 1088.9 71" stroke-miterlimit="10"></path></g><g transform="translate(-110,-61) scale(1,1)"><path fill="none" stroke="#000000" d="M 1116.34 71 L 1116.34 82.75999999999995 L 1128.1 82.75999999999995 L 1116.34 71" stroke-miterlimit="10"></path></g><g transform="translate(-110,-61) scale(1,1)"><g><path fill="none" stroke="none"></path><text fill="#000000" stroke="none" font-family="Arial" font-size="13px" font-style="normal" font-weight="bold" text-decoration="none" x="1043.5" y="139.5">ArcGISMapInformation</text></g></g><g transform="translate(-110,-61) scale(1,1)"><path fill="none" stroke="#000000" d="M 1032 146 L 872 226" stroke-miterlimit="10"></path></g><g transform="translate(-110,-61) scale(1,1)"><path fill="#FFFFFF" stroke="none" d="M 879.2072191549614 217.69000649504724 L 872 226 L 882.9723262969391 225.22022077900252 L 891.6773982019981 216.16130089900093"></path></g><g transform="translate(-110,-61) scale(1,1)"><path fill="none" stroke="#000000" d="M 879.2072191549614 217.69000649504724 L 872 226 L 882.9723262969391 225.22022077900252 L 891.6773982019981 216.16130089900093 L 879.2072191549614 217.69000649504724" stroke-miterlimit="10"></path></g><g transform="translate(-110,-61) scale(1,1)"><g><path fill="none" stroke="none"></path><text fill="#000000" stroke="none" font-family="Arial" font-size="13px" font-style="normal" font-weight="normal" text-decoration="none" x="882" y="212">1</text></g></g><g transform="translate(-110,-61) scale(1,1)"><path fill="none" stroke="#000000" d="M 1148 146 L 1227 222" stroke-miterlimit="10"></path></g><g transform="translate(-110,-61) scale(1,1)"><path fill="#FFFFFF" stroke="none" d="M 1216.757768845519 217.98793058657057 L 1227 222 L 1222.5946103850133 211.92068740735917 L 1211.1455295262872 206.74759802528897"></path></g><g transform="translate(-110,-61) scale(1,1)"><path fill="none" stroke="#000000" d="M 1216.757768845519 217.98793058657057 L 1227 222 L 1222.5946103850133 211.92068740735917 L 1211.1455295262872 206.74759802528897 L 1216.757768845519 217.98793058657057" stroke-miterlimit="10"></path></g><g transform="translate(-110,-61) scale(1,1)"><g><path fill="none" stroke="none"></path><text fill="#000000" stroke="none" font-family="Arial" font-size="13px" font-style="normal" font-weight="normal" text-decoration="none" x="1191" y="222">0..1</text></g></g><g transform="translate(-110,-61) scale(1,1)"><path fill="#C0C0C0" stroke="none" d="M 1094.4 222 L 1121.8400000000001 222 L 1133.6000000000001 233.76000000000002 L 1133.6000000000001 271 L 1094.4 271" opacity="0.2"></path></g><g transform="translate(-110,-61) scale(1,1)"><path fill="#ffffff" stroke="none" d="M 1087.4 215 L 1114.84 215 L 1126.6 226.75999999999993 L 1126.6 264 L 1087.4 264"></path></g><g transform="translate(-110,-61) scale(1,1)"><path fill="none" stroke="#000000" d="M 1087.4 215 L 1114.84 215 L 1126.6 226.75999999999993 L 1126.6 264 L 1087.4 264 L 1087.4 215" stroke-miterlimit="10"></path></g><g transform="translate(-110,-61) scale(1,1)"><path fill="none" stroke="#000000" d="M 1114.84 215 L 1114.84 226.75999999999993 L 1126.6 226.75999999999993 L 1114.84 215" stroke-miterlimit="10"></path></g><g transform="translate(-110,-61) scale(1,1)"><g><path fill="none" stroke="none"></path><text fill="#000000" stroke="none" font-family="Arial" font-size="13px" font-style="normal" font-weight="bold" text-decoration="none" x="1074.5" y="283.5">MapPlaces</text></g></g><g transform="translate(-110,-61) scale(1,1)"><path fill="none" stroke="#000000" d="M 1108 146 L 1107 214" stroke-miterlimit="10"></path></g><g transform="translate(-110,-61) scale(1,1)"><path fill="#000000" stroke="none" d="M 1102.9403722946847 203.77652588919815 L 1107 214 L 1111.3584975915119 203.90032184944562 L 1107.3234944337212 192.00237850695328"></path></g><g transform="translate(-110,-61) scale(1,1)"><path fill="none" stroke="#000000" d="M 1102.9403722946847 203.77652588919815 L 1107 214 L 1111.3584975915119 203.90032184944562 L 1107.3234944337212 192.00237850695328 L 1102.9403722946847 203.77652588919815" stroke-miterlimit="10"></path></g><g transform="translate(-110,-61) scale(1,1)"><g><path fill="none" stroke="none"></path><text fill="#000000" stroke="none" font-family="Arial" font-size="13px" font-style="normal" font-weight="normal" text-decoration="none" x="1091" y="199">1</text></g></g><g transform="translate(-110,-61) scale(1,1)"><path fill="#C0C0C0" stroke="none" d="M 258.4 294 L 285.84000000000003 294 L 297.6 305.76 L 297.6 343 L 258.4 343" opacity="0.2"></path></g><g transform="translate(-110,-61) scale(1,1)"><path fill="#ffffff" stroke="none" d="M 251.39999999999998 287 L 278.84000000000003 287 L 290.6 298.76 L 290.6 336 L 251.39999999999998 336"></path></g><g transform="translate(-110,-61) scale(1,1)"><path fill="none" stroke="#000000" d="M 251.39999999999998 287 L 278.84000000000003 287 L 290.6 298.76 L 290.6 336 L 251.39999999999998 336 L 251.39999999999998 287" stroke-miterlimit="10"></path></g><g transform="translate(-110,-61) scale(1,1)"><path fill="none" stroke="#000000" d="M 278.84000000000003 287 L 278.84000000000003 298.76 L 290.6 298.76 L 278.84000000000003 287" stroke-miterlimit="10"></path></g><g transform="translate(-110,-61) scale(1,1)"><g><path fill="none" stroke="none"></path><text fill="#000000" stroke="none" font-family="Arial" font-size="13px" font-style="normal" font-weight="bold" text-decoration="none" x="191" y="355.5">MarkerIconConfigurationFile</text></g></g><g transform="translate(-110,-61) scale(1,1)"><path fill="#C0C0C0" stroke="none" d="M 254.9 86 L 282.34000000000003 86 L 294.1 97.76 L 294.1 135 L 254.9 135" opacity="0.2"></path></g><g transform="translate(-110,-61) scale(1,1)"><path fill="#ffffff" stroke="none" d="M 247.89999999999998 79 L 275.34000000000003 79 L 287.1 90.76000000000002 L 287.1 128 L 247.89999999999998 128"></path></g><g transform="translate(-110,-61) scale(1,1)"><path fill="none" stroke="#000000" d="M 247.89999999999998 79 L 275.34000000000003 79 L 287.1 90.76000000000002 L 287.1 128 L 247.89999999999998 128 L 247.89999999999998 79" stroke-miterlimit="10"></path></g><g transform="translate(-110,-61) scale(1,1)"><path fill="none" stroke="#000000" d="M 275.34000000000003 79 L 275.34000000000003 90.76000000000002 L 287.1 90.76000000000002 L 275.34000000000003 79" stroke-miterlimit="10"></path></g><g transform="translate(-110,-61) scale(1,1)"><g><path fill="none" stroke="none"></path><text fill="#000000" stroke="none" font-family="Arial" font-size="13px" font-style="normal" font-weight="bold" text-decoration="none" x="219.5" y="147.5">ConfigurationFile</text></g></g><g transform="translate(-110,-61) scale(1,1)"><path fill="none" stroke="#000000" d="M 269 287 L 269 153" stroke-miterlimit="10"></path></g><g transform="translate(-110,-61) scale(1,1)"><path fill="#FFFFFF" stroke="none" d="M 277.419035512032 173.3253497152483 L 269 153 L 260.580964487968 173.3253497152483"></path></g><g transform="translate(-110,-61) scale(1,1)"><path fill="none" stroke="#000000" d="M 277.419035512032 173.3253497152483 L 269 153 L 260.580964487968 173.3253497152483 L 277.419035512032 173.3253497152483" stroke-miterlimit="10"></path></g><g transform="translate(-110,-61) scale(1,1)"><path fill="#C0C0C0" stroke="none" d="M 262.4 519 L 289.84000000000003 519 L 301.6 530.76 L 301.6 568 L 262.4 568" opacity="0.2"></path></g><g transform="translate(-110,-61) scale(1,1)"><path fill="#ffffff" stroke="none" d="M 255.39999999999998 512 L 282.84000000000003 512 L 294.6 523.76 L 294.6 561 L 255.39999999999998 561"></path></g><g transform="translate(-110,-61) scale(1,1)"><path fill="none" stroke="#000000" d="M 255.39999999999998 512 L 282.84000000000003 512 L 294.6 523.76 L 294.6 561 L 255.39999999999998 561 L 255.39999999999998 512" stroke-miterlimit="10"></path></g><g transform="translate(-110,-61) scale(1,1)"><path fill="none" stroke="#000000" d="M 282.84000000000003 512 L 282.84000000000003 523.76 L 294.6 523.76 L 282.84000000000003 512" stroke-miterlimit="10"></path></g><g transform="translate(-110,-61) scale(1,1)"><g><path fill="none" stroke="none"></path><text fill="#000000" stroke="none" font-family="Arial" font-size="13px" font-style="normal" font-weight="bold" text-decoration="none" x="141.5" y="580.5">markerconfig.xml: MarkerIconConfigurationFile</text><path fill="none" stroke="#000000" d="M 425.5 580.5 L 124.5 580.5" stroke-miterlimit="10"></path></g></g><g transform="translate(-110,-61) scale(1,1)"><rect fill="#C0C0C0" stroke="none" x="171" y="667" width="212" height="68" opacity="0.2"></rect></g><g transform="translate(-110,-61) scale(1,1)"><rect fill="#ffffff" stroke="none" x="164" y="660" width="212" height="68"></rect></g><g transform="translate(-110,-61) scale(1,1)"><path fill="none" stroke="#000000" d="M 164 660 L 376 660 L 376 728 L 164 728 L 164 660 Z Z" stroke-miterlimit="10"></path></g><g transform="translate(-110,-61) scale(1,1)"><g><path fill="none" stroke="none"></path><text fill="#000000" stroke="none" font-family="Arial" font-size="13px" font-style="italic" font-weight="bold" text-decoration="none" x="253.5" y="679.5">Place</text></g></g><g transform="translate(-110,-61) scale(1,1)"><g><path fill="none" stroke="none"></path><text fill="#000000" stroke="none" font-family="Arial" font-size="13px" font-style="normal" font-weight="normal" text-decoration="none" x="232.5" y="694.5">(from places)</text></g></g><g transform="translate(-110,-61) scale(1,1)"><path fill="none" stroke="#000000" d="M 274 660 L 274 586" stroke-miterlimit="10" stroke-dasharray="3"></path></g><g transform="translate(-110,-61) scale(1,1)"><path fill="none" stroke="#000000" d="M 278.209517756016 596.1626748576241 L 274 586 L 269.790482243984 596.1626748576241" stroke-miterlimit="10"></path></g><g transform="translate(-110,-61) scale(1,1)"><g><path fill="none" stroke="none"></path><text fill="#000000" stroke="none" font-family="Arial" font-size="13px" font-style="normal" font-weight="normal" text-decoration="none" x="275" y="628">+use for configuring marker images</text></g></g><g transform="translate(-110,-61) scale(1,1)"><rect fill="#C0C0C0" stroke="none" x="1233" y="423" width="147" height="44" opacity="0.2"></rect></g><g transform="translate(-110,-61) scale(1,1)"><rect fill="#ffffff" stroke="none" x="1226" y="416" width="147" height="44"></rect></g><g transform="translate(-110,-61) scale(1,1)"><path fill="none" stroke="#000000" d="M 1226 416 L 1373 416 L 1373 460 L 1226 460 L 1226 416 Z Z" stroke-miterlimit="10"></path></g><g transform="translate(-110,-61) scale(1,1)"><rect fill="#ffffff" stroke="none" x="1216" y="423" width="20" height="10"></rect></g><g transform="translate(-110,-61) scale(1,1)"><path fill="none" stroke="#000000" d="M 1216 423 L 1236 423 L 1236 433 L 1216 433 L 1216 423 Z Z" stroke-miterlimit="10"></path></g><g transform="translate(-110,-61) scale(1,1)"><rect fill="#ffffff" stroke="none" x="1216" y="443" width="20" height="10"></rect></g><g transform="translate(-110,-61) scale(1,1)"><path fill="none" stroke="#000000" d="M 1216 443 L 1236 443 L 1236 453 L 1216 453 L 1216 443 Z Z" stroke-miterlimit="10"></path></g><g transform="translate(-110,-61) scale(1,1)"><g><path fill="none" stroke="none"></path><text fill="#000000" stroke="none" font-family="Arial" font-size="13px" font-style="normal" font-weight="bold" text-decoration="none" x="1246.5" y="435.5">DirectionsCalculator</text></g></g><g transform="translate(-110,-61) scale(1,1)"><g><path fill="none" stroke="none"></path><text fill="#000000" stroke="none" font-family="Arial" font-size="13px" font-style="normal" font-weight="normal" text-decoration="none" x="1270" y="450.5">(from maps)</text></g></g><g transform="translate(-110,-61) scale(1,1)"><path fill="none" stroke="#000000" d="M 1273 416 L 1273 297" stroke-miterlimit="10" stroke-dasharray="3"></path></g><g transform="translate(-110,-61) scale(1,1)"><path fill="none" stroke="#000000" d="M 1277.2095177560159 307.16267485762415 L 1273 297 L 1268.7904822439841 307.16267485762415" stroke-miterlimit="10"></path></g><g transform="translate(-110,-61) scale(1,1)"><g><path fill="none" stroke="none"></path><text fill="#000000" stroke="none" font-family="Arial" font-size="13px" font-style="normal" font-weight="normal" text-decoration="none" x="1270" y="356">+uses to compute route</text></g></g><g transform="translate(-110,-61) scale(1,1)"><rect fill="#C0C0C0" stroke="none" x="1081" y="423" width="111" height="44" opacity="0.2"></rect></g><g transform="translate(-110,-61) scale(1,1)"><rect fill="#ffffff" stroke="none" x="1074" y="416" width="111" height="44"></rect></g><g transform="translate(-110,-61) scale(1,1)"><path fill="none" stroke="#000000" d="M 1074 416 L 1185 416 L 1185 460 L 1074 460 L 1074 416 Z Z" stroke-miterlimit="10"></path></g><g transform="translate(-110,-61) scale(1,1)"><rect fill="#ffffff" stroke="none" x="1064" y="423" width="20" height="10"></rect></g><g transform="translate(-110,-61) scale(1,1)"><path fill="none" stroke="#000000" d="M 1064 423 L 1084 423 L 1084 433 L 1064 433 L 1064 423 Z Z" stroke-miterlimit="10"></path></g><g transform="translate(-110,-61) scale(1,1)"><rect fill="#ffffff" stroke="none" x="1064" y="443" width="20" height="10"></rect></g><g transform="translate(-110,-61) scale(1,1)"><path fill="none" stroke="#000000" d="M 1064 443 L 1084 443 L 1084 453 L 1064 453 L 1064 443 Z Z" stroke-miterlimit="10"></path></g><g transform="translate(-110,-61) scale(1,1)"><g><path fill="none" stroke="none"></path><text fill="#000000" stroke="none" font-family="Arial" font-size="13px" font-style="normal" font-weight="bold" text-decoration="none" x="1093" y="435.5">PlaceManager</text></g></g><g transform="translate(-110,-61) scale(1,1)"><g><path fill="none" stroke="none"></path><text fill="#000000" stroke="none" font-family="Arial" font-size="13px" font-style="normal" font-weight="normal" text-decoration="none" x="1097" y="450.5">(from places)</text></g></g><g transform="translate(-110,-61) scale(1,1)"><path fill="none" stroke="#000000" d="M 1110 416 L 1110 289" stroke-miterlimit="10" stroke-dasharray="3"></path></g><g transform="translate(-110,-61) scale(1,1)"><path fill="none" stroke="#000000" d="M 1114.2095177560159 299.16267485762415 L 1110 289 L 1105.7904822439841 299.16267485762415" stroke-miterlimit="10"></path></g><g transform="translate(-110,-61) scale(1,1)"><g><path fill="none" stroke="none"></path><text fill="#000000" stroke="none" font-family="Arial" font-size="13px" font-style="normal" font-weight="normal" text-decoration="none" x="1029" y="358">+uses to populate map</text></g></g><g transform="translate(-110,-61) scale(1,1)"><path fill="#C0C0C0" stroke="none" d="M 974.5 482.5 C 974.5 476.1487248 979.6487248 471 986 471 C 992.3512752 471 997.5 476.1487248 997.5 482.5 C 997.5 488.8512752 992.3512752 494 986 494 C 979.6487248 494 974.5 488.8512752 974.5 482.5 Z" opacity="0.2"></path></g><g transform="translate(-110,-61) scale(1,1)"><path fill="none" stroke="#000000" d="M 978.0037594118044 486.45676676425035 A 11.5 11.5 0 0 1 979.9962405881956 463.54323323574965" stroke-miterlimit="10"></path></g><g transform="translate(-110,-61) scale(1,1)"><path fill="#ffffff" stroke="none" d="M 970.5 475.5 C 970.5 470.8055792 974.3055792 467 979 467 C 983.6944208 467 987.5 470.8055792 987.5 475.5 C 987.5 480.1944208 983.6944208 484 979 484 C 974.3055792 484 970.5 480.1944208 970.5 475.5 Z"></path></g><g transform="translate(-110,-61) scale(1,1)"><path fill="none" stroke="#000000" d="M 970.5 475.5 C 970.5 470.8055792 974.3055792 467 979 467 C 983.6944208 467 987.5 470.8055792 987.5 475.5 C 987.5 480.1944208 983.6944208 484 979 484 C 974.3055792 484 970.5 480.1944208 970.5 475.5 Z" stroke-miterlimit="10"></path></g><g transform="translate(-110,-61) scale(1,1)"><g><path fill="none" stroke="none"></path><text fill="#000000" stroke="none" font-family="Arial" font-size="13px" font-style="normal" font-weight="bold" text-decoration="none" x="943" y="506.5">PlaceLoader</text></g></g><g transform="translate(-110,-61) scale(1,1)"><g><path fill="none" stroke="none"></path><text fill="#000000" stroke="none" font-family="Arial" font-size="13px" font-style="normal" font-weight="normal" text-decoration="none" x="941.5" y="521.5">(from places)</text></g></g><g transform="translate(-110,-61) scale(1,1)"><path fill="none" stroke="#000000" d="M 1065 461 L 990.5 475.5" stroke-miterlimit="10"></path></g><g transform="translate(-110,-61) scale(1,1)"><path fill="#C0C0C0" stroke="none" d="M 974.5 422.5 C 974.5 416.1487248 979.6487248 411 986 411 C 992.3512752 411 997.5 416.1487248 997.5 422.5 C 997.5 428.8512752 992.3512752 434 986 434 C 979.6487248 434 974.5 428.8512752 974.5 422.5 Z" opacity="0.2"></path></g><g transform="translate(-110,-61) scale(1,1)"><path fill="none" stroke="#000000" d="M 984.4943773894648 425.10256487740304 A 11.5 11.5 0 0 1 973.5056226105352 404.89743512259696" stroke-miterlimit="10"></path></g><g transform="translate(-110,-61) scale(1,1)"><path fill="#ffffff" stroke="none" d="M 970.5 415.5 C 970.5 410.8055792 974.3055792 407 979 407 C 983.6944208 407 987.5 410.8055792 987.5 415.5 C 987.5 420.1944208 983.6944208 424 979 424 C 974.3055792 424 970.5 420.1944208 970.5 415.5 Z"></path></g><g transform="translate(-110,-61) scale(1,1)"><path fill="none" stroke="#000000" d="M 970.5 415.5 C 970.5 410.8055792 974.3055792 407 979 407 C 983.6944208 407 987.5 410.8055792 987.5 415.5 C 987.5 420.1944208 983.6944208 424 979 424 C 974.3055792 424 970.5 420.1944208 970.5 415.5 Z" stroke-miterlimit="10"></path></g><g transform="translate(-110,-61) scale(1,1)"><g><path fill="none" stroke="none"></path><text fill="#000000" stroke="none" font-family="Arial" font-size="13px" font-style="normal" font-weight="bold" text-decoration="none" x="931.5" y="446.5">PlaceRepository</text></g></g><g transform="translate(-110,-61) scale(1,1)"><g><path fill="none" stroke="none"></path><text fill="#000000" stroke="none" font-family="Arial" font-size="13px" font-style="normal" font-weight="normal" text-decoration="none" x="941.5" y="461.5">(from places)</text></g></g><g transform="translate(-110,-61) scale(1,1)"><path fill="none" stroke="#000000" d="M 1063 437 L 990.5 419.2368421052632" stroke-miterlimit="10"></path></g><g transform="translate(-110,-61) scale(1,1)"><rect fill="#C0C0C0" stroke="none" x="737" y="427" width="165" height="72" opacity="0.2"></rect></g><g transform="translate(-110,-61) scale(1,1)"><rect fill="#ffffff" stroke="none" x="730" y="420" width="165" height="72"></rect></g><g transform="translate(-110,-61) scale(1,1)"><path fill="none" stroke="#000000" d="M 730 420 L 895 420 L 895 492 L 730 492 L 730 420 Z Z" stroke-miterlimit="10"></path></g><g transform="translate(-110,-61) scale(1,1)"><rect fill="#ffffff" stroke="none" x="720" y="427" width="20" height="10"></rect></g><g transform="translate(-110,-61) scale(1,1)"><path fill="none" stroke="#000000" d="M 720 427 L 740 427 L 740 437 L 720 437 L 720 427 Z Z" stroke-miterlimit="10"></path></g><g transform="translate(-110,-61) scale(1,1)"><rect fill="#ffffff" stroke="none" x="720" y="447" width="20" height="10"></rect></g><g transform="translate(-110,-61) scale(1,1)"><path fill="none" stroke="#000000" d="M 720 447 L 740 447 L 740 457 L 720 457 L 720 447 Z Z" stroke-miterlimit="10"></path></g><g transform="translate(-110,-61) scale(1,1)"><g><path fill="none" stroke="none"></path><text fill="#000000" stroke="none" font-family="Arial" font-size="13px" font-style="normal" font-weight="bold" text-decoration="none" x="785.5" y="439.5">TouristMap</text></g></g><g transform="translate(-110,-61) scale(1,1)"><g><path fill="none" stroke="none"></path><text fill="#000000" stroke="none" font-family="Arial" font-size="13px" font-style="normal" font-weight="normal" text-decoration="none" x="783" y="454.5">(from maps)</text></g></g><g transform="translate(-110,-61) scale(1,1)"><rect fill="#ffffff" stroke="none" x="825" y="485" width="14" height="14"></rect></g><g transform="translate(-110,-61) scale(1,1)"><path fill="none" stroke="#000000" d="M 825 485 L 839 485 L 839 499 L 825 499 L 825 485 Z Z" stroke-miterlimit="10"></path></g><g transform="translate(-110,-61) scale(1,1)"><g><path fill="none" stroke="none"></path><text fill="#000000" stroke="none" font-family="Arial" font-size="13px" font-style="normal" font-weight="normal" text-decoration="none" x="788" y="483.5">Directions</text></g></g><g transform="translate(-110,-61) scale(1,1)"><rect fill="#ffffff" stroke="none" x="888" y="444" width="14" height="14"></rect></g><g transform="translate(-110,-61) scale(1,1)"><path fill="none" stroke="#000000" d="M 888 444 L 902 444 L 902 458 L 888 458 L 888 444 Z Z" stroke-miterlimit="10"></path></g><g transform="translate(-110,-61) scale(1,1)"><g><path fill="none" stroke="none"></path><text fill="#000000" stroke="none" font-family="Arial" font-size="13px" font-style="normal" font-weight="normal" text-decoration="none" x="860" y="442.5">Places</text></g></g><g transform="translate(-110,-61) scale(1,1)"><path fill="none" stroke="#000000" d="M 903 455 L 967.5 474" stroke-miterlimit="10"></path></g><g transform="translate(-110,-61) scale(1,1)"><path fill="none" stroke="#000000" d="M 903 449 L 967.5 421.2543859649123" stroke-miterlimit="10"></path></g><g transform="translate(-110,-61) scale(1,1)"><path fill="#C0C0C0" stroke="none" d="M 1045 598.5 C 1045 592.1487248 1050.1487248 587 1056.5 587 C 1062.8512752 587 1068 592.1487248 1068 598.5 C 1068 604.8512752 1062.8512752 610 1056.5 610 C 1050.1487248 610 1045 604.8512752 1045 598.5 Z" opacity="0.2"></path></g><g transform="translate(-110,-61) scale(1,1)"><path fill="none" stroke="#000000" d="M 1046.6700355535866 602.2614948243317 A 11.5 11.5 0 0 1 1051.3299644464134 579.7385051756683" stroke-miterlimit="10"></path></g><g transform="translate(-110,-61) scale(1,1)"><path fill="#ffffff" stroke="none" d="M 1041 591.5 C 1041 586.8055792 1044.8055792 583 1049.5 583 C 1054.1944208 583 1058 586.8055792 1058 591.5 C 1058 596.1944208 1054.1944208 600 1049.5 600 C 1044.8055792 600 1041 596.1944208 1041 591.5 Z"></path></g><g transform="translate(-110,-61) scale(1,1)"><path fill="none" stroke="#000000" d="M 1041 591.5 C 1041 586.8055792 1044.8055792 583 1049.5 583 C 1054.1944208 583 1058 586.8055792 1058 591.5 C 1058 596.1944208 1054.1944208 600 1049.5 600 C 1044.8055792 600 1041 596.1944208 1041 591.5 Z" stroke-miterlimit="10"></path></g><g transform="translate(-110,-61) scale(1,1)"><g><path fill="none" stroke="none"></path><text fill="#000000" stroke="none" font-family="Arial" font-size="13px" font-style="normal" font-weight="bold" text-decoration="none" x="982" y="622.5">ClosestPlaceCalculator</text></g></g><g transform="translate(-110,-61) scale(1,1)"><g><path fill="none" stroke="none"></path><text fill="#000000" stroke="none" font-family="Arial" font-size="13px" font-style="normal" font-weight="normal" text-decoration="none" x="1015" y="637.5">(from maps)</text></g></g><g transform="translate(-110,-61) scale(1,1)"><path fill="none" stroke="#000000" d="M 840 496 L 1038 588.7241379310345" stroke-miterlimit="10"></path></g><g transform="translate(-110,-61) scale(1,1)"><path fill="none" stroke="#000000" d="M 1261 461 L 1061 587.8" stroke-miterlimit="10"></path></g><g transform="translate(-110,-61) scale(1,1)"><path fill="#C0C0C0" stroke="none" d="M 1045 670.5 C 1045 664.1487248 1050.1487248 659 1056.5 659 C 1062.8512752 659 1068 664.1487248 1068 670.5 C 1068 676.8512752 1062.8512752 682 1056.5 682 C 1050.1487248 682 1045 676.8512752 1045 670.5 Z" opacity="0.2"></path></g><g transform="translate(-110,-61) scale(1,1)"><path fill="none" stroke="#000000" d="M 1045.3633806908065 673.9098579275809 A 11.5 11.5 0 1 1 1052.6366193091935 652.0901420724191" stroke-miterlimit="10"></path></g><g transform="translate(-110,-61) scale(1,1)"><path fill="#ffffff" stroke="none" d="M 1041 663.5 C 1041 658.8055792 1044.8055792 655 1049.5 655 C 1054.1944208 655 1058 658.8055792 1058 663.5 C 1058 668.1944208 1054.1944208 672 1049.5 672 C 1044.8055792 672 1041 668.1944208 1041 663.5 Z"></path></g><g transform="translate(-110,-61) scale(1,1)"><path fill="none" stroke="#000000" d="M 1041 663.5 C 1041 658.8055792 1044.8055792 655 1049.5 655 C 1054.1944208 655 1058 658.8055792 1058 663.5 C 1058 668.1944208 1054.1944208 672 1049.5 672 C 1044.8055792 672 1041 668.1944208 1041 663.5 Z" stroke-miterlimit="10"></path></g><g transform="translate(-110,-61) scale(1,1)"><g><path fill="none" stroke="none"></path><text fill="#000000" stroke="none" font-family="Arial" font-size="13px" font-style="normal" font-weight="bold" text-decoration="none" x="998.5" y="694.5">RoutingCalculator</text></g></g><g transform="translate(-110,-61) scale(1,1)"><g><path fill="none" stroke="none"></path><text fill="#000000" stroke="none" font-family="Arial" font-size="13px" font-style="normal" font-weight="normal" text-decoration="none" x="1015" y="709.5">(from maps)</text></g></g><g transform="translate(-110,-61) scale(1,1)"><path fill="none" stroke="#000000" d="M 840 499 L 1038 659.3333333333334" stroke-miterlimit="10"></path></g><g transform="translate(-110,-61) scale(1,1)"><path fill="none" stroke="#000000" d="M 1271 461 L 1061 658.5" stroke-miterlimit="10"></path></g><g transform="translate(-110,-61) scale(1,1)"><path fill="none" stroke="#000000" d="M 809 420 L 809 294" stroke-miterlimit="10" stroke-dasharray="3"></path></g><g transform="translate(-110,-61) scale(1,1)"><path fill="none" stroke="#000000" d="M 813.209517756016 304.16267485762415 L 809 294 L 804.790482243984 304.16267485762415" stroke-miterlimit="10"></path></g><g transform="translate(-110,-61) scale(1,1)"><g><path fill="none" stroke="none"></path><text fill="#000000" stroke="none" font-family="Arial" font-size="13px" font-style="normal" font-weight="normal" text-decoration="none" x="720" y="363">+uses to create basemap</text></g></g><g transform="translate(-110,-61) scale(1,1)"><path fill="none" stroke="#000000" d="M 1428 106 L 1189 106" stroke-miterlimit="10" stroke-dasharray="3"></path></g><g transform="translate(-110,-61) scale(1,1)"><path fill="none" stroke="#000000" d="M 1199.162674857624 101.79048224398402 L 1189 106 L 1199.162674857624 110.20951775601598" stroke-miterlimit="10"></path></g><g transform="translate(-110,-61) scale(1,1)"><g><path fill="none" stroke="none"></path><text fill="#000000" stroke="none" font-family="Arial" font-size="13px" font-style="normal" font-weight="normal" text-decoration="none" x="1242" y="128">+uses to get map view</text></g></g><g transform="translate(-110,-61) scale(1,1)"><rect fill="#C0C0C0" stroke="none" x="1445" y="103" width="137" height="44" opacity="0.2"></rect></g><g transform="translate(-110,-61) scale(1,1)"><rect fill="#ffffff" stroke="none" x="1438" y="96" width="137" height="44"></rect></g><g transform="translate(-110,-61) scale(1,1)"><path fill="none" stroke="#000000" d="M 1438 96 L 1575 96 L 1575 140 L 1438 140 L 1438 96 Z Z" stroke-miterlimit="10"></path></g><g transform="translate(-110,-61) scale(1,1)"><rect fill="#ffffff" stroke="none" x="1428" y="103" width="20" height="10"></rect></g><g transform="translate(-110,-61) scale(1,1)"><path fill="none" stroke="#000000" d="M 1428 103 L 1448 103 L 1448 113 L 1428 113 L 1428 103 Z Z" stroke-miterlimit="10"></path></g><g transform="translate(-110,-61) scale(1,1)"><rect fill="#ffffff" stroke="none" x="1428" y="123" width="20" height="10"></rect></g><g transform="translate(-110,-61) scale(1,1)"><path fill="none" stroke="#000000" d="M 1428 123 L 1448 123 L 1448 133 L 1428 133 L 1428 123 Z Z" stroke-miterlimit="10"></path></g><g transform="translate(-110,-61) scale(1,1)"><g><path fill="none" stroke="none"></path><text fill="#000000" stroke="none" font-family="Arial" font-size="13px" font-style="normal" font-weight="bold" text-decoration="none" x="1459" y="115.5">ApplicationControl</text></g></g><g transform="translate(-110,-61) scale(1,1)"><g><path fill="none" stroke="none"></path><text fill="#000000" stroke="none" font-family="Arial" font-size="13px" font-style="normal" font-weight="normal" text-decoration="none" x="1466.5" y="130.5">(from touristgis)</text></g></g></g></svg>